  0
SECTION
  2
HEADER
  9
$ACADVER
  1
AC1021
  9
$ACADMAINTVER
 70
    25
  9
$DWGCODEPAGE
  3
ANSI_1252
  9
$INSBASE
 10
0.0
 20
0.0
 30
0.0
  9
$EXTMIN
 10
-12.04805
 20
-4.77647
 30
0.0
  9
$EXTMAX
 10
12.11091
 20
14.14961
 30
0.0
  9
$LIMMIN
 10
0.0
 20
0.0
  9
$LIMMAX
 10
12.0
 20
9.0
  9
$ORTHOMODE
 70
     0
  9
$REGENMODE
 70
     1
  9
$FILLMODE
 70
     1
  9
$QTEXTMODE
 70
     0
  9
$MIRRTEXT
 70
     1
  9
$LTSCALE
 40
1.0
  9
$ATTMODE
 70
     1
  9
$TEXTSIZE
 40
0.2
  9
$TRACEWID
 40
0.05
  9
$TEXTSTYLE
  7
Standard
  9
$CLAYER
  8
0
  9
$CELTYPE
  6
ByLayer
  9
$CECOLOR
 62
   256
  9
$CELTSCALE
 40
1.0
  9
$DISPSILH
 70
     0
  9
$DIMSCALE
 40
1.0
  9
$DIMASZ
 40
0.18
  9
$DIMEXO
 40
0.0625
  9
$DIMDLI
 40
0.38
  9
$DIMRND
 40
0.0
  9
$DIMDLE
 40
0.0
  9
$DIMEXE
 40
0.18
  9
$DIMTP
 40
0.0
  9
$DIMTM
 40
0.0
  9
$DIMTXT
 40
0.18
  9
$DIMCEN
 40
0.09
  9
$DIMTSZ
 40
0.0
  9
$DIMTOL
 70
     0
  9
$DIMLIM
 70
     0
  9
$DIMTIH
 70
     1
  9
$DIMTOH
 70
     1
  9
$DIMSE1
 70
     0
  9
$DIMSE2
 70
     0
  9
$DIMTAD
 70
     0
  9
$DIMZIN
 70
     0
  9
$DIMBLK
  1

  9
$DIMASO
 70
     1
  9
$DIMSHO
 70
     1
  9
$DIMPOST
  1

  9
$DIMAPOST
  1

  9
$DIMALT
 70
     0
  9
$DIMALTD
 70
     2
  9
$DIMALTF
 40
25.4
  9
$DIMLFAC
 40
1.0
  9
$DIMTOFL
 70
     0
  9
$DIMTVP
 40
0.0
  9
$DIMTIX
 70
     0
  9
$DIMSOXD
 70
     0
  9
$DIMSAH
 70
     0
  9
$DIMBLK1
  1

  9
$DIMBLK2
  1

  9
$DIMSTYLE
  2
Standard
  9
$DIMCLRD
 70
     0
  9
$DIMCLRE
 70
     0
  9
$DIMCLRT
 70
     0
  9
$DIMTFAC
 40
1.0
  9
$DIMGAP
 40
0.09
  9
$DIMJUST
 70
     0
  9
$DIMSD1
 70
     0
  9
$DIMSD2
 70
     0
  9
$DIMTOLJ
 70
     1
  9
$DIMTZIN
 70
     0
  9
$DIMALTZ
 70
     0
  9
$DIMALTTZ
 70
     0
  9
$DIMUPT
 70
     0
  9
$DIMDEC
 70
     4
  9
$DIMTDEC
 70
     4
  9
$DIMALTU
 70
     2
  9
$DIMALTTD
 70
     2
  9
$DIMTXSTY
  7
Standard
  9
$DIMAUNIT
 70
     0
  9
$DIMADEC
 70
     0
  9
$DIMALTRND
 40
0.0
  9
$DIMAZIN
 70
     0
  9
$DIMDSEP
 70
    46
  9
$DIMATFIT
 70
     3
  9
$DIMFRAC
 70
     0
  9
$DIMLDRBLK
  1

  9
$DIMLUNIT
 70
     2
  9
$DIMLWD
 70
    -2
  9
$DIMLWE
 70
    -2
  9
$DIMTMOVE
 70
     0
  9
$DIMFXL
 40
1.0
  9
$DIMFXLON
 70
     0
  9
$DIMJOGANG
 40
0.7853981633974483
  9
$DIMTFILL
 70
     0
  9
$DIMTFILLCLR
 70
     0
  9
$DIMARCSYM
 70
     0
  9
$DIMLTYPE
  6

  9
$DIMLTEX1
  6

  9
$DIMLTEX2
  6

  9
$LUNITS
 70
     2
  9
$LUPREC
 70
     4
  9
$SKETCHINC
 40
0.1
  9
$FILLETRAD
 40
0.5
  9
$AUNITS
 70
     0
  9
$AUPREC
 70
     0
  9
$MENU
  1
.
  9
$ELEVATION
 40
0.0
  9
$PELEVATION
 40
0.0
  9
$THICKNESS
 40
0.0
  9
$LIMCHECK
 70
     0
  9
$CHAMFERA
 40
0.5
  9
$CHAMFERB
 40
0.5
  9
$CHAMFERC
 40
1.0
  9
$CHAMFERD
 40
0.0
  9
$SKPOLY
 70
     0
  9
$TDCREATE
 40
2460590.614258565
  9
$TDUCREATE
 40
2460590.572591898
  9
$TDUPDATE
 40
2460590.614258819
  9
$TDUUPDATE
 40
2460590.572592153
  9
$TDINDWG
 40
0.0000000116
  9
$TDUSRTIMER
 40
0.0000000116
  9
$USRTIMER
 70
     1
  9
$ANGBASE
 50
0.0
  9
$ANGDIR
 70
     0
  9
$PDMODE
 70
     0
  9
$PDSIZE
 40
0.0
  9
$PLINEWID
 40
0.0
  9
$SPLFRAME
 70
     0
  9
$SPLINETYPE
 70
     6
  9
$SPLINESEGS
 70
     8
  9
$HANDSEED
  5
B3
  9
$SURFTAB1
 70
     6
  9
$SURFTAB2
 70
     6
  9
$SURFTYPE
 70
     6
  9
$SURFU
 70
     6
  9
$SURFV
 70
     6
  9
$UCSBASE
  2

  9
$UCSNAME
  2

  9
$UCSORG
 10
0.0
 20
0.0
 30
0.0
  9
$UCSXDIR
 10
1.0
 20
0.0
 30
0.0
  9
$UCSYDIR
 10
0.0
 20
1.0
 30
0.0
  9
$UCSORTHOREF
  2

  9
$UCSORTHOVIEW
 70
     0
  9
$UCSORGTOP
 10
0.0
 20
0.0
 30
0.0
  9
$UCSORGBOTTOM
 10
0.0
 20
0.0
 30
0.0
  9
$UCSORGLEFT
 10
0.0
 20
0.0
 30
0.0
  9
$UCSORGRIGHT
 10
0.0
 20
0.0
 30
0.0
  9
$UCSORGFRONT
 10
0.0
 20
0.0
 30
0.0
  9
$UCSORGBACK
 10
0.0
 20
0.0
 30
0.0
  9
$PUCSBASE
  2

  9
$PUCSNAME
  2

  9
$PUCSORG
 10
0.0
 20
0.0
 30
0.0
  9
$PUCSXDIR
 10
1.0
 20
0.0
 30
0.0
  9
$PUCSYDIR
 10
0.0
 20
1.0
 30
0.0
  9
$PUCSORTHOREF
  2

  9
$PUCSORTHOVIEW
 70
     0
  9
$PUCSORGTOP
 10
0.0
 20
0.0
 30
0.0
  9
$PUCSORGBOTTOM
 10
0.0
 20
0.0
 30
0.0
  9
$PUCSORGLEFT
 10
0.0
 20
0.0
 30
0.0
  9
$PUCSORGRIGHT
 10
0.0
 20
0.0
 30
0.0
  9
$PUCSORGFRONT
 10
0.0
 20
0.0
 30
0.0
  9
$PUCSORGBACK
 10
0.0
 20
0.0
 30
0.0
  9
$USERI1
 70
     0
  9
$USERI2
 70
     0
  9
$USERI3
 70
     0
  9
$USERI4
 70
     0
  9
$USERI5
 70
     0
  9
$USERR1
 40
0.0
  9
$USERR2
 40
0.0
  9
$USERR3
 40
0.0
  9
$USERR4
 40
0.0
  9
$USERR5
 40
0.0
  9
$WORLDVIEW
 70
     1
  9
$SHADEDGE
 70
     3
  9
$SHADEDIF
 70
    70
  9
$TILEMODE
 70
     1
  9
$MAXACTVP
 70
    64
  9
$PINSBASE
 10
0.0
 20
0.0
 30
0.0
  9
$PLIMCHECK
 70
     0
  9
$PEXTMIN
 10
1.000000000000000E+20
 20
1.000000000000000E+20
 30
1.000000000000000E+20
  9
$PEXTMAX
 10
-1.000000000000000E+20
 20
-1.000000000000000E+20
 30
-1.000000000000000E+20
  9
$PLIMMIN
 10
0.0
 20
0.0
  9
$PLIMMAX
 10
12.0
 20
9.0
  9
$UNITMODE
 70
     0
  9
$VISRETAIN
 70
     1
  9
$PLINEGEN
 70
     0
  9
$PSLTSCALE
 70
     1
  9
$TREEDEPTH
 70
  3020
  9
$CMLSTYLE
  2
Standard
  9
$CMLJUST
 70
     0
  9
$CMLSCALE
 40
1.0
  9
$PROXYGRAPHICS
 70
     1
  9
$MEASUREMENT
 70
     0
  9
$CELWEIGHT
370
    -1
  9
$ENDCAPS
280
     0
  9
$JOINSTYLE
280
     0
  9
$LWDISPLAY
290
     0
  9
$INSUNITS
 70
     5
  9
$HYPERLINKBASE
  1

  9
$STYLESHEET
  1

  9
$XEDIT
290
     1
  9
$CEPSNTYPE
380
     0
  9
$PSTYLEMODE
290
     1
  9
$FINGERPRINTGUID
  2
{E71FF851-8947-4E4D-BF15-1F61B951E133}
  9
$VERSIONGUID
  2
{FAEB1C32-E019-11D5-929B-00C0DF256EC4}
  9
$EXTNAMES
290
     1
  9
$PSVPSCALE
 40
0.0
  9
$OLESTARTUP
290
     0
  9
$SORTENTS
280
   127
  9
$INDEXCTL
280
     0
  9
$HIDETEXT
280
     1
  9
$XCLIPFRAME
290
     0
  9
$HALOGAP
280
     0
  9
$OBSCOLOR
 70
   257
  9
$OBSLTYPE
280
     0
  9
$INTERSECTIONDISPLAY
280
     0
  9
$INTERSECTIONCOLOR
 70
   257
  9
$DIMASSOC
280
     2
  9
$PROJECTNAME
  1

  9
$CAMERADISPLAY
290
     0
  9
$LENSLENGTH
 40
50.0
  9
$CAMERAHEIGHT
 40
0.0
  9
$STEPSPERSEC
 40
2.0
  9
$STEPSIZE
 40
6.0
  9
$3DDWFPREC
 40
2.0
  9
$PSOLWIDTH
 40
0.25
  9
$PSOLHEIGHT
 40
4.0
  9
$LOFTANG1
 40
1.570796326794897
  9
$LOFTANG2
 40
1.570796326794897
  9
$LOFTMAG1
 40
0.0
  9
$LOFTMAG2
 40
0.0
  9
$LOFTPARAM
 70
     7
  9
$LOFTNORMALS
280
     1
  9
$LATITUDE
 40
37.795
  9
$LONGITUDE
 40
-122.394
  9
$NORTHDIRECTION
 40
0.0
  9
$TIMEZONE
 70
 -8000
  9
$LIGHTGLYPHDISPLAY
280
     1
  9
$TILEMODELIGHTSYNCH
280
     1
  9
$SOLIDHIST
280
     1
  9
$SHOWHIST
280
     1
  9
$DWFFRAME
280
     2
  9
$DGNFRAME
280
     2
  9
$REALWORLDSCALE
290
     1
  9
$INTERFERECOLOR
 62
   256
  9
$CSHADOW
280
     0
  9
$SHADOWPLANELOCATION
 40
0.0
  0
ENDSEC
  0
SECTION
  2
CLASSES
  0
CLASS
  1
ACDBDICTIONARYWDFLT
  2
AcDbDictionaryWithDefault
  3
ObjectDBX Classes
 90
        0
 91
        4
280
     0
281
     0
  0
CLASS
  1
VISUALSTYLE
  2
AcDbVisualStyle
  3
ObjectDBX Classes
 90
     4095
 91
        4
280
     0
281
     0
  0
CLASS
  1
MATERIAL
  2
AcDbMaterial
  3
ObjectDBX Classes
 90
     1153
 91
        4
280
     0
281
     0
  0
ENDSEC
  0
SECTION
  2
TABLES
  0
TABLE
  2
VPORT
  5
8
330
0
100
AcDbSymbolTable
 70
     1
  0
VPORT
  5
29
330
8
100
AcDbSymbolTableRecord
100
AcDbViewportTableRecord
  2
*Active
 70
     0
 10
0.0
 20
0.0
 11
1.0
 21
1.0
 12
10.42990654205607
 22
4.5
 13
0.0
 23
0.0
 14
0.5
 24
0.5
 15
0.5
 25
0.5
 16
0.0
 26
0.0
 36
1.0
 17
0.0
 27
0.0
 37
0.0
 40
9.0
 41
1.972972972850329
 42
50.0
 43
0.0
 44
0.0
 50
0.0
 51
0.0
 71
     0
 72
   100
 73
     1
 74
     3
 75
     0
 76
     0
 77
     0
 78
     0
281
     0
 65
     1
110
0.0
120
0.0
130
0.0
111
1.0
121
0.0
131
0.0
112
0.0
122
1.0
132
0.0
 79
     0
146
0.0
 60
     3
 61
     5
292
     1
282
     1
141
0.0
142
0.0
 63
   250
  0
ENDTAB
  0
TABLE
  2
LTYPE
  5
5
330
0
100
AcDbSymbolTable
 70
     1
  0
LTYPE
  5
14
330
5
100
AcDbSymbolTableRecord
100
AcDbLinetypeTableRecord
  2
ByBlock
 70
     0
  3

 72
    65
 73
     0
 40
0.0
  0
LTYPE
  5
15
330
5
100
AcDbSymbolTableRecord
100
AcDbLinetypeTableRecord
  2
ByLayer
 70
     0
  3

 72
    65
 73
     0
 40
0.0
  0
LTYPE
  5
16
330
5
100
AcDbSymbolTableRecord
100
AcDbLinetypeTableRecord
  2
Continuous
 70
     0
  3
Solid line
 72
    65
 73
     0
 40
0.0
  0
ENDTAB
  0
TABLE
  2
LAYER
  5
2
330
0
100
AcDbSymbolTable
 70
     2
  0
LAYER
  5
10
330
2
100
AcDbSymbolTableRecord
100
AcDbLayerTableRecord
  2
0
 70
     0
 62
     7
  6
Continuous
370
    -3
390
F
347
3E
  0
LAYER
  5
40
330
2
100
AcDbSymbolTableRecord
100
AcDbLayerTableRecord
  2
Layer 1
 70
     0
 62
     7
  6
Continuous
370
    -3
390
F
347
3E
  0
ENDTAB
  0
TABLE
  2
STYLE
  5
3
330
0
100
AcDbSymbolTable
 70
     1
  0
STYLE
  5
11
330
3
100
AcDbSymbolTableRecord
100
AcDbTextStyleTableRecord
  2
Standard
 70
     0
 40
0.0
 41
1.0
 50
0.0
 71
     0
 42
0.2
  3
txt
  4

  0
ENDTAB
  0
TABLE
  2
VIEW
  5
6
330
0
100
AcDbSymbolTable
 70
     0
  0
ENDTAB
  0
TABLE
  2
UCS
  5
7
330
0
100
AcDbSymbolTable
 70
     0
  0
ENDTAB
  0
TABLE
  2
APPID
  5
9
330
0
100
AcDbSymbolTable
 70
     2
  0
APPID
  5
12
330
9
100
AcDbSymbolTableRecord
100
AcDbRegAppTableRecord
  2
ACAD
 70
     0
  0
APPID
  5
3F
330
9
100
AcDbSymbolTableRecord
100
AcDbRegAppTableRecord
  2
ODA
 70
     0
  0
ENDTAB
  0
TABLE
  2
DIMSTYLE
  5
A
330
0
100
AcDbSymbolTable
 70
     1
100
AcDbDimStyleTable
  0
DIMSTYLE
105
27
330
A
100
AcDbSymbolTableRecord
100
AcDbDimStyleTableRecord
  2
Standard
 70
     0
178
     0
340
11
  0
ENDTAB
  0
TABLE
  2
BLOCK_RECORD
  5
1
330
0
100
AcDbSymbolTable
 70
     1
  0
BLOCK_RECORD
  5
1F
330
1
100
AcDbSymbolTableRecord
100
AcDbBlockTableRecord
  2
*Model_Space
340
22
 70
     0
280
     1
281
     0
  0
BLOCK_RECORD
  5
1B
330
1
100
AcDbSymbolTableRecord
100
AcDbBlockTableRecord
  2
*Paper_Space
340
1E
 70
     0
280
     1
281
     0
  0
BLOCK_RECORD
  5
23
330
1
100
AcDbSymbolTableRecord
100
AcDbBlockTableRecord
  2
*Paper_Space0
340
26
 70
     0
280
     1
281
     0
  0
ENDTAB
  0
ENDSEC
  0
SECTION
  2
BLOCKS
  0
BLOCK
  5
20
330
1F
100
AcDbEntity
  8
0
100
AcDbBlockBegin
  2
*Model_Space
 70
     0
 10
0.0
 20
0.0
 30
0.0
  3
*Model_Space
  1

  0
ENDBLK
  5
21
330
1F
100
AcDbEntity
  8
0
100
AcDbBlockEnd
  0
BLOCK
  5
1C
330
1B
100
AcDbEntity
 67
     1
  8
0
100
AcDbBlockBegin
  2
*Paper_Space
 70
     0
 10
0.0
 20
0.0
 30
0.0
  3
*Paper_Space
  1

  0
ENDBLK
  5
1D
330
1B
100
AcDbEntity
 67
     1
  8
0
100
AcDbBlockEnd
  0
BLOCK
  5
24
330
23
100
AcDbEntity
  8
0
100
AcDbBlockBegin
  2
*Paper_Space0
 70
     0
 10
0.0
 20
0.0
 30
0.0
  3
*Paper_Space0
  1

  0
ENDBLK
  5
25
330
23
100
AcDbEntity
  8
0
100
AcDbBlockEnd
  0
ENDSEC
  0
SECTION
  2
ENTITIES
  0
SPLINE
  5
41
330
1F
100
AcDbEntity
  8
Layer 1
100
AcDbSpline
210
0.0
220
0.0
230
1.0
 70
    11
 71
     3
 72
    48
 73
    44
 74
     0
 42
0.0000000001
 43
0.0000000001
 12
1.0
 22
0.0
 32
0.0
 13
1.0
 23
0.0
 33
0.0
 40
0.0
 40
0.0
 40
0.0
 40
0.0
 40
0.0833333333333333
 40
0.0833333333333333
 40
0.0833333333333333
 40
0.0833333333333333
 40
0.1666666666666667
 40
0.1666666666666667
 40
0.1666666666666667
 40
0.1666666666666667
 40
0.25
 40
0.25
 40
0.25
 40
0.25
 40
0.3333333333333333
 40
0.3333333333333333
 40
0.3333333333333333
 40
0.3333333333333333
 40
0.4166666666666667
 40
0.4166666666666667
 40
0.4166666666666667
 40
0.4166666666666667
 40
0.5
 40
0.5
 40
0.5
 40
0.5
 40
0.5833333333333334
 40
0.5833333333333334
 40
0.5833333333333334
 40
0.5833333333333334
 40
0.6666666666666666
 40
0.6666666666666666
 40
0.6666666666666666
 40
0.6666666666666666
 40
0.75
 40
0.75
 40
0.75
 40
0.75
 40
0.8333333333333334
 40
0.8333333333333334
 40
0.8333333333333334
 40
0.8333333333333334
 40
1.0
 40
1.0
 40
1.0
 40
1.0
 10
-12.04805
 20
12.92533
 30
0.0
 10
-12.04805
 20
12.92533
 30
0.0
 10
-12.04805
 20
13.84354
 30
0.0
 10
-12.04805
 20
13.84354
 30
0.0
 10
-12.04805
 20
13.84354
 30
0.0
 10
-12.04805
 20
13.84354
 30
0.0
 10
-11.92613
 20
13.84354
 30
0.0
 10
-11.92613
 20
13.84354
 30
0.0
 10
-11.92613
 20
13.84354
 30
0.0
 10
-11.92613
 20
13.84354
 30
0.0
 10
-11.92613
 20
13.71633
 30
0.0
 10
-11.92613
 20
13.71633
 30
0.0
 10
-11.92613
 20
13.71633
 30
0.0
 10
-11.87618
 20
13.81052
 30
0.0
 10
-11.80103
 20
13.85751
 30
0.0
 10
-11.70092
 20
13.85751
 30
0.0
 10
-11.70092
 20
13.85751
 30
0.0
 10
-11.61985
 20
13.85751
 30
0.0
 10
-11.55614
 20
13.82809
 30
0.0
 10
-11.50957
 20
13.76903
 30
0.0
 10
-11.50957
 20
13.76903
 30
0.0
 10
-11.463
 20
13.70998
 30
0.0
 10
-11.43972
 20
13.62933
 30
0.0
 10
-11.43972
 20
13.5271
 30
0.0
 10
-11.43972
 20
13.5271
 30
0.0
 10
-11.43972
 20
13.41576
 30
0.0
 10
-11.46618
 20
13.3258
 30
0.0
 10
-11.51888
 20
13.25765
 30
0.0
 10
-11.51888
 20
13.25765
 30
0.0
 10
-11.57159
 20
13.18928
 30
0.0
 10
-11.64101
 20
13.1552
 30
0.0
 10
-11.72695
 20
13.1552
 30
0.0
 10
-11.72695
 20
13.1552
 30
0.0
 10
-11.80675
 20
13.1552
 30
0.0
 10
-11.87321
 20
13.18568
 30
0.0
 10
-11.92613
 20
13.24685
 30
0.0
 10
-11.92613
 20
13.24685
 30
0.0
 10
-11.92613
 20
13.24685
 30
0.0
 10
-11.92613
 20
12.92533
 30
0.0
 10
-11.92613
 20
12.92533
 30
0.0
 10
-11.92613
 20
12.92533
 30
0.0
 10
-11.92613
 20
12.92533
 30
0.0
 10
-12.04805
 20
12.92533
 30
0.0
 10
-12.04805
 20
12.92533
 30
0.0
  0
SPLINE
  5
42
330
1F
100
AcDbEntity
  8
Layer 1
100
AcDbSpline
210
0.0
220
0.0
230
1.0
 70
    11
 71
     3
 72
    28
 73
    24
 74
     0
 42
0.0000000001
 43
0.0000000001
 12
1.0
 22
0.0
 32
0.0
 13
1.0
 23
0.0
 33
0.0
 40
0.0
 40
0.0
 40
0.0
 40
0.0
 40
0.1428571428571428
 40
0.1428571428571428
 40
0.1428571428571428
 40
0.1428571428571428
 40
0.2857142857142857
 40
0.2857142857142857
 40
0.2857142857142857
 40
0.2857142857142857
 40
0.4285714285714285
 40
0.4285714285714285
 40
0.4285714285714285
 40
0.4285714285714285
 40
0.5714285714285714
 40
0.5714285714285714
 40
0.5714285714285714
 40
0.5714285714285714
 40
0.7142857142857143
 40
0.7142857142857143
 40
0.7142857142857143
 40
0.7142857142857143
 40
1.0
 40
1.0
 40
1.0
 40
1.0
 10
-11.92613
 20
13.33088
 30
0.0
 10
-11.86326
 20
13.27479
 30
0.0
 10
-11.80336
 20
13.24664
 30
0.0
 10
-11.74642
 20
13.24664
 30
0.0
 10
-11.74642
 20
13.24664
 30
0.0
 10
-11.69033
 20
13.24664
 30
0.0
 10
-11.64694
 20
13.27014
 30
0.0
 10
-11.61646
 20
13.31691
 30
0.0
 10
-11.61646
 20
13.31691
 30
0.0
 10
-11.58577
 20
13.36369
 30
0.0
 10
-11.57053
 20
13.42952
 30
0.0
 10
-11.57053
 20
13.51461
 30
0.0
 10
-11.57053
 20
13.51461
 30
0.0
 10
-11.57053
 20
13.67209
 30
0.0
 10
-11.6226
 20
13.75083
 30
0.0
 10
-11.72674
 20
13.75083
 30
0.0
 10
-11.72674
 20
13.75083
 30
0.0
 10
-11.7949
 20
13.75083
 30
0.0
 10
-11.86136
 20
13.714
 30
0.0
 10
-11.92613
 20
13.64013
 30
0.0
 10
-11.92613
 20
13.64013
 30
0.0
 10
-11.92613
 20
13.64013
 30
0.0
 10
-11.92613
 20
13.33088
 30
0.0
 10
-11.92613
 20
13.33088
 30
0.0
  0
SPLINE
  5
43
330
1F
100
AcDbEntity
  8
Layer 1
100
AcDbSpline
210
0.0
220
0.0
230
1.0
 70
    11
 71
     3
 72
    52
 73
    48
 74
     0
 42
0.0000000001
 43
0.0000000001
 12
1.0
 22
0.0
 32
0.0
 13
1.0
 23
0.0
 33
0.0
 40
0.0
 40
0.0
 40
0.0
 40
0.0
 40
0.0769230769230769
 40
0.0769230769230769
 40
0.0769230769230769
 40
0.0769230769230769
 40
0.1538461538461539
 40
0.1538461538461539
 40
0.1538461538461539
 40
0.1538461538461539
 40
0.2307692307692308
 40
0.2307692307692308
 40
0.2307692307692308
 40
0.2307692307692308
 40
0.3076923076923077
 40
0.3076923076923077
 40
0.3076923076923077
 40
0.3076923076923077
 40
0.3846153846153846
 40
0.3846153846153846
 40
0.3846153846153846
 40
0.3846153846153846
 40
0.4615384615384616
 40
0.4615384615384616
 40
0.4615384615384616
 40
0.4615384615384616
 40
0.5384615384615384
 40
0.5384615384615384
 40
0.5384615384615384
 40
0.5384615384615384
 40
0.6153846153846154
 40
0.6153846153846154
 40
0.6153846153846154
 40
0.6153846153846154
 40
0.6923076923076923
 40
0.6923076923076923
 40
0.6923076923076923
 40
0.6923076923076923
 40
0.7692307692307693
 40
0.7692307692307693
 40
0.7692307692307693
 40
0.7692307692307693
 40
0.8461538461538461
 40
0.8461538461538461
 40
0.8461538461538461
 40
0.8461538461538461
 40
1.0
 40
1.0
 40
1.0
 40
1.0
 10
-10.75477
 20
13.19203
 30
0.0
 10
-10.83668
 20
13.16748
 30
0.0
 10
-10.90675
 20
13.1552
 30
0.0
 10
-10.96517
 20
13.1552
 30
0.0
 10
-10.96517
 20
13.1552
 30
0.0
 10
-11.06486
 20
13.1552
 30
0.0
 10
-11.14593
 20
13.18822
 30
0.0
 10
-11.20837
 20
13.25405
 30
0.0
 10
-11.20837
 20
13.25405
 30
0.0
 10
-11.27081
 20
13.31988
 30
0.0
 10
-11.30214
 20
13.40518
 30
0.0
 10
-11.30214
 20
13.51017
 30
0.0
 10
-11.30214
 20
13.51017
 30
0.0
 10
-11.30214
 20
13.61198
 30
0.0
 10
-11.27462
 20
13.69559
 30
0.0
 10
-11.21938
 20
13.76099
 30
0.0
 10
-11.21938
 20
13.76099
 30
0.0
 10
-11.16413
 20
13.82618
 30
0.0
 10
-11.09344
 20
13.85878
 30
0.0
 10
-11.00729
 20
13.85878
 30
0.0
 10
-11.00729
 20
13.85878
 30
0.0
 10
-10.9258
 20
13.85878
 30
0.0
 10
-10.86272
 20
13.82978
 30
0.0
 10
-10.81827
 20
13.77179
 30
0.0
 10
-10.81827
 20
13.77179
 30
0.0
 10
-10.77382
 20
13.71379
 30
0.0
 10
-10.75159
 20
13.63166
 30
0.0
 10
-10.75159
 20
13.52519
 30
0.0
 10
-10.75159
 20
13.52519
 30
0.0
 10
-10.75159
 20
13.52519
 30
0.0
 10
-10.75223
 20
13.48794
 30
0.0
 10
-10.75223
 20
13.48794
 30
0.0
 10
-10.75223
 20
13.48794
 30
0.0
 10
-10.75223
 20
13.48794
 30
0.0
 10
-11.17768
 20
13.48794
 30
0.0
 10
-11.17768
 20
13.48794
 30
0.0
 10
-11.17768
 20
13.48794
 30
0.0
 10
-11.1599
 20
13.32707
 30
0.0
 10
-11.08137
 20
13.24664
 30
0.0
 10
-10.94231
 20
13.24664
 30
0.0
 10
-10.94231
 20
13.24664
 30
0.0
 10
-10.89129
 20
13.24664
 30
0.0
 10
-10.82885
 20
13.26103
 30
0.0
 10
-10.75477
 20
13.28982
 30
0.0
 10
-10.75477
 20
13.28982
 30
0.0
 10
-10.75477
 20
13.28982
 30
0.0
 10
-10.75477
 20
13.19203
 30
0.0
 10
-10.75477
 20
13.19203
 30
0.0
  0
SPLINE
  5
44
330
1F
100
AcDbEntity
  8
Layer 1
100
AcDbSpline
210
0.0
220
0.0
230
1.0
 70
    11
 71
     3
 72
    16
 73
    12
 74
     0
 42
0.0000000001
 43
0.0000000001
 12
1.0
 22
0.0
 32
0.0
 13
1.0
 23
0.0
 33
0.0
 40
0.0
 40
0.0
 40
0.0
 40
0.0
 40
0.25
 40
0.25
 40
0.25
 40
0.25
 40
0.5
 40
0.5
 40
0.5
 40
0.5
 40
1.0
 40
1.0
 40
1.0
 40
1.0
 10
-11.17133
 20
13.57938
 30
0.0
 10
-11.17133
 20
13.57938
 30
0.0
 10
-10.87415
 20
13.57938
 30
0.0
 10
-10.87415
 20
13.57938
 30
0.0
 10
-10.87415
 20
13.57938
 30
0.0
 10
-10.87415
 20
13.70469
 30
0.0
 10
-10.92093
 20
13.76734
 30
0.0
 10
-11.01427
 20
13.76734
 30
0.0
 10
-11.01427
 20
13.76734
 30
0.0
 10
-11.10825
 20
13.76734
 30
0.0
 10
-11.16053
 20
13.70469
 30
0.0
 10
-11.17133
 20
13.57938
 30
0.0
  0
SPLINE
  5
45
330
1F
100
AcDbEntity
  8
Layer 1
100
AcDbSpline
210
0.0
220
0.0
230
1.0
 70
    11
 71
     3
 72
    44
 73
    40
 74
     0
 42
0.0000000001
 43
0.0000000001
 12
1.0
 22
0.0
 32
0.0
 13
1.0
 23
0.0
 33
0.0
 40
0.0
 40
0.0
 40
0.0
 40
0.0
 40
0.0909090909090909
 40
0.0909090909090909
 40
0.0909090909090909
 40
0.0909090909090909
 40
0.1818181818181818
 40
0.1818181818181818
 40
0.1818181818181818
 40
0.1818181818181818
 40
0.2727272727272727
 40
0.2727272727272727
 40
0.2727272727272727
 40
0.2727272727272727
 40
0.3636363636363636
 40
0.3636363636363636
 40
0.3636363636363636
 40
0.3636363636363636
 40
0.4545454545454545
 40
0.4545454545454545
 40
0.4545454545454545
 40
0.4545454545454545
 40
0.5454545454545454
 40
0.5454545454545454
 40
0.5454545454545454
 40
0.5454545454545454
 40
0.6363636363636364
 40
0.6363636363636364
 40
0.6363636363636364
 40
0.6363636363636364
 40
0.7272727272727273
 40
0.7272727272727273
 40
0.7272727272727273
 40
0.7272727272727273
 40
0.8181818181818182
 40
0.8181818181818182
 40
0.8181818181818182
 40
0.8181818181818182
 40
1.0
 40
1.0
 40
1.0
 40
1.0
 10
-10.5412
 20
13.17044
 30
0.0
 10
-10.5412
 20
13.17044
 30
0.0
 10
-10.5412
 20
13.84354
 30
0.0
 10
-10.5412
 20
13.84354
 30
0.0
 10
-10.5412
 20
13.84354
 30
0.0
 10
-10.5412
 20
13.84354
 30
0.0
 10
-10.41928
 20
13.84354
 30
0.0
 10
-10.41928
 20
13.84354
 30
0.0
 10
-10.41928
 20
13.84354
 30
0.0
 10
-10.41928
 20
13.84354
 30
0.0
 10
-10.41928
 20
13.71633
 30
0.0
 10
-10.41928
 20
13.71633
 30
0.0
 10
-10.41928
 20
13.71633
 30
0.0
 10
-10.37081
 20
13.81052
 30
0.0
 10
-10.30053
 20
13.85751
 30
0.0
 10
-10.20825
 20
13.85751
 30
0.0
 10
-10.20825
 20
13.85751
 30
0.0
 10
-10.19576
 20
13.85751
 30
0.0
 10
-10.18264
 20
13.85645
 30
0.0
 10
-10.16909
 20
13.85434
 30
0.0
 10
-10.16909
 20
13.85434
 30
0.0
 10
-10.16909
 20
13.85434
 30
0.0
 10
-10.16909
 20
13.74025
 30
0.0
 10
-10.16909
 20
13.74025
 30
0.0
 10
-10.16909
 20
13.74025
 30
0.0
 10
-10.19026
 20
13.74723
 30
0.0
 10
-10.20888
 20
13.75083
 30
0.0
 10
-10.22497
 20
13.75083
 30
0.0
 10
-10.22497
 20
13.75083
 30
0.0
 10
-10.30244
 20
13.75083
 30
0.0
 10
-10.36721
 20
13.70511
 30
0.0
 10
-10.41928
 20
13.61346
 30
0.0
 10
-10.41928
 20
13.61346
 30
0.0
 10
-10.41928
 20
13.61346
 30
0.0
 10
-10.41928
 20
13.17044
 30
0.0
 10
-10.41928
 20
13.17044
 30
0.0
 10
-10.41928
 20
13.17044
 30
0.0
 10
-10.41928
 20
13.17044
 30
0.0
 10
-10.5412
 20
13.17044
 30
0.0
 10
-10.5412
 20
13.17044
 30
0.0
  0
SPLINE
  5
46
330
1F
100
AcDbEntity
  8
Layer 1
100
AcDbSpline
210
0.0
220
0.0
230
1.0
 70
    11
 71
     3
 72
    92
 73
    88
 74
     0
 42
0.0000000001
 43
0.0000000001
 12
1.0
 22
0.0
 32
0.0
 13
1.0
 23
0.0
 33
0.0
 40
0.0
 40
0.0
 40
0.0
 40
0.0
 40
0.0434782608695652
 40
0.0434782608695652
 40
0.0434782608695652
 40
0.0434782608695652
 40
0.0869565217391304
 40
0.0869565217391304
 40
0.0869565217391304
 40
0.0869565217391304
 40
0.1304347826086956
 40
0.1304347826086956
 40
0.1304347826086956
 40
0.1304347826086956
 40
0.1739130434782609
 40
0.1739130434782609
 40
0.1739130434782609
 40
0.1739130434782609
 40
0.2173913043478261
 40
0.2173913043478261
 40
0.2173913043478261
 40
0.2173913043478261
 40
0.2608695652173913
 40
0.2608695652173913
 40
0.2608695652173913
 40
0.2608695652173913
 40
0.3043478260869565
 40
0.3043478260869565
 40
0.3043478260869565
 40
0.3043478260869565
 40
0.3478260869565217
 40
0.3478260869565217
 40
0.3478260869565217
 40
0.3478260869565217
 40
0.391304347826087
 40
0.391304347826087
 40
0.391304347826087
 40
0.391304347826087
 40
0.4347826086956522
 40
0.4347826086956522
 40
0.4347826086956522
 40
0.4347826086956522
 40
0.4782608695652174
 40
0.4782608695652174
 40
0.4782608695652174
 40
0.4782608695652174
 40
0.5217391304347826
 40
0.5217391304347826
 40
0.5217391304347826
 40
0.5217391304347826
 40
0.5652173913043478
 40
0.5652173913043478
 40
0.5652173913043478
 40
0.5652173913043478
 40
0.6086956521739131
 40
0.6086956521739131
 40
0.6086956521739131
 40
0.6086956521739131
 40
0.6521739130434783
 40
0.6521739130434783
 40
0.6521739130434783
 40
0.6521739130434783
 40
0.6956521739130435
 40
0.6956521739130435
 40
0.6956521739130435
 40
0.6956521739130435
 40
0.7391304347826086
 40
0.7391304347826086
 40
0.7391304347826086
 40
0.7391304347826086
 40
0.782608695652174
 40
0.782608695652174
 40
0.782608695652174
 40
0.782608695652174
 40
0.8260869565217391
 40
0.8260869565217391
 40
0.8260869565217391
 40
0.8260869565217391
 40
0.8695652173913043
 40
0.8695652173913043
 40
0.8695652173913043
 40
0.8695652173913043
 40
0.9130434782608695
 40
0.9130434782608695
 40
0.9130434782608695
 40
0.9130434782608695
 40
1.0
 40
1.0
 40
1.0
 40
1.0
 10
-10.04569
 20
13.19457
 30
0.0
 10
-10.04569
 20
13.19457
 30
0.0
 10
-10.04569
 20
13.30633
 30
0.0
 10
-10.04569
 20
13.30633
 30
0.0
 10
-10.04569
 20
13.30633
 30
0.0
 10
-9.96589
 20
13.26654
 30
0.0
 10
-9.89668
 20
13.24664
 30
0.0
 10
-9.83762
 20
13.24664
 30
0.0
 10
-9.83762
 20
13.24664
 30
0.0
 10
-9.80248
 20
13.24664
 30
0.0
 10
-9.77327
 20
13.25617
 30
0.0
 10
-9.7502
 20
13.27522
 30
0.0
 10
-9.7502
 20
13.27522
 30
0.0
 10
-9.72713
 20
13.29405
 30
0.0
 10
-9.71549
 20
13.31776
 30
0.0
 10
-9.71549
 20
13.34634
 30
0.0
 10
-9.71549
 20
13.34634
 30
0.0
 10
-9.71549
 20
13.38803
 30
0.0
 10
-9.74787
 20
13.42254
 30
0.0
 10
-9.81264
 20
13.44984
 30
0.0
 10
-9.81264
 20
13.44984
 30
0.0
 10
-9.81264
 20
13.44984
 30
0.0
 10
-9.88398
 20
13.48011
 30
0.0
 10
-9.88398
 20
13.48011
 30
0.0
 10
-9.88398
 20
13.48011
 30
0.0
 10
-9.98917
 20
13.52371
 30
0.0
 10
-10.04188
 20
13.58679
 30
0.0
 10
-10.04188
 20
13.6687
 30
0.0
 10
-10.04188
 20
13.6687
 30
0.0
 10
-10.04188
 20
13.72734
 30
0.0
 10
-10.02114
 20
13.77348
 30
0.0
 10
-9.97965
 20
13.80713
 30
0.0
 10
-9.97965
 20
13.80713
 30
0.0
 10
-9.93816
 20
13.84079
 30
0.0
 10
-9.88122
 20
13.85751
 30
0.0
 10
-9.80905
 20
13.85751
 30
0.0
 10
-9.80905
 20
13.85751
 30
0.0
 10
-9.77158
 20
13.85751
 30
0.0
 10
-9.72501
 20
13.85243
 30
0.0
 10
-9.66977
 20
13.84206
 30
0.0
 10
-9.66977
 20
13.84206
 30
0.0
 10
-9.66977
 20
13.84206
 30
0.0
 10
-9.64437
 20
13.83719
 30
0.0
 10
-9.64437
 20
13.83719
 30
0.0
 10
-9.64437
 20
13.83719
 30
0.0
 10
-9.64437
 20
13.83719
 30
0.0
 10
-9.64437
 20
13.73559
 30
0.0
 10
-9.64437
 20
13.73559
 30
0.0
 10
-9.64437
 20
13.73559
 30
0.0
 10
-9.71231
 20
13.75591
 30
0.0
 10
-9.7665
 20
13.76607
 30
0.0
 10
-9.80693
 20
13.76607
 30
0.0
 10
-9.80693
 20
13.76607
 30
0.0
 10
-9.84249
 20
13.76607
 30
0.0
 10
-9.87064
 20
13.75824
 30
0.0
 10
-9.89202
 20
13.74279
 30
0.0
 10
-9.89202
 20
13.74279
 30
0.0
 10
-9.91319
 20
13.72734
 30
0.0
 10
-9.92377
 20
13.70659
 30
0.0
 10
-9.92377
 20
13.68056
 30
0.0
 10
-9.92377
 20
13.68056
 30
0.0
 10
-9.92377
 20
13.64394
 30
0.0
 10
-9.89414
 20
13.61282
 30
0.0
 10
-9.83466
 20
13.58764
 30
0.0
 10
-9.83466
 20
13.58764
 30
0.0
 10
-9.83466
 20
13.58764
 30
0.0
 10
-9.77603
 20
13.56287
 30
0.0
 10
-9.77603
 20
13.56287
 30
0.0
 10
-9.77603
 20
13.56287
 30
0.0
 10
-9.70956
 20
13.53493
 30
0.0
 10
-9.66257
 20
13.5053
 30
0.0
 10
-9.63506
 20
13.47418
 30
0.0
 10
-9.63506
 20
13.47418
 30
0.0
 10
-9.60733
 20
13.44307
 30
0.0
 10
-9.59357
 20
13.40412
 30
0.0
 10
-9.59357
 20
13.35755
 30
0.0
 10
-9.59357
 20
13.35755
 30
0.0
 10
-9.59357
 20
13.2985
 30
0.0
 10
-9.61685
 20
13.25003
 30
0.0
 10
-9.66363
 20
13.21214
 30
0.0
 10
-9.66363
 20
13.21214
 30
0.0
 10
-9.7102
 20
13.17425
 30
0.0
 10
-9.76989
 20
13.1552
 30
0.0
 10
-9.84249
 20
13.1552
 30
0.0
 10
-9.84249
 20
13.1552
 30
0.0
 10
-9.89837
 20
13.1552
 30
0.0
 10
-9.96589
 20
13.16832
 30
0.0
 10
-10.04569
 20
13.19457
 30
0.0
  0
SPLINE
  5
47
330
1F
100
AcDbEntity
  8
Layer 1
100
AcDbSpline
210
0.0
220
0.0
230
1.0
 70
    11
 71
     3
 72
    36
 73
    32
 74
     0
 42
0.0000000001
 43
0.0000000001
 12
1.0
 22
0.0
 32
0.0
 13
1.0
 23
0.0
 33
0.0
 40
0.0
 40
0.0
 40
0.0
 40
0.0
 40
0.1111111111111111
 40
0.1111111111111111
 40
0.1111111111111111
 40
0.1111111111111111
 40
0.2222222222222222
 40
0.2222222222222222
 40
0.2222222222222222
 40
0.2222222222222222
 40
0.3333333333333333
 40
0.3333333333333333
 40
0.3333333333333333
 40
0.3333333333333333
 40
0.4444444444444444
 40
0.4444444444444444
 40
0.4444444444444444
 40
0.4444444444444444
 40
0.5555555555555556
 40
0.5555555555555556
 40
0.5555555555555556
 40
0.5555555555555556
 40
0.6666666666666666
 40
0.6666666666666666
 40
0.6666666666666666
 40
0.6666666666666666
 40
0.7777777777777778
 40
0.7777777777777778
 40
0.7777777777777778
 40
0.7777777777777778
 40
1.0
 40
1.0
 40
1.0
 40
1.0
 10
-9.1061
 20
13.1552
 30
0.0
 10
-9.20495
 20
13.1552
 30
0.0
 10
-9.28326
 20
13.18674
 30
0.0
 10
-9.34084
 20
13.24982
 30
0.0
 10
-9.34084
 20
13.24982
 30
0.0
 10
-9.39862
 20
13.31289
 30
0.0
 10
-9.42741
 20
13.39862
 30
0.0
 10
-9.42741
 20
13.50678
 30
0.0
 10
-9.42741
 20
13.50678
 30
0.0
 10
-9.42741
 20
13.61473
 30
0.0
 10
-9.39862
 20
13.70024
 30
0.0
 10
-9.34084
 20
13.76311
 30
0.0
 10
-9.34084
 20
13.76311
 30
0.0
 10
-9.28326
 20
13.82597
 30
0.0
 10
-9.20495
 20
13.85751
 30
0.0
 10
-9.1061
 20
13.85751
 30
0.0
 10
-9.1061
 20
13.85751
 30
0.0
 10
-9.00725
 20
13.85751
 30
0.0
 10
-8.92893
 20
13.82597
 30
0.0
 10
-8.87136
 20
13.76311
 30
0.0
 10
-8.87136
 20
13.76311
 30
0.0
 10
-8.81358
 20
13.70024
 30
0.0
 10
-8.78479
 20
13.61473
 30
0.0
 10
-8.78479
 20
13.50678
 30
0.0
 10
-8.78479
 20
13.50678
 30
0.0
 10
-8.78479
 20
13.39862
 30
0.0
 10
-8.81358
 20
13.31289
 30
0.0
 10
-8.87136
 20
13.24982
 30
0.0
 10
-8.87136
 20
13.24982
 30
0.0
 10
-8.92893
 20
13.18674
 30
0.0
 10
-9.00725
 20
13.1552
 30
0.0
 10
-9.1061
 20
13.1552
 30
0.0
  0
SPLINE
  5
48
330
1F
100
AcDbEntity
  8
Layer 1
100
AcDbSpline
210
0.0
220
0.0
230
1.0
 70
    11
 71
     3
 72
    36
 73
    32
 74
     0
 42
0.0000000001
 43
0.0000000001
 12
1.0
 22
0.0
 32
0.0
 13
1.0
 23
0.0
 33
0.0
 40
0.0
 40
0.0
 40
0.0
 40
0.0
 40
0.1111111111111111
 40
0.1111111111111111
 40
0.1111111111111111
 40
0.1111111111111111
 40
0.2222222222222222
 40
0.2222222222222222
 40
0.2222222222222222
 40
0.2222222222222222
 40
0.3333333333333333
 40
0.3333333333333333
 40
0.3333333333333333
 40
0.3333333333333333
 40
0.4444444444444444
 40
0.4444444444444444
 40
0.4444444444444444
 40
0.4444444444444444
 40
0.5555555555555556
 40
0.5555555555555556
 40
0.5555555555555556
 40
0.5555555555555556
 40
0.6666666666666666
 40
0.6666666666666666
 40
0.6666666666666666
 40
0.6666666666666666
 40
0.7777777777777778
 40
0.7777777777777778
 40
0.7777777777777778
 40
0.7777777777777778
 40
1.0
 40
1.0
 40
1.0
 40
1.0
 10
-9.10631
 20
13.24664
 30
0.0
 10
-9.04599
 20
13.24664
 30
0.0
 10
-8.999
 20
13.26929
 30
0.0
 10
-8.96555
 20
13.3148
 30
0.0
 10
-8.96555
 20
13.3148
 30
0.0
 10
-8.93232
 20
13.36009
 30
0.0
 10
-8.9156
 20
13.42423
 30
0.0
 10
-8.9156
 20
13.50678
 30
0.0
 10
-8.9156
 20
13.50678
 30
0.0
 10
-8.9156
 20
13.58912
 30
0.0
 10
-8.93232
 20
13.65304
 30
0.0
 10
-8.96555
 20
13.69834
 30
0.0
 10
-8.96555
 20
13.69834
 30
0.0
 10
-8.999
 20
13.74342
 30
0.0
 10
-9.04599
 20
13.76607
 30
0.0
 10
-9.10631
 20
13.76607
 30
0.0
 10
-9.10631
 20
13.76607
 30
0.0
 10
-9.16685
 20
13.76607
 30
0.0
 10
-9.21384
 20
13.74342
 30
0.0
 10
-9.24686
 20
13.69834
 30
0.0
 10
-9.24686
 20
13.69834
 30
0.0
 10
-9.28009
 20
13.65304
 30
0.0
 10
-9.2966
 20
13.58912
 30
0.0
 10
-9.2966
 20
13.50678
 30
0.0
 10
-9.2966
 20
13.50678
 30
0.0
 10
-9.2966
 20
13.42423
 30
0.0
 10
-9.28009
 20
13.36009
 30
0.0
 10
-9.24686
 20
13.3148
 30
0.0
 10
-9.24686
 20
13.3148
 30
0.0
 10
-9.21384
 20
13.26929
 30
0.0
 10
-9.16685
 20
13.24664
 30
0.0
 10
-9.10631
 20
13.24664
 30
0.0
  0
SPLINE
  5
49
330
1F
100
AcDbEntity
  8
Layer 1
100
AcDbSpline
210
0.0
220
0.0
230
1.0
 70
    11
 71
     3
 72
    60
 73
    56
 74
     0
 42
0.0000000001
 43
0.0000000001
 12
1.0
 22
0.0
 32
0.0
 13
1.0
 23
0.0
 33
0.0
 40
0.0
 40
0.0
 40
0.0
 40
0.0
 40
0.0666666666666667
 40
0.0666666666666667
 40
0.0666666666666667
 40
0.0666666666666667
 40
0.1333333333333333
 40
0.1333333333333333
 40
0.1333333333333333
 40
0.1333333333333333
 40
0.2
 40
0.2
 40
0.2
 40
0.2
 40
0.2666666666666667
 40
0.2666666666666667
 40
0.2666666666666667
 40
0.2666666666666667
 40
0.3333333333333333
 40
0.3333333333333333
 40
0.3333333333333333
 40
0.3333333333333333
 40
0.4
 40
0.4
 40
0.4
 40
0.4
 40
0.4666666666666667
 40
0.4666666666666667
 40
0.4666666666666667
 40
0.4666666666666667
 40
0.5333333333333333
 40
0.5333333333333333
 40
0.5333333333333333
 40
0.5333333333333333
 40
0.6
 40
0.6
 40
0.6
 40
0.6
 40
0.6666666666666666
 40
0.6666666666666666
 40
0.6666666666666666
 40
0.6666666666666666
 40
0.7333333333333333
 40
0.7333333333333333
 40
0.7333333333333333
 40
0.7333333333333333
 40
0.8
 40
0.8
 40
0.8
 40
0.8
 40
0.8666666666666667
 40
0.8666666666666667
 40
0.8666666666666667
 40
0.8666666666666667
 40
1.0
 40
1.0
 40
1.0
 40
1.0
 10
-8.59387
 20
13.17044
 30
0.0
 10
-8.59387
 20
13.17044
 30
0.0
 10
-8.59387
 20
13.84354
 30
0.0
 10
-8.59387
 20
13.84354
 30
0.0
 10
-8.59387
 20
13.84354
 30
0.0
 10
-8.59387
 20
13.84354
 30
0.0
 10
-8.47195
 20
13.84354
 30
0.0
 10
-8.47195
 20
13.84354
 30
0.0
 10
-8.47195
 20
13.84354
 30
0.0
 10
-8.47195
 20
13.84354
 30
0.0
 10
-8.47195
 20
13.71633
 30
0.0
 10
-8.47195
 20
13.71633
 30
0.0
 10
-8.47195
 20
13.71633
 30
0.0
 10
-8.40739
 20
13.81052
 30
0.0
 10
-8.32823
 20
13.85751
 30
0.0
 10
-8.23467
 20
13.85751
 30
0.0
 10
-8.23467
 20
13.85751
 30
0.0
 10
-8.17583
 20
13.85751
 30
0.0
 10
-8.12905
 20
13.8391
 30
0.0
 10
-8.09455
 20
13.80205
 30
0.0
 10
-8.09455
 20
13.80205
 30
0.0
 10
-8.06005
 20
13.76522
 30
0.0
 10
-8.04269
 20
13.71548
 30
0.0
 10
-8.04269
 20
13.65325
 30
0.0
 10
-8.04269
 20
13.65325
 30
0.0
 10
-8.04269
 20
13.65325
 30
0.0
 10
-8.04269
 20
13.17044
 30
0.0
 10
-8.04269
 20
13.17044
 30
0.0
 10
-8.04269
 20
13.17044
 30
0.0
 10
-8.04269
 20
13.17044
 30
0.0
 10
-8.16461
 20
13.17044
 30
0.0
 10
-8.16461
 20
13.17044
 30
0.0
 10
-8.16461
 20
13.17044
 30
0.0
 10
-8.16461
 20
13.17044
 30
0.0
 10
-8.16461
 20
13.61346
 30
0.0
 10
-8.16461
 20
13.61346
 30
0.0
 10
-8.16461
 20
13.61346
 30
0.0
 10
-8.16461
 20
13.66341
 30
0.0
 10
-8.17202
 20
13.69897
 30
0.0
 10
-8.18662
 20
13.72014
 30
0.0
 10
-8.18662
 20
13.72014
 30
0.0
 10
-8.20144
 20
13.74152
 30
0.0
 10
-8.22578
 20
13.7521
 30
0.0
 10
-8.25986
 20
13.7521
 30
0.0
 10
-8.25986
 20
13.7521
 30
0.0
 10
-8.33479
 20
13.7521
 30
0.0
 10
-8.40549
 20
13.70321
 30
0.0
 10
-8.47195
 20
13.60542
 30
0.0
 10
-8.47195
 20
13.60542
 30
0.0
 10
-8.47195
 20
13.60542
 30
0.0
 10
-8.47195
 20
13.17044
 30
0.0
 10
-8.47195
 20
13.17044
 30
0.0
 10
-8.47195
 20
13.17044
 30
0.0
 10
-8.47195
 20
13.17044
 30
0.0
 10
-8.59387
 20
13.17044
 30
0.0
 10
-8.59387
 20
13.17044
 30
0.0
  0
SPLINE
  5
4A
330
1F
100
AcDbEntity
  8
Layer 1
100
AcDbSpline
210
0.0
220
0.0
230
1.0
 70
    11
 71
     3
 72
    80
 73
    76
 74
     0
 42
0.0000000001
 43
0.0000000001
 12
1.0
 22
0.0
 32
0.0
 13
1.0
 23
0.0
 33
0.0
 40
0.0
 40
0.0
 40
0.0
 40
0.0
 40
0.05
 40
0.05
 40
0.05
 40
0.05
 40
0.1
 40
0.1
 40
0.1
 40
0.1
 40
0.15
 40
0.15
 40
0.15
 40
0.15
 40
0.2
 40
0.2
 40
0.2
 40
0.2
 40
0.25
 40
0.25
 40
0.25
 40
0.25
 40
0.3
 40
0.3
 40
0.3
 40
0.3
 40
0.35
 40
0.35
 40
0.35
 40
0.35
 40
0.4
 40
0.4
 40
0.4
 40
0.4
 40
0.45
 40
0.45
 40
0.45
 40
0.45
 40
0.5
 40
0.5
 40
0.5
 40
0.5
 40
0.55
 40
0.55
 40
0.55
 40
0.55
 40
0.6
 40
0.6
 40
0.6
 40
0.6
 40
0.65
 40
0.65
 40
0.65
 40
0.65
 40
0.7
 40
0.7
 40
0.7
 40
0.7
 40
0.75
 40
0.75
 40
0.75
 40
0.75
 40
0.8
 40
0.8
 40
0.8
 40
0.8
 40
0.85
 40
0.85
 40
0.85
 40
0.85
 40
0.9
 40
0.9
 40
0.9
 40
0.9
 40
1.0
 40
1.0
 40
1.0
 40
1.0
 10
-7.4587
 20
13.25617
 30
0.0
 10
-7.53193
 20
13.18886
 30
0.0
 10
-7.60242
 20
13.1552
 30
0.0
 10
-7.67015
 20
13.1552
 30
0.0
 10
-7.67015
 20
13.1552
 30
0.0
 10
-7.72582
 20
13.1552
 30
0.0
 10
-7.77218
 20
13.17256
 30
0.0
 10
-7.80879
 20
13.20748
 30
0.0
 10
-7.80879
 20
13.20748
 30
0.0
 10
-7.84562
 20
13.24241
 30
0.0
 10
-7.86404
 20
13.28643
 30
0.0
 10
-7.86404
 20
13.33956
 30
0.0
 10
-7.86404
 20
13.33956
 30
0.0
 10
-7.86404
 20
13.41301
 30
0.0
 10
-7.83314
 20
13.46953
 30
0.0
 10
-7.77133
 20
13.5089
 30
0.0
 10
-7.77133
 20
13.5089
 30
0.0
 10
-7.70952
 20
13.54827
 30
0.0
 10
-7.62083
 20
13.56795
 30
0.0
 10
-7.50526
 20
13.56795
 30
0.0
 10
-7.50526
 20
13.56795
 30
0.0
 10
-7.50526
 20
13.56795
 30
0.0
 10
-7.47669
 20
13.56795
 30
0.0
 10
-7.47669
 20
13.56795
 30
0.0
 10
-7.47669
 20
13.56795
 30
0.0
 10
-7.47669
 20
13.56795
 30
0.0
 10
-7.47669
 20
13.64902
 30
0.0
 10
-7.47669
 20
13.64902
 30
0.0
 10
-7.47669
 20
13.64902
 30
0.0
 10
-7.47669
 20
13.72712
 30
0.0
 10
-7.51733
 20
13.76607
 30
0.0
 10
-7.59882
 20
13.76607
 30
0.0
 10
-7.59882
 20
13.76607
 30
0.0
 10
-7.6619
 20
13.76607
 30
0.0
 10
-7.7309
 20
13.74617
 30
0.0
 10
-7.80562
 20
13.70638
 30
0.0
 10
-7.80562
 20
13.70638
 30
0.0
 10
-7.80562
 20
13.70638
 30
0.0
 10
-7.80562
 20
13.80671
 30
0.0
 10
-7.80562
 20
13.80671
 30
0.0
 10
-7.80562
 20
13.80671
 30
0.0
 10
-7.72349
 20
13.84058
 30
0.0
 10
-7.64602
 20
13.85751
 30
0.0
 10
-7.57342
 20
13.85751
 30
0.0
 10
-7.57342
 20
13.85751
 30
0.0
 10
-7.4987
 20
13.85751
 30
0.0
 10
-7.44346
 20
13.84058
 30
0.0
 10
-7.40811
 20
13.8065
 30
0.0
 10
-7.40811
 20
13.8065
 30
0.0
 10
-7.37255
 20
13.77242
 30
0.0
 10
-7.35477
 20
13.71993
 30
0.0
 10
-7.35477
 20
13.64902
 30
0.0
 10
-7.35477
 20
13.64902
 30
0.0
 10
-7.35477
 20
13.64902
 30
0.0
 10
-7.35477
 20
13.34485
 30
0.0
 10
-7.35477
 20
13.34485
 30
0.0
 10
-7.35477
 20
13.34485
 30
0.0
 10
-7.35477
 20
13.27522
 30
0.0
 10
-7.33339
 20
13.24029
 30
0.0
 10
-7.29042
 20
13.24029
 30
0.0
 10
-7.29042
 20
13.24029
 30
0.0
 10
-7.28513
 20
13.24029
 30
0.0
 10
-7.2773
 20
13.24114
 30
0.0
 10
-7.26693
 20
13.24283
 30
0.0
 10
-7.26693
 20
13.24283
 30
0.0
 10
-7.26693
 20
13.24283
 30
0.0
 10
-7.25825
 20
13.1751
 30
0.0
 10
-7.25825
 20
13.1751
 30
0.0
 10
-7.25825
 20
13.1751
 30
0.0
 10
-7.28598
 20
13.16176
 30
0.0
 10
-7.31646
 20
13.1552
 30
0.0
 10
-7.3499
 20
13.1552
 30
0.0
 10
-7.3499
 20
13.1552
 30
0.0
 10
-7.40684
 20
13.1552
 30
0.0
 10
-7.44303
 20
13.18886
 30
0.0
 10
-7.4587
 20
13.25617
 30
0.0
  0
SPLINE
  5
4B
330
1F
100
AcDbEntity
  8
Layer 1
100
AcDbSpline
210
0.0
220
0.0
230
1.0
 70
    11
 71
     3
 72
    32
 73
    28
 74
     0
 42
0.0000000001
 43
0.0000000001
 12
1.0
 22
0.0
 32
0.0
 13
1.0
 23
0.0
 33
0.0
 40
0.0
 40
0.0
 40
0.0
 40
0.0
 40
0.125
 40
0.125
 40
0.125
 40
0.125
 40
0.25
 40
0.25
 40
0.25
 40
0.25
 40
0.375
 40
0.375
 40
0.375
 40
0.375
 40
0.5
 40
0.5
 40
0.5
 40
0.5
 40
0.625
 40
0.625
 40
0.625
 40
0.625
 40
0.75
 40
0.75
 40
0.75
 40
0.75
 40
1.0
 40
1.0
 40
1.0
 40
1.0
 10
-7.47669
 20
13.32263
 30
0.0
 10
-7.47669
 20
13.32263
 30
0.0
 10
-7.47669
 20
13.49556
 30
0.0
 10
-7.47669
 20
13.49556
 30
0.0
 10
-7.47669
 20
13.49556
 30
0.0
 10
-7.47669
 20
13.49556
 30
0.0
 10
-7.51585
 20
13.49683
 30
0.0
 10
-7.51585
 20
13.49683
 30
0.0
 10
-7.51585
 20
13.49683
 30
0.0
 10
-7.58358
 20
13.49683
 30
0.0
 10
-7.63819
 20
13.48434
 30
0.0
 10
-7.67989
 20
13.45937
 30
0.0
 10
-7.67989
 20
13.45937
 30
0.0
 10
-7.72138
 20
13.43418
 30
0.0
 10
-7.74212
 20
13.40095
 30
0.0
 10
-7.74212
 20
13.35946
 30
0.0
 10
-7.74212
 20
13.35946
 30
0.0
 10
-7.74212
 20
13.33046
 30
0.0
 10
-7.73175
 20
13.30591
 30
0.0
 10
-7.71122
 20
13.2858
 30
0.0
 10
-7.71122
 20
13.2858
 30
0.0
 10
-7.69047
 20
13.26569
 30
0.0
 10
-7.66528
 20
13.25553
 30
0.0
 10
-7.63544
 20
13.25553
 30
0.0
 10
-7.63544
 20
13.25553
 30
0.0
 10
-7.58464
 20
13.25553
 30
0.0
 10
-7.53172
 20
13.27797
 30
0.0
 10
-7.47669
 20
13.32263
 30
0.0
  0
SPLINE
  5
4C
330
1F
100
AcDbEntity
  8
Layer 1
100
AcDbSpline
210
0.0
220
0.0
230
1.0
 70
    11
 71
     3
 72
    20
 73
    16
 74
     0
 42
0.0000000001
 43
0.0000000001
 12
1.0
 22
0.0
 32
0.0
 13
1.0
 23
0.0
 33
0.0
 40
0.0
 40
0.0
 40
0.0
 40
0.0
 40
0.2
 40
0.2
 40
0.2
 40
0.2
 40
0.4
 40
0.4
 40
0.4
 40
0.4
 40
0.6
 40
0.6
 40
0.6
 40
0.6
 40
1.0
 40
1.0
 40
1.0
 40
1.0
 10
-7.10437
 20
13.17044
 30
0.0
 10
-7.10437
 20
13.17044
 30
0.0
 10
-7.10437
 20
14.14961
 30
0.0
 10
-7.10437
 20
14.14961
 30
0.0
 10
-7.10437
 20
14.14961
 30
0.0
 10
-7.10437
 20
14.14961
 30
0.0
 10
-6.98245
 20
14.14961
 30
0.0
 10
-6.98245
 20
14.14961
 30
0.0
 10
-6.98245
 20
14.14961
 30
0.0
 10
-6.98245
 20
14.14961
 30
0.0
 10
-6.98245
 20
13.17044
 30
0.0
 10
-6.98245
 20
13.17044
 30
0.0
 10
-6.98245
 20
13.17044
 30
0.0
 10
-6.98245
 20
13.17044
 30
0.0
 10
-7.10437
 20
13.17044
 30
0.0
 10
-7.10437
 20
13.17044
 30
0.0
  0
SPLINE
  5
4D
330
1F
100
AcDbEntity
  8
Layer 1
100
AcDbSpline
210
0.0
220
0.0
230
1.0
 70
    11
 71
     3
 72
    20
 73
    16
 74
     0
 42
0.0000000001
 43
0.0000000001
 12
1.0
 22
0.0
 32
0.0
 13
1.0
 23
0.0
 33
0.0
 40
0.0
 40
0.0
 40
0.0
 40
0.0
 40
0.2
 40
0.2
 40
0.2
 40
0.2
 40
0.4
 40
0.4
 40
0.4
 40
0.4
 40
0.6
 40
0.6
 40
0.6
 40
0.6
 40
1.0
 40
1.0
 40
1.0
 40
1.0
 10
-6.80592
 20
13.079
 30
0.0
 10
-6.80592
 20
13.079
 30
0.0
 10
-6.80592
 20
13.17044
 30
0.0
 10
-6.80592
 20
13.17044
 30
0.0
 10
-6.80592
 20
13.17044
 30
0.0
 10
-6.80592
 20
13.17044
 30
0.0
 10
-6.2776
 20
13.17044
 30
0.0
 10
-6.2776
 20
13.17044
 30
0.0
 10
-6.2776
 20
13.17044
 30
0.0
 10
-6.2776
 20
13.17044
 30
0.0
 10
-6.2776
 20
13.079
 30
0.0
 10
-6.2776
 20
13.079
 30
0.0
 10
-6.2776
 20
13.079
 30
0.0
 10
-6.2776
 20
13.079
 30
0.0
 10
-6.80592
 20
13.079
 30
0.0
 10
-6.80592
 20
13.079
 30
0.0
  0
SPLINE
  5
4E
330
1F
100
AcDbEntity
  8
Layer 1
100
AcDbSpline
210
0.0
220
0.0
230
1.0
 70
    11
 71
     3
 72
    48
 73
    44
 74
     0
 42
0.0000000001
 43
0.0000000001
 12
1.0
 22
0.0
 32
0.0
 13
1.0
 23
0.0
 33
0.0
 40
0.0
 40
0.0
 40
0.0
 40
0.0
 40
0.0833333333333333
 40
0.0833333333333333
 40
0.0833333333333333
 40
0.0833333333333333
 40
0.1666666666666667
 40
0.1666666666666667
 40
0.1666666666666667
 40
0.1666666666666667
 40
0.25
 40
0.25
 40
0.25
 40
0.25
 40
0.3333333333333333
 40
0.3333333333333333
 40
0.3333333333333333
 40
0.3333333333333333
 40
0.4166666666666667
 40
0.4166666666666667
 40
0.4166666666666667
 40
0.4166666666666667
 40
0.5
 40
0.5
 40
0.5
 40
0.5
 40
0.5833333333333334
 40
0.5833333333333334
 40
0.5833333333333334
 40
0.5833333333333334
 40
0.6666666666666666
 40
0.6666666666666666
 40
0.6666666666666666
 40
0.6666666666666666
 40
0.75
 40
0.75
 40
0.75
 40
0.75
 40
0.8333333333333334
 40
0.8333333333333334
 40
0.8333333333333334
 40
0.8333333333333334
 40
1.0
 40
1.0
 40
1.0
 40
1.0
 10
-5.66927
 20
13.17044
 30
0.0
 10
-5.66927
 20
13.17044
 30
0.0
 10
-5.66927
 20
13.29681
 30
0.0
 10
-5.66927
 20
13.29681
 30
0.0
 10
-5.66927
 20
13.29681
 30
0.0
 10
-5.71901
 20
13.2024
 30
0.0
 10
-5.79394
 20
13.1552
 30
0.0
 10
-5.89406
 20
13.1552
 30
0.0
 10
-5.89406
 20
13.1552
 30
0.0
 10
-5.97534
 20
13.1552
 30
0.0
 10
-6.03926
 20
13.18462
 30
0.0
 10
-6.08583
 20
13.24368
 30
0.0
 10
-6.08583
 20
13.24368
 30
0.0
 10
-6.1324
 20
13.30273
 30
0.0
 10
-6.15568
 20
13.38338
 30
0.0
 10
-6.15568
 20
13.48561
 30
0.0
 10
-6.15568
 20
13.48561
 30
0.0
 10
-6.15568
 20
13.59737
 30
0.0
 10
-6.12922
 20
13.68733
 30
0.0
 10
-6.07652
 20
13.75549
 30
0.0
 10
-6.07652
 20
13.75549
 30
0.0
 10
-6.0236
 20
13.82343
 30
0.0
 10
-5.95417
 20
13.85751
 30
0.0
 10
-5.86802
 20
13.85751
 30
0.0
 10
-5.86802
 20
13.85751
 30
0.0
 10
-5.78823
 20
13.85751
 30
0.0
 10
-5.72176
 20
13.82703
 30
0.0
 10
-5.66927
 20
13.76586
 30
0.0
 10
-5.66927
 20
13.76586
 30
0.0
 10
-5.66927
 20
13.76586
 30
0.0
 10
-5.66927
 20
14.14961
 30
0.0
 10
-5.66927
 20
14.14961
 30
0.0
 10
-5.66927
 20
14.14961
 30
0.0
 10
-5.66927
 20
14.14961
 30
0.0
 10
-5.54735
 20
14.14961
 30
0.0
 10
-5.54735
 20
14.14961
 30
0.0
 10
-5.54735
 20
14.14961
 30
0.0
 10
-5.54735
 20
14.14961
 30
0.0
 10
-5.54735
 20
13.17044
 30
0.0
 10
-5.54735
 20
13.17044
 30
0.0
 10
-5.54735
 20
13.17044
 30
0.0
 10
-5.54735
 20
13.17044
 30
0.0
 10
-5.66927
 20
13.17044
 30
0.0
 10
-5.66927
 20
13.17044
 30
0.0
  0
SPLINE
  5
4F
330
1F
100
AcDbEntity
  8
Layer 1
100
AcDbSpline
210
0.0
220
0.0
230
1.0
 70
    11
 71
     3
 72
    28
 73
    24
 74
     0
 42
0.0000000001
 43
0.0000000001
 12
1.0
 22
0.0
 32
0.0
 13
1.0
 23
0.0
 33
0.0
 40
0.0
 40
0.0
 40
0.0
 40
0.0
 40
0.1428571428571428
 40
0.1428571428571428
 40
0.1428571428571428
 40
0.1428571428571428
 40
0.2857142857142857
 40
0.2857142857142857
 40
0.2857142857142857
 40
0.2857142857142857
 40
0.4285714285714285
 40
0.4285714285714285
 40
0.4285714285714285
 40
0.4285714285714285
 40
0.5714285714285714
 40
0.5714285714285714
 40
0.5714285714285714
 40
0.5714285714285714
 40
0.7142857142857143
 40
0.7142857142857143
 40
0.7142857142857143
 40
0.7142857142857143
 40
1.0
 40
1.0
 40
1.0
 40
1.0
 10
-5.66927
 20
13.68246
 30
0.0
 10
-5.73256
 20
13.73813
 30
0.0
 10
-5.79246
 20
13.76607
 30
0.0
 10
-5.84919
 20
13.76607
 30
0.0
 10
-5.84919
 20
13.76607
 30
0.0
 10
-5.90507
 20
13.76607
 30
0.0
 10
-5.94825
 20
13.74279
 30
0.0
 10
-5.97894
 20
13.69601
 30
0.0
 10
-5.97894
 20
13.69601
 30
0.0
 10
-6.00963
 20
13.64944
 30
0.0
 10
-6.02487
 20
13.5834
 30
0.0
 10
-6.02487
 20
13.49789
 30
0.0
 10
-6.02487
 20
13.49789
 30
0.0
 10
-6.02487
 20
13.34062
 30
0.0
 10
-5.9728
 20
13.26188
 30
0.0
 10
-5.86845
 20
13.26188
 30
0.0
 10
-5.86845
 20
13.26188
 30
0.0
 10
-5.80071
 20
13.26188
 30
0.0
 10
-5.73425
 20
13.29892
 30
0.0
 10
-5.66927
 20
13.37279
 30
0.0
 10
-5.66927
 20
13.37279
 30
0.0
 10
-5.66927
 20
13.37279
 30
0.0
 10
-5.66927
 20
13.68246
 30
0.0
 10
-5.66927
 20
13.68246
 30
0.0
  0
SPLINE
  5
50
330
1F
100
AcDbEntity
  8
Layer 1
100
AcDbSpline
210
0.0
220
0.0
230
1.0
 70
    11
 71
     3
 72
    52
 73
    48
 74
     0
 42
0.0000000001
 43
0.0000000001
 12
1.0
 22
0.0
 32
0.0
 13
1.0
 23
0.0
 33
0.0
 40
0.0
 40
0.0
 40
0.0
 40
0.0
 40
0.0769230769230769
 40
0.0769230769230769
 40
0.0769230769230769
 40
0.0769230769230769
 40
0.1538461538461539
 40
0.1538461538461539
 40
0.1538461538461539
 40
0.1538461538461539
 40
0.2307692307692308
 40
0.2307692307692308
 40
0.2307692307692308
 40
0.2307692307692308
 40
0.3076923076923077
 40
0.3076923076923077
 40
0.3076923076923077
 40
0.3076923076923077
 40
0.3846153846153846
 40
0.3846153846153846
 40
0.3846153846153846
 40
0.3846153846153846
 40
0.4615384615384616
 40
0.4615384615384616
 40
0.4615384615384616
 40
0.4615384615384616
 40
0.5384615384615384
 40
0.5384615384615384
 40
0.5384615384615384
 40
0.5384615384615384
 40
0.6153846153846154
 40
0.6153846153846154
 40
0.6153846153846154
 40
0.6153846153846154
 40
0.6923076923076923
 40
0.6923076923076923
 40
0.6923076923076923
 40
0.6923076923076923
 40
0.7692307692307693
 40
0.7692307692307693
 40
0.7692307692307693
 40
0.7692307692307693
 40
0.8461538461538461
 40
0.8461538461538461
 40
0.8461538461538461
 40
0.8461538461538461
 40
1.0
 40
1.0
 40
1.0
 40
1.0
 10
-4.80906
 20
13.19203
 30
0.0
 10
-4.89097
 20
13.16748
 30
0.0
 10
-4.96104
 20
13.1552
 30
0.0
 10
-5.01946
 20
13.1552
 30
0.0
 10
-5.01946
 20
13.1552
 30
0.0
 10
-5.11915
 20
13.1552
 30
0.0
 10
-5.20022
 20
13.18822
 30
0.0
 10
-5.26266
 20
13.25405
 30
0.0
 10
-5.26266
 20
13.25405
 30
0.0
 10
-5.3251
 20
13.31988
 30
0.0
 10
-5.35643
 20
13.40518
 30
0.0
 10
-5.35643
 20
13.51017
 30
0.0
 10
-5.35643
 20
13.51017
 30
0.0
 10
-5.35643
 20
13.61198
 30
0.0
 10
-5.32891
 20
13.69559
 30
0.0
 10
-5.27367
 20
13.76099
 30
0.0
 10
-5.27367
 20
13.76099
 30
0.0
 10
-5.21842
 20
13.82618
 30
0.0
 10
-5.14773
 20
13.85878
 30
0.0
 10
-5.06158
 20
13.85878
 30
0.0
 10
-5.06158
 20
13.85878
 30
0.0
 10
-4.98009
 20
13.85878
 30
0.0
 10
-4.91701
 20
13.82978
 30
0.0
 10
-4.87256
 20
13.77179
 30
0.0
 10
-4.87256
 20
13.77179
 30
0.0
 10
-4.82811
 20
13.71379
 30
0.0
 10
-4.80588
 20
13.63166
 30
0.0
 10
-4.80588
 20
13.52519
 30
0.0
 10
-4.80588
 20
13.52519
 30
0.0
 10
-4.80588
 20
13.52519
 30
0.0
 10
-4.80652
 20
13.48794
 30
0.0
 10
-4.80652
 20
13.48794
 30
0.0
 10
-4.80652
 20
13.48794
 30
0.0
 10
-4.80652
 20
13.48794
 30
0.0
 10
-5.23197
 20
13.48794
 30
0.0
 10
-5.23197
 20
13.48794
 30
0.0
 10
-5.23197
 20
13.48794
 30
0.0
 10
-5.21419
 20
13.32707
 30
0.0
 10
-5.13566
 20
13.24664
 30
0.0
 10
-4.9966
 20
13.24664
 30
0.0
 10
-4.9966
 20
13.24664
 30
0.0
 10
-4.94558
 20
13.24664
 30
0.0
 10
-4.88314
 20
13.26103
 30
0.0
 10
-4.80906
 20
13.28982
 30
0.0
 10
-4.80906
 20
13.28982
 30
0.0
 10
-4.80906
 20
13.28982
 30
0.0
 10
-4.80906
 20
13.19203
 30
0.0
 10
-4.80906
 20
13.19203
 30
0.0
  0
SPLINE
  5
51
330
1F
100
AcDbEntity
  8
Layer 1
100
AcDbSpline
210
0.0
220
0.0
230
1.0
 70
    11
 71
     3
 72
    16
 73
    12
 74
     0
 42
0.0000000001
 43
0.0000000001
 12
1.0
 22
0.0
 32
0.0
 13
1.0
 23
0.0
 33
0.0
 40
0.0
 40
0.0
 40
0.0
 40
0.0
 40
0.25
 40
0.25
 40
0.25
 40
0.25
 40
0.5
 40
0.5
 40
0.5
 40
0.5
 40
1.0
 40
1.0
 40
1.0
 40
1.0
 10
-5.22562
 20
13.57938
 30
0.0
 10
-5.22562
 20
13.57938
 30
0.0
 10
-4.92844
 20
13.57938
 30
0.0
 10
-4.92844
 20
13.57938
 30
0.0
 10
-4.92844
 20
13.57938
 30
0.0
 10
-4.92844
 20
13.70469
 30
0.0
 10
-4.97522
 20
13.76734
 30
0.0
 10
-5.06856
 20
13.76734
 30
0.0
 10
-5.06856
 20
13.76734
 30
0.0
 10
-5.16254
 20
13.76734
 30
0.0
 10
-5.21482
 20
13.70469
 30
0.0
 10
-5.22562
 20
13.57938
 30
0.0
  0
SPLINE
  5
52
330
1F
100
AcDbEntity
  8
Layer 1
100
AcDbSpline
210
0.0
220
0.0
230
1.0
 70
    11
 71
     3
 72
    60
 73
    56
 74
     0
 42
0.0000000001
 43
0.0000000001
 12
1.0
 22
0.0
 32
0.0
 13
1.0
 23
0.0
 33
0.0
 40
0.0
 40
0.0
 40
0.0
 40
0.0
 40
0.0666666666666667
 40
0.0666666666666667
 40
0.0666666666666667
 40
0.0666666666666667
 40
0.1333333333333333
 40
0.1333333333333333
 40
0.1333333333333333
 40
0.1333333333333333
 40
0.2
 40
0.2
 40
0.2
 40
0.2
 40
0.2666666666666667
 40
0.2666666666666667
 40
0.2666666666666667
 40
0.2666666666666667
 40
0.3333333333333333
 40
0.3333333333333333
 40
0.3333333333333333
 40
0.3333333333333333
 40
0.4
 40
0.4
 40
0.4
 40
0.4
 40
0.4666666666666667
 40
0.4666666666666667
 40
0.4666666666666667
 40
0.4666666666666667
 40
0.5333333333333333
 40
0.5333333333333333
 40
0.5333333333333333
 40
0.5333333333333333
 40
0.6
 40
0.6
 40
0.6
 40
0.6
 40
0.6666666666666666
 40
0.6666666666666666
 40
0.6666666666666666
 40
0.6666666666666666
 40
0.7333333333333333
 40
0.7333333333333333
 40
0.7333333333333333
 40
0.7333333333333333
 40
0.8
 40
0.8
 40
0.8
 40
0.8
 40
0.8666666666666667
 40
0.8666666666666667
 40
0.8666666666666667
 40
0.8666666666666667
 40
1.0
 40
1.0
 40
1.0
 40
1.0
 10
-4.12813
 20
13.19076
 30
0.0
 10
-4.20708
 20
13.16705
 30
0.0
 10
-4.27524
 20
13.1552
 30
0.0
 10
-4.3326
 20
13.1552
 30
0.0
 10
-4.3326
 20
13.1552
 30
0.0
 10
-4.42362
 20
13.1552
 30
0.0
 10
-4.49897
 20
13.18886
 30
0.0
 10
-4.55887
 20
13.25595
 30
0.0
 10
-4.55887
 20
13.25595
 30
0.0
 10
-4.61877
 20
13.32326
 30
0.0
 10
-4.64883
 20
13.40814
 30
0.0
 10
-4.64883
 20
13.51038
 30
0.0
 10
-4.64883
 20
13.51038
 30
0.0
 10
-4.64883
 20
13.6196
 30
0.0
 10
-4.6192
 20
13.7049
 30
0.0
 10
-4.55993
 20
13.76586
 30
0.0
 10
-4.55993
 20
13.76586
 30
0.0
 10
-4.50066
 20
13.82703
 30
0.0
 10
-4.4179
 20
13.85751
 30
0.0
 10
-4.31164
 20
13.85751
 30
0.0
 10
-4.31164
 20
13.85751
 30
0.0
 10
-4.25936
 20
13.85751
 30
0.0
 10
-4.20052
 20
13.85031
 30
0.0
 10
-4.13575
 20
13.83592
 30
0.0
 10
-4.13575
 20
13.83592
 30
0.0
 10
-4.13575
 20
13.83592
 30
0.0
 10
-4.13575
 20
13.73305
 30
0.0
 10
-4.13575
 20
13.73305
 30
0.0
 10
-4.13575
 20
13.73305
 30
0.0
 10
-4.20454
 20
13.75337
 30
0.0
 10
-4.26063
 20
13.76353
 30
0.0
 10
-4.30381
 20
13.76353
 30
0.0
 10
-4.30381
 20
13.76353
 30
0.0
 10
-4.36647
 20
13.76353
 30
0.0
 10
-4.41663
 20
13.74004
 30
0.0
 10
-4.4541
 20
13.69326
 30
0.0
 10
-4.4541
 20
13.69326
 30
0.0
 10
-4.49156
 20
13.64648
 30
0.0
 10
-4.5104
 20
13.58404
 30
0.0
 10
-4.5104
 20
13.50614
 30
0.0
 10
-4.5104
 20
13.50614
 30
0.0
 10
-4.5104
 20
13.43058
 30
0.0
 10
-4.49093
 20
13.36962
 30
0.0
 10
-4.45219
 20
13.32284
 30
0.0
 10
-4.45219
 20
13.32284
 30
0.0
 10
-4.41346
 20
13.27627
 30
0.0
 10
-4.36287
 20
13.25299
 30
0.0
 10
-4.3
 20
13.25299
 30
0.0
 10
-4.3
 20
13.25299
 30
0.0
 10
-4.24433
 20
13.25299
 30
0.0
 10
-4.18718
 20
13.26738
 30
0.0
 10
-4.12813
 20
13.29617
 30
0.0
 10
-4.12813
 20
13.29617
 30
0.0
 10
-4.12813
 20
13.29617
 30
0.0
 10
-4.12813
 20
13.19076
 30
0.0
 10
-4.12813
 20
13.19076
 30
0.0
  0
SPLINE
  5
53
330
1F
100
AcDbEntity
  8
Layer 1
100
AcDbSpline
210
0.0
220
0.0
230
1.0
 70
    11
 71
     3
 72
    36
 73
    32
 74
     0
 42
0.0000000001
 43
0.0000000001
 12
1.0
 22
0.0
 32
0.0
 13
1.0
 23
0.0
 33
0.0
 40
0.0
 40
0.0
 40
0.0
 40
0.0
 40
0.1111111111111111
 40
0.1111111111111111
 40
0.1111111111111111
 40
0.1111111111111111
 40
0.2222222222222222
 40
0.2222222222222222
 40
0.2222222222222222
 40
0.2222222222222222
 40
0.3333333333333333
 40
0.3333333333333333
 40
0.3333333333333333
 40
0.3333333333333333
 40
0.4444444444444444
 40
0.4444444444444444
 40
0.4444444444444444
 40
0.4444444444444444
 40
0.5555555555555556
 40
0.5555555555555556
 40
0.5555555555555556
 40
0.5555555555555556
 40
0.6666666666666666
 40
0.6666666666666666
 40
0.6666666666666666
 40
0.6666666666666666
 40
0.7777777777777778
 40
0.7777777777777778
 40
0.7777777777777778
 40
0.7777777777777778
 40
1.0
 40
1.0
 40
1.0
 40
1.0
 10
-3.67707
 20
13.1552
 30
0.0
 10
-3.77592
 20
13.1552
 30
0.0
 10
-3.85423
 20
13.18674
 30
0.0
 10
-3.91181
 20
13.24982
 30
0.0
 10
-3.91181
 20
13.24982
 30
0.0
 10
-3.96959
 20
13.31289
 30
0.0
 10
-3.99838
 20
13.39862
 30
0.0
 10
-3.99838
 20
13.50678
 30
0.0
 10
-3.99838
 20
13.50678
 30
0.0
 10
-3.99838
 20
13.61473
 30
0.0
 10
-3.96959
 20
13.70024
 30
0.0
 10
-3.91181
 20
13.76311
 30
0.0
 10
-3.91181
 20
13.76311
 30
0.0
 10
-3.85423
 20
13.82597
 30
0.0
 10
-3.77592
 20
13.85751
 30
0.0
 10
-3.67707
 20
13.85751
 30
0.0
 10
-3.67707
 20
13.85751
 30
0.0
 10
-3.57822
 20
13.85751
 30
0.0
 10
-3.4999
 20
13.82597
 30
0.0
 10
-3.44233
 20
13.76311
 30
0.0
 10
-3.44233
 20
13.76311
 30
0.0
 10
-3.38455
 20
13.70024
 30
0.0
 10
-3.35576
 20
13.61473
 30
0.0
 10
-3.35576
 20
13.50678
 30
0.0
 10
-3.35576
 20
13.50678
 30
0.0
 10
-3.35576
 20
13.39862
 30
0.0
 10
-3.38455
 20
13.31289
 30
0.0
 10
-3.44233
 20
13.24982
 30
0.0
 10
-3.44233
 20
13.24982
 30
0.0
 10
-3.4999
 20
13.18674
 30
0.0
 10
-3.57822
 20
13.1552
 30
0.0
 10
-3.67707
 20
13.1552
 30
0.0
  0
SPLINE
  5
54
330
1F
100
AcDbEntity
  8
Layer 1
100
AcDbSpline
210
0.0
220
0.0
230
1.0
 70
    11
 71
     3
 72
    36
 73
    32
 74
     0
 42
0.0000000001
 43
0.0000000001
 12
1.0
 22
0.0
 32
0.0
 13
1.0
 23
0.0
 33
0.0
 40
0.0
 40
0.0
 40
0.0
 40
0.0
 40
0.1111111111111111
 40
0.1111111111111111
 40
0.1111111111111111
 40
0.1111111111111111
 40
0.2222222222222222
 40
0.2222222222222222
 40
0.2222222222222222
 40
0.2222222222222222
 40
0.3333333333333333
 40
0.3333333333333333
 40
0.3333333333333333
 40
0.3333333333333333
 40
0.4444444444444444
 40
0.4444444444444444
 40
0.4444444444444444
 40
0.4444444444444444
 40
0.5555555555555556
 40
0.5555555555555556
 40
0.5555555555555556
 40
0.5555555555555556
 40
0.6666666666666666
 40
0.6666666666666666
 40
0.6666666666666666
 40
0.6666666666666666
 40
0.7777777777777778
 40
0.7777777777777778
 40
0.7777777777777778
 40
0.7777777777777778
 40
1.0
 40
1.0
 40
1.0
 40
1.0
 10
-3.67728
 20
13.24664
 30
0.0
 10
-3.61696
 20
13.24664
 30
0.0
 10
-3.56997
 20
13.26929
 30
0.0
 10
-3.53652
 20
13.3148
 30
0.0
 10
-3.53652
 20
13.3148
 30
0.0
 10
-3.50329
 20
13.36009
 30
0.0
 10
-3.48657
 20
13.42423
 30
0.0
 10
-3.48657
 20
13.50678
 30
0.0
 10
-3.48657
 20
13.50678
 30
0.0
 10
-3.48657
 20
13.58912
 30
0.0
 10
-3.50329
 20
13.65304
 30
0.0
 10
-3.53652
 20
13.69834
 30
0.0
 10
-3.53652
 20
13.69834
 30
0.0
 10
-3.56997
 20
13.74342
 30
0.0
 10
-3.61696
 20
13.76607
 30
0.0
 10
-3.67728
 20
13.76607
 30
0.0
 10
-3.67728
 20
13.76607
 30
0.0
 10
-3.73782
 20
13.76607
 30
0.0
 10
-3.78481
 20
13.74342
 30
0.0
 10
-3.81783
 20
13.69834
 30
0.0
 10
-3.81783
 20
13.69834
 30
0.0
 10
-3.85106
 20
13.65304
 30
0.0
 10
-3.86757
 20
13.58912
 30
0.0
 10
-3.86757
 20
13.50678
 30
0.0
 10
-3.86757
 20
13.50678
 30
0.0
 10
-3.86757
 20
13.42423
 30
0.0
 10
-3.85106
 20
13.36009
 30
0.0
 10
-3.81783
 20
13.3148
 30
0.0
 10
-3.81783
 20
13.3148
 30
0.0
 10
-3.78481
 20
13.26929
 30
0.0
 10
-3.73782
 20
13.24664
 30
0.0
 10
-3.67728
 20
13.24664
 30
0.0
  0
SPLINE
  5
55
330
1F
100
AcDbEntity
  8
Layer 1
100
AcDbSpline
210
0.0
220
0.0
230
1.0
 70
    11
 71
     3
 72
    44
 73
    40
 74
     0
 42
0.0000000001
 43
0.0000000001
 12
1.0
 22
0.0
 32
0.0
 13
1.0
 23
0.0
 33
0.0
 40
0.0
 40
0.0
 40
0.0
 40
0.0
 40
0.0909090909090909
 40
0.0909090909090909
 40
0.0909090909090909
 40
0.0909090909090909
 40
0.1818181818181818
 40
0.1818181818181818
 40
0.1818181818181818
 40
0.1818181818181818
 40
0.2727272727272727
 40
0.2727272727272727
 40
0.2727272727272727
 40
0.2727272727272727
 40
0.3636363636363636
 40
0.3636363636363636
 40
0.3636363636363636
 40
0.3636363636363636
 40
0.4545454545454545
 40
0.4545454545454545
 40
0.4545454545454545
 40
0.4545454545454545
 40
0.5454545454545454
 40
0.5454545454545454
 40
0.5454545454545454
 40
0.5454545454545454
 40
0.6363636363636364
 40
0.6363636363636364
 40
0.6363636363636364
 40
0.6363636363636364
 40
0.7272727272727273
 40
0.7272727272727273
 40
0.7272727272727273
 40
0.7272727272727273
 40
0.8181818181818182
 40
0.8181818181818182
 40
0.8181818181818182
 40
0.8181818181818182
 40
1.0
 40
1.0
 40
1.0
 40
1.0
 10
-3.16484
 20
13.17044
 30
0.0
 10
-3.16484
 20
13.17044
 30
0.0
 10
-3.16484
 20
13.84354
 30
0.0
 10
-3.16484
 20
13.84354
 30
0.0
 10
-3.16484
 20
13.84354
 30
0.0
 10
-3.16484
 20
13.84354
 30
0.0
 10
-3.04292
 20
13.84354
 30
0.0
 10
-3.04292
 20
13.84354
 30
0.0
 10
-3.04292
 20
13.84354
 30
0.0
 10
-3.04292
 20
13.84354
 30
0.0
 10
-3.04292
 20
13.71633
 30
0.0
 10
-3.04292
 20
13.71633
 30
0.0
 10
-3.04292
 20
13.71633
 30
0.0
 10
-2.99445
 20
13.81052
 30
0.0
 10
-2.92417
 20
13.85751
 30
0.0
 10
-2.83189
 20
13.85751
 30
0.0
 10
-2.83189
 20
13.85751
 30
0.0
 10
-2.8194
 20
13.85751
 30
0.0
 10
-2.80628
 20
13.85645
 30
0.0
 10
-2.79273
 20
13.85434
 30
0.0
 10
-2.79273
 20
13.85434
 30
0.0
 10
-2.79273
 20
13.85434
 30
0.0
 10
-2.79273
 20
13.74025
 30
0.0
 10
-2.79273
 20
13.74025
 30
0.0
 10
-2.79273
 20
13.74025
 30
0.0
 10
-2.8139
 20
13.74723
 30
0.0
 10
-2.83252
 20
13.75083
 30
0.0
 10
-2.84861
 20
13.75083
 30
0.0
 10
-2.84861
 20
13.75083
 30
0.0
 10
-2.92608
 20
13.75083
 30
0.0
 10
-2.99085
 20
13.70511
 30
0.0
 10
-3.04292
 20
13.61346
 30
0.0
 10
-3.04292
 20
13.61346
 30
0.0
 10
-3.04292
 20
13.61346
 30
0.0
 10
-3.04292
 20
13.17044
 30
0.0
 10
-3.04292
 20
13.17044
 30
0.0
 10
-3.04292
 20
13.17044
 30
0.0
 10
-3.04292
 20
13.17044
 30
0.0
 10
-3.16484
 20
13.17044
 30
0.0
 10
-3.16484
 20
13.17044
 30
0.0
  0
SPLINE
  5
56
330
1F
100
AcDbEntity
  8
Layer 1
100
AcDbSpline
210
0.0
220
0.0
230
1.0
 70
    11
 71
     3
 72
    80
 73
    76
 74
     0
 42
0.0000000001
 43
0.0000000001
 12
1.0
 22
0.0
 32
0.0
 13
1.0
 23
0.0
 33
0.0
 40
0.0
 40
0.0
 40
0.0
 40
0.0
 40
0.05
 40
0.05
 40
0.05
 40
0.05
 40
0.1
 40
0.1
 40
0.1
 40
0.1
 40
0.15
 40
0.15
 40
0.15
 40
0.15
 40
0.2
 40
0.2
 40
0.2
 40
0.2
 40
0.25
 40
0.25
 40
0.25
 40
0.25
 40
0.3
 40
0.3
 40
0.3
 40
0.3
 40
0.35
 40
0.35
 40
0.35
 40
0.35
 40
0.4
 40
0.4
 40
0.4
 40
0.4
 40
0.45
 40
0.45
 40
0.45
 40
0.45
 40
0.5
 40
0.5
 40
0.5
 40
0.5
 40
0.55
 40
0.55
 40
0.55
 40
0.55
 40
0.6
 40
0.6
 40
0.6
 40
0.6
 40
0.65
 40
0.65
 40
0.65
 40
0.65
 40
0.7
 40
0.7
 40
0.7
 40
0.7
 40
0.75
 40
0.75
 40
0.75
 40
0.75
 40
0.8
 40
0.8
 40
0.8
 40
0.8
 40
0.85
 40
0.85
 40
0.85
 40
0.85
 40
0.9
 40
0.9
 40
0.9
 40
0.9
 40
1.0
 40
1.0
 40
1.0
 40
1.0
 10
-2.29828
 20
13.25617
 30
0.0
 10
-2.37151
 20
13.18886
 30
0.0
 10
-2.442
 20
13.1552
 30
0.0
 10
-2.50973
 20
13.1552
 30
0.0
 10
-2.50973
 20
13.1552
 30
0.0
 10
-2.5654
 20
13.1552
 30
0.0
 10
-2.61176
 20
13.17256
 30
0.0
 10
-2.64837
 20
13.20748
 30
0.0
 10
-2.64837
 20
13.20748
 30
0.0
 10
-2.6852
 20
13.24241
 30
0.0
 10
-2.70362
 20
13.28643
 30
0.0
 10
-2.70362
 20
13.33956
 30
0.0
 10
-2.70362
 20
13.33956
 30
0.0
 10
-2.70362
 20
13.41301
 30
0.0
 10
-2.67272
 20
13.46953
 30
0.0
 10
-2.61091
 20
13.5089
 30
0.0
 10
-2.61091
 20
13.5089
 30
0.0
 10
-2.5491
 20
13.54827
 30
0.0
 10
-2.46041
 20
13.56795
 30
0.0
 10
-2.34484
 20
13.56795
 30
0.0
 10
-2.34484
 20
13.56795
 30
0.0
 10
-2.34484
 20
13.56795
 30
0.0
 10
-2.31627
 20
13.56795
 30
0.0
 10
-2.31627
 20
13.56795
 30
0.0
 10
-2.31627
 20
13.56795
 30
0.0
 10
-2.31627
 20
13.56795
 30
0.0
 10
-2.31627
 20
13.64902
 30
0.0
 10
-2.31627
 20
13.64902
 30
0.0
 10
-2.31627
 20
13.64902
 30
0.0
 10
-2.31627
 20
13.72712
 30
0.0
 10
-2.35691
 20
13.76607
 30
0.0
 10
-2.4384
 20
13.76607
 30
0.0
 10
-2.4384
 20
13.76607
 30
0.0
 10
-2.50148
 20
13.76607
 30
0.0
 10
-2.57048
 20
13.74617
 30
0.0
 10
-2.6452
 20
13.70638
 30
0.0
 10
-2.6452
 20
13.70638
 30
0.0
 10
-2.6452
 20
13.70638
 30
0.0
 10
-2.6452
 20
13.80671
 30
0.0
 10
-2.6452
 20
13.80671
 30
0.0
 10
-2.6452
 20
13.80671
 30
0.0
 10
-2.56307
 20
13.84058
 30
0.0
 10
-2.4856
 20
13.85751
 30
0.0
 10
-2.413
 20
13.85751
 30
0.0
 10
-2.413
 20
13.85751
 30
0.0
 10
-2.33828
 20
13.85751
 30
0.0
 10
-2.28304
 20
13.84058
 30
0.0
 10
-2.24769
 20
13.8065
 30
0.0
 10
-2.24769
 20
13.8065
 30
0.0
 10
-2.21213
 20
13.77242
 30
0.0
 10
-2.19435
 20
13.71993
 30
0.0
 10
-2.19435
 20
13.64902
 30
0.0
 10
-2.19435
 20
13.64902
 30
0.0
 10
-2.19435
 20
13.64902
 30
0.0
 10
-2.19435
 20
13.34485
 30
0.0
 10
-2.19435
 20
13.34485
 30
0.0
 10
-2.19435
 20
13.34485
 30
0.0
 10
-2.19435
 20
13.27522
 30
0.0
 10
-2.17297
 20
13.24029
 30
0.0
 10
-2.13
 20
13.24029
 30
0.0
 10
-2.13
 20
13.24029
 30
0.0
 10
-2.12471
 20
13.24029
 30
0.0
 10
-2.11688
 20
13.24114
 30
0.0
 10
-2.10651
 20
13.24283
 30
0.0
 10
-2.10651
 20
13.24283
 30
0.0
 10
-2.10651
 20
13.24283
 30
0.0
 10
-2.09783
 20
13.1751
 30
0.0
 10
-2.09783
 20
13.1751
 30
0.0
 10
-2.09783
 20
13.1751
 30
0.0
 10
-2.12556
 20
13.16176
 30
0.0
 10
-2.15604
 20
13.1552
 30
0.0
 10
-2.18948
 20
13.1552
 30
0.0
 10
-2.18948
 20
13.1552
 30
0.0
 10
-2.24642
 20
13.1552
 30
0.0
 10
-2.28261
 20
13.18886
 30
0.0
 10
-2.29828
 20
13.25617
 30
0.0
  0
SPLINE
  5
57
330
1F
100
AcDbEntity
  8
Layer 1
100
AcDbSpline
210
0.0
220
0.0
230
1.0
 70
    11
 71
     3
 72
    32
 73
    28
 74
     0
 42
0.0000000001
 43
0.0000000001
 12
1.0
 22
0.0
 32
0.0
 13
1.0
 23
0.0
 33
0.0
 40
0.0
 40
0.0
 40
0.0
 40
0.0
 40
0.125
 40
0.125
 40
0.125
 40
0.125
 40
0.25
 40
0.25
 40
0.25
 40
0.25
 40
0.375
 40
0.375
 40
0.375
 40
0.375
 40
0.5
 40
0.5
 40
0.5
 40
0.5
 40
0.625
 40
0.625
 40
0.625
 40
0.625
 40
0.75
 40
0.75
 40
0.75
 40
0.75
 40
1.0
 40
1.0
 40
1.0
 40
1.0
 10
-2.31627
 20
13.32263
 30
0.0
 10
-2.31627
 20
13.32263
 30
0.0
 10
-2.31627
 20
13.49556
 30
0.0
 10
-2.31627
 20
13.49556
 30
0.0
 10
-2.31627
 20
13.49556
 30
0.0
 10
-2.31627
 20
13.49556
 30
0.0
 10
-2.35543
 20
13.49683
 30
0.0
 10
-2.35543
 20
13.49683
 30
0.0
 10
-2.35543
 20
13.49683
 30
0.0
 10
-2.42316
 20
13.49683
 30
0.0
 10
-2.47777
 20
13.48434
 30
0.0
 10
-2.51947
 20
13.45937
 30
0.0
 10
-2.51947
 20
13.45937
 30
0.0
 10
-2.56096
 20
13.43418
 30
0.0
 10
-2.5817
 20
13.40095
 30
0.0
 10
-2.5817
 20
13.35946
 30
0.0
 10
-2.5817
 20
13.35946
 30
0.0
 10
-2.5817
 20
13.33046
 30
0.0
 10
-2.57133
 20
13.30591
 30
0.0
 10
-2.5508
 20
13.2858
 30
0.0
 10
-2.5508
 20
13.2858
 30
0.0
 10
-2.53005
 20
13.26569
 30
0.0
 10
-2.50486
 20
13.25553
 30
0.0
 10
-2.47502
 20
13.25553
 30
0.0
 10
-2.47502
 20
13.25553
 30
0.0
 10
-2.42422
 20
13.25553
 30
0.0
 10
-2.3713
 20
13.27797
 30
0.0
 10
-2.31627
 20
13.32263
 30
0.0
  0
SPLINE
  5
58
330
1F
100
AcDbEntity
  8
Layer 1
100
AcDbSpline
210
0.0
220
0.0
230
1.0
 70
    11
 71
     3
 72
    72
 73
    68
 74
     0
 42
0.0000000001
 43
0.0000000001
 12
1.0
 22
0.0
 32
0.0
 13
1.0
 23
0.0
 33
0.0
 40
0.0
 40
0.0
 40
0.0
 40
0.0
 40
0.0555555555555556
 40
0.0555555555555556
 40
0.0555555555555556
 40
0.0555555555555556
 40
0.1111111111111111
 40
0.1111111111111111
 40
0.1111111111111111
 40
0.1111111111111111
 40
0.1666666666666667
 40
0.1666666666666667
 40
0.1666666666666667
 40
0.1666666666666667
 40
0.2222222222222222
 40
0.2222222222222222
 40
0.2222222222222222
 40
0.2222222222222222
 40
0.2777777777777778
 40
0.2777777777777778
 40
0.2777777777777778
 40
0.2777777777777778
 40
0.3333333333333333
 40
0.3333333333333333
 40
0.3333333333333333
 40
0.3333333333333333
 40
0.3888888888888889
 40
0.3888888888888889
 40
0.3888888888888889
 40
0.3888888888888889
 40
0.4444444444444444
 40
0.4444444444444444
 40
0.4444444444444444
 40
0.4444444444444444
 40
0.5
 40
0.5
 40
0.5
 40
0.5
 40
0.5555555555555556
 40
0.5555555555555556
 40
0.5555555555555556
 40
0.5555555555555556
 40
0.6111111111111112
 40
0.6111111111111112
 40
0.6111111111111112
 40
0.6111111111111112
 40
0.6666666666666666
 40
0.6666666666666666
 40
0.6666666666666666
 40
0.6666666666666666
 40
0.7222222222222222
 40
0.7222222222222222
 40
0.7222222222222222
 40
0.7222222222222222
 40
0.7777777777777778
 40
0.7777777777777778
 40
0.7777777777777778
 40
0.7777777777777778
 40
0.8333333333333334
 40
0.8333333333333334
 40
0.8333333333333334
 40
0.8333333333333334
 40
0.8888888888888888
 40
0.8888888888888888
 40
0.8888888888888888
 40
0.8888888888888888
 40
1.0
 40
1.0
 40
1.0
 40
1.0
 10
-1.64296
 20
13.17065
 30
0.0
 10
-1.68064
 20
13.16028
 30
0.0
 10
-1.71344
 20
13.1552
 30
0.0
 10
-1.74117
 20
13.1552
 30
0.0
 10
-1.74117
 20
13.1552
 30
0.0
 10
-1.8034
 20
13.1552
 30
0.0
 10
-1.85187
 20
13.17298
 30
0.0
 10
-1.88659
 20
13.20854
 30
0.0
 10
-1.88659
 20
13.20854
 30
0.0
 10
-1.92151
 20
13.2441
 30
0.0
 10
-1.93887
 20
13.29342
 30
0.0
 10
-1.93887
 20
13.35671
 30
0.0
 10
-1.93887
 20
13.35671
 30
0.0
 10
-1.93887
 20
13.35671
 30
0.0
 10
-1.93887
 20
13.7521
 30
0.0
 10
-1.93887
 20
13.7521
 30
0.0
 10
-1.93887
 20
13.7521
 30
0.0
 10
-1.93887
 20
13.7521
 30
0.0
 10
-2.02311
 20
13.7521
 30
0.0
 10
-2.02311
 20
13.7521
 30
0.0
 10
-2.02311
 20
13.7521
 30
0.0
 10
-2.02311
 20
13.7521
 30
0.0
 10
-2.02311
 20
13.84354
 30
0.0
 10
-2.02311
 20
13.84354
 30
0.0
 10
-2.02311
 20
13.84354
 30
0.0
 10
-2.02311
 20
13.84354
 30
0.0
 10
-1.93887
 20
13.84354
 30
0.0
 10
-1.93887
 20
13.84354
 30
0.0
 10
-1.93887
 20
13.84354
 30
0.0
 10
-1.93887
 20
13.84354
 30
0.0
 10
-1.93887
 20
13.96525
 30
0.0
 10
-1.93887
 20
13.96525
 30
0.0
 10
-1.93887
 20
13.96525
 30
0.0
 10
-1.93887
 20
13.96525
 30
0.0
 10
-1.81695
 20
13.97689
 30
0.0
 10
-1.81695
 20
13.97689
 30
0.0
 10
-1.81695
 20
13.97689
 30
0.0
 10
-1.81695
 20
13.97689
 30
0.0
 10
-1.81695
 20
13.84354
 30
0.0
 10
-1.81695
 20
13.84354
 30
0.0
 10
-1.81695
 20
13.84354
 30
0.0
 10
-1.81695
 20
13.84354
 30
0.0
 10
-1.64042
 20
13.84354
 30
0.0
 10
-1.64042
 20
13.84354
 30
0.0
 10
-1.64042
 20
13.84354
 30
0.0
 10
-1.64042
 20
13.84354
 30
0.0
 10
-1.64042
 20
13.7521
 30
0.0
 10
-1.64042
 20
13.7521
 30
0.0
 10
-1.64042
 20
13.7521
 30
0.0
 10
-1.64042
 20
13.7521
 30
0.0
 10
-1.81695
 20
13.7521
 30
0.0
 10
-1.81695
 20
13.7521
 30
0.0
 10
-1.81695
 20
13.7521
 30
0.0
 10
-1.81695
 20
13.7521
 30
0.0
 10
-1.81695
 20
13.37872
 30
0.0
 10
-1.81695
 20
13.37872
 30
0.0
 10
-1.81695
 20
13.37872
 30
0.0
 10
-1.81695
 20
13.29067
 30
0.0
 10
-1.77864
 20
13.24664
 30
0.0
 10
-1.70223
 20
13.24664
 30
0.0
 10
-1.70223
 20
13.24664
 30
0.0
 10
-1.68593
 20
13.24664
 30
0.0
 10
-1.66624
 20
13.24939
 30
0.0
 10
-1.64296
 20
13.25468
 30
0.0
 10
-1.64296
 20
13.25468
 30
0.0
 10
-1.64296
 20
13.25468
 30
0.0
 10
-1.64296
 20
13.17065
 30
0.0
 10
-1.64296
 20
13.17065
 30
0.0
  0
SPLINE
  5
59
330
1F
100
AcDbEntity
  8
Layer 1
100
AcDbSpline
210
0.0
220
0.0
230
1.0
 70
    11
 71
     3
 72
    20
 73
    16
 74
     0
 42
0.0000000001
 43
0.0000000001
 12
1.0
 22
0.0
 32
0.0
 13
1.0
 23
0.0
 33
0.0
 40
0.0
 40
0.0
 40
0.0
 40
0.0
 40
0.2
 40
0.2
 40
0.2
 40
0.2
 40
0.4
 40
0.4
 40
0.4
 40
0.4
 40
0.6
 40
0.6
 40
0.6
 40
0.6
 40
1.0
 40
1.0
 40
1.0
 40
1.0
 10
-1.46897
 20
13.17044
 30
0.0
 10
-1.46897
 20
13.17044
 30
0.0
 10
-1.46897
 20
13.84354
 30
0.0
 10
-1.46897
 20
13.84354
 30
0.0
 10
-1.46897
 20
13.84354
 30
0.0
 10
-1.46897
 20
13.84354
 30
0.0
 10
-1.34705
 20
13.84354
 30
0.0
 10
-1.34705
 20
13.84354
 30
0.0
 10
-1.34705
 20
13.84354
 30
0.0
 10
-1.34705
 20
13.84354
 30
0.0
 10
-1.34705
 20
13.17044
 30
0.0
 10
-1.34705
 20
13.17044
 30
0.0
 10
-1.34705
 20
13.17044
 30
0.0
 10
-1.34705
 20
13.17044
 30
0.0
 10
-1.46897
 20
13.17044
 30
0.0
 10
-1.46897
 20
13.17044
 30
0.0
  0
SPLINE
  5
5A
330
1F
100
AcDbEntity
  8
Layer 1
100
AcDbSpline
210
0.0
220
0.0
230
1.0
 70
    11
 71
     3
 72
    20
 73
    16
 74
     0
 42
0.0000000001
 43
0.0000000001
 12
1.0
 22
0.0
 32
0.0
 13
1.0
 23
0.0
 33
0.0
 40
0.0
 40
0.0
 40
0.0
 40
0.0
 40
0.2
 40
0.2
 40
0.2
 40
0.2
 40
0.4
 40
0.4
 40
0.4
 40
0.4
 40
0.6
 40
0.6
 40
0.6
 40
0.6
 40
1.0
 40
1.0
 40
1.0
 40
1.0
 10
-1.46897
 20
13.96673
 30
0.0
 10
-1.46897
 20
13.96673
 30
0.0
 10
-1.46897
 20
14.08865
 30
0.0
 10
-1.46897
 20
14.08865
 30
0.0
 10
-1.46897
 20
14.08865
 30
0.0
 10
-1.46897
 20
14.08865
 30
0.0
 10
-1.34705
 20
14.08865
 30
0.0
 10
-1.34705
 20
14.08865
 30
0.0
 10
-1.34705
 20
14.08865
 30
0.0
 10
-1.34705
 20
14.08865
 30
0.0
 10
-1.34705
 20
13.96673
 30
0.0
 10
-1.34705
 20
13.96673
 30
0.0
 10
-1.34705
 20
13.96673
 30
0.0
 10
-1.34705
 20
13.96673
 30
0.0
 10
-1.46897
 20
13.96673
 30
0.0
 10
-1.46897
 20
13.96673
 30
0.0
  0
SPLINE
  5
5B
330
1F
100
AcDbEntity
  8
Layer 1
100
AcDbSpline
210
0.0
220
0.0
230
1.0
 70
    11
 71
     3
 72
    36
 73
    32
 74
     0
 42
0.0000000001
 43
0.0000000001
 12
1.0
 22
0.0
 32
0.0
 13
1.0
 23
0.0
 33
0.0
 40
0.0
 40
0.0
 40
0.0
 40
0.0
 40
0.1111111111111111
 40
0.1111111111111111
 40
0.1111111111111111
 40
0.1111111111111111
 40
0.2222222222222222
 40
0.2222222222222222
 40
0.2222222222222222
 40
0.2222222222222222
 40
0.3333333333333333
 40
0.3333333333333333
 40
0.3333333333333333
 40
0.3333333333333333
 40
0.4444444444444444
 40
0.4444444444444444
 40
0.4444444444444444
 40
0.4444444444444444
 40
0.5555555555555556
 40
0.5555555555555556
 40
0.5555555555555556
 40
0.5555555555555556
 40
0.6666666666666666
 40
0.6666666666666666
 40
0.6666666666666666
 40
0.6666666666666666
 40
0.7777777777777778
 40
0.7777777777777778
 40
0.7777777777777778
 40
0.7777777777777778
 40
1.0
 40
1.0
 40
1.0
 40
1.0
 10
-0.83397
 20
13.1552
 30
0.0
 10
-0.93282
 20
13.1552
 30
0.0
 10
-1.01113
 20
13.18674
 30
0.0
 10
-1.06871
 20
13.24982
 30
0.0
 10
-1.06871
 20
13.24982
 30
0.0
 10
-1.12649
 20
13.31289
 30
0.0
 10
-1.15528
 20
13.39862
 30
0.0
 10
-1.15528
 20
13.50678
 30
0.0
 10
-1.15528
 20
13.50678
 30
0.0
 10
-1.15528
 20
13.61473
 30
0.0
 10
-1.12649
 20
13.70024
 30
0.0
 10
-1.06871
 20
13.76311
 30
0.0
 10
-1.06871
 20
13.76311
 30
0.0
 10
-1.01113
 20
13.82597
 30
0.0
 10
-0.93282
 20
13.85751
 30
0.0
 10
-0.83397
 20
13.85751
 30
0.0
 10
-0.83397
 20
13.85751
 30
0.0
 10
-0.73512
 20
13.85751
 30
0.0
 10
-0.6568
 20
13.82597
 30
0.0
 10
-0.59923
 20
13.76311
 30
0.0
 10
-0.59923
 20
13.76311
 30
0.0
 10
-0.54145
 20
13.70024
 30
0.0
 10
-0.51266
 20
13.61473
 30
0.0
 10
-0.51266
 20
13.50678
 30
0.0
 10
-0.51266
 20
13.50678
 30
0.0
 10
-0.51266
 20
13.39862
 30
0.0
 10
-0.54145
 20
13.31289
 30
0.0
 10
-0.59923
 20
13.24982
 30
0.0
 10
-0.59923
 20
13.24982
 30
0.0
 10
-0.6568
 20
13.18674
 30
0.0
 10
-0.73512
 20
13.1552
 30
0.0
 10
-0.83397
 20
13.1552
 30
0.0
  0
SPLINE
  5
5C
330
1F
100
AcDbEntity
  8
Layer 1
100
AcDbSpline
210
0.0
220
0.0
230
1.0
 70
    11
 71
     3
 72
    36
 73
    32
 74
     0
 42
0.0000000001
 43
0.0000000001
 12
1.0
 22
0.0
 32
0.0
 13
1.0
 23
0.0
 33
0.0
 40
0.0
 40
0.0
 40
0.0
 40
0.0
 40
0.1111111111111111
 40
0.1111111111111111
 40
0.1111111111111111
 40
0.1111111111111111
 40
0.2222222222222222
 40
0.2222222222222222
 40
0.2222222222222222
 40
0.2222222222222222
 40
0.3333333333333333
 40
0.3333333333333333
 40
0.3333333333333333
 40
0.3333333333333333
 40
0.4444444444444444
 40
0.4444444444444444
 40
0.4444444444444444
 40
0.4444444444444444
 40
0.5555555555555556
 40
0.5555555555555556
 40
0.5555555555555556
 40
0.5555555555555556
 40
0.6666666666666666
 40
0.6666666666666666
 40
0.6666666666666666
 40
0.6666666666666666
 40
0.7777777777777778
 40
0.7777777777777778
 40
0.7777777777777778
 40
0.7777777777777778
 40
1.0
 40
1.0
 40
1.0
 40
1.0
 10
-0.83418
 20
13.24664
 30
0.0
 10
-0.77386
 20
13.24664
 30
0.0
 10
-0.72687
 20
13.26929
 30
0.0
 10
-0.69342
 20
13.3148
 30
0.0
 10
-0.69342
 20
13.3148
 30
0.0
 10
-0.66019
 20
13.36009
 30
0.0
 10
-0.64347
 20
13.42423
 30
0.0
 10
-0.64347
 20
13.50678
 30
0.0
 10
-0.64347
 20
13.50678
 30
0.0
 10
-0.64347
 20
13.58912
 30
0.0
 10
-0.66019
 20
13.65304
 30
0.0
 10
-0.69342
 20
13.69834
 30
0.0
 10
-0.69342
 20
13.69834
 30
0.0
 10
-0.72687
 20
13.74342
 30
0.0
 10
-0.77386
 20
13.76607
 30
0.0
 10
-0.83418
 20
13.76607
 30
0.0
 10
-0.83418
 20
13.76607
 30
0.0
 10
-0.89472
 20
13.76607
 30
0.0
 10
-0.94171
 20
13.74342
 30
0.0
 10
-0.97473
 20
13.69834
 30
0.0
 10
-0.97473
 20
13.69834
 30
0.0
 10
-1.00796
 20
13.65304
 30
0.0
 10
-1.02447
 20
13.58912
 30
0.0
 10
-1.02447
 20
13.50678
 30
0.0
 10
-1.02447
 20
13.50678
 30
0.0
 10
-1.02447
 20
13.42423
 30
0.0
 10
-1.00796
 20
13.36009
 30
0.0
 10
-0.97473
 20
13.3148
 30
0.0
 10
-0.97473
 20
13.3148
 30
0.0
 10
-0.94171
 20
13.26929
 30
0.0
 10
-0.89472
 20
13.24664
 30
0.0
 10
-0.83418
 20
13.24664
 30
0.0
  0
SPLINE
  5
5D
330
1F
100
AcDbEntity
  8
Layer 1
100
AcDbSpline
210
0.0
220
0.0
230
1.0
 70
    11
 71
     3
 72
    60
 73
    56
 74
     0
 42
0.0000000001
 43
0.0000000001
 12
1.0
 22
0.0
 32
0.0
 13
1.0
 23
0.0
 33
0.0
 40
0.0
 40
0.0
 40
0.0
 40
0.0
 40
0.0666666666666667
 40
0.0666666666666667
 40
0.0666666666666667
 40
0.0666666666666667
 40
0.1333333333333333
 40
0.1333333333333333
 40
0.1333333333333333
 40
0.1333333333333333
 40
0.2
 40
0.2
 40
0.2
 40
0.2
 40
0.2666666666666667
 40
0.2666666666666667
 40
0.2666666666666667
 40
0.2666666666666667
 40
0.3333333333333333
 40
0.3333333333333333
 40
0.3333333333333333
 40
0.3333333333333333
 40
0.4
 40
0.4
 40
0.4
 40
0.4
 40
0.4666666666666667
 40
0.4666666666666667
 40
0.4666666666666667
 40
0.4666666666666667
 40
0.5333333333333333
 40
0.5333333333333333
 40
0.5333333333333333
 40
0.5333333333333333
 40
0.6
 40
0.6
 40
0.6
 40
0.6
 40
0.6666666666666666
 40
0.6666666666666666
 40
0.6666666666666666
 40
0.6666666666666666
 40
0.7333333333333333
 40
0.7333333333333333
 40
0.7333333333333333
 40
0.7333333333333333
 40
0.8
 40
0.8
 40
0.8
 40
0.8
 40
0.8666666666666667
 40
0.8666666666666667
 40
0.8666666666666667
 40
0.8666666666666667
 40
1.0
 40
1.0
 40
1.0
 40
1.0
 10
-0.32174
 20
13.17044
 30
0.0
 10
-0.32174
 20
13.17044
 30
0.0
 10
-0.32174
 20
13.84354
 30
0.0
 10
-0.32174
 20
13.84354
 30
0.0
 10
-0.32174
 20
13.84354
 30
0.0
 10
-0.32174
 20
13.84354
 30
0.0
 10
-0.19982
 20
13.84354
 30
0.0
 10
-0.19982
 20
13.84354
 30
0.0
 10
-0.19982
 20
13.84354
 30
0.0
 10
-0.19982
 20
13.84354
 30
0.0
 10
-0.19982
 20
13.71633
 30
0.0
 10
-0.19982
 20
13.71633
 30
0.0
 10
-0.19982
 20
13.71633
 30
0.0
 10
-0.13526
 20
13.81052
 30
0.0
 10
-0.0561
 20
13.85751
 30
0.0
 10
0.03746
 20
13.85751
 30
0.0
 10
0.03746
 20
13.85751
 30
0.0
 10
0.0963
 20
13.85751
 30
0.0
 10
0.14308
 20
13.8391
 30
0.0
 10
0.17758
 20
13.80205
 30
0.0
 10
0.17758
 20
13.80205
 30
0.0
 10
0.21208
 20
13.76522
 30
0.0
 10
0.22944
 20
13.71548
 30
0.0
 10
0.22944
 20
13.65325
 30
0.0
 10
0.22944
 20
13.65325
 30
0.0
 10
0.22944
 20
13.65325
 30
0.0
 10
0.22944
 20
13.17044
 30
0.0
 10
0.22944
 20
13.17044
 30
0.0
 10
0.22944
 20
13.17044
 30
0.0
 10
0.22944
 20
13.17044
 30
0.0
 10
0.10752
 20
13.17044
 30
0.0
 10
0.10752
 20
13.17044
 30
0.0
 10
0.10752
 20
13.17044
 30
0.0
 10
0.10752
 20
13.17044
 30
0.0
 10
0.10752
 20
13.61346
 30
0.0
 10
0.10752
 20
13.61346
 30
0.0
 10
0.10752
 20
13.61346
 30
0.0
 10
0.10752
 20
13.66341
 30
0.0
 10
0.10011
 20
13.69897
 30
0.0
 10
0.08551
 20
13.72014
 30
0.0
 10
0.08551
 20
13.72014
 30
0.0
 10
0.07069
 20
13.74152
 30
0.0
 10
0.04635
 20
13.7521
 30
0.0
 10
0.01227
 20
13.7521
 30
0.0
 10
0.01227
 20
13.7521
 30
0.0
 10
-0.06266
 20
13.7521
 30
0.0
 10
-0.13336
 20
13.70321
 30
0.0
 10
-0.19982
 20
13.60542
 30
0.0
 10
-0.19982
 20
13.60542
 30
0.0
 10
-0.19982
 20
13.60542
 30
0.0
 10
-0.19982
 20
13.17044
 30
0.0
 10
-0.19982
 20
13.17044
 30
0.0
 10
-0.19982
 20
13.17044
 30
0.0
 10
-0.19982
 20
13.17044
 30
0.0
 10
-0.32174
 20
13.17044
 30
0.0
 10
-0.32174
 20
13.17044
 30
0.0
  0
SPLINE
  5
5E
330
1F
100
AcDbEntity
  8
Layer 1
100
AcDbSpline
210
0.0
220
0.0
230
1.0
 70
    11
 71
     3
 72
    20
 73
    16
 74
     0
 42
0.0000000001
 43
0.0000000001
 12
1.0
 22
0.0
 32
0.0
 13
1.0
 23
0.0
 33
0.0
 40
0.0
 40
0.0
 40
0.0
 40
0.0
 40
0.2
 40
0.2
 40
0.2
 40
0.2
 40
0.4
 40
0.4
 40
0.4
 40
0.4
 40
0.6
 40
0.6
 40
0.6
 40
0.6
 40
1.0
 40
1.0
 40
1.0
 40
1.0
 10
0.39793
 20
13.079
 30
0.0
 10
0.39793
 20
13.079
 30
0.0
 10
0.39793
 20
13.17044
 30
0.0
 10
0.39793
 20
13.17044
 30
0.0
 10
0.39793
 20
13.17044
 30
0.0
 10
0.39793
 20
13.17044
 30
0.0
 10
0.92625
 20
13.17044
 30
0.0
 10
0.92625
 20
13.17044
 30
0.0
 10
0.92625
 20
13.17044
 30
0.0
 10
0.92625
 20
13.17044
 30
0.0
 10
0.92625
 20
13.079
 30
0.0
 10
0.92625
 20
13.079
 30
0.0
 10
0.92625
 20
13.079
 30
0.0
 10
0.92625
 20
13.079
 30
0.0
 10
0.39793
 20
13.079
 30
0.0
 10
0.39793
 20
13.079
 30
0.0
  0
SPLINE
  5
5F
330
1F
100
AcDbEntity
  8
Layer 1
100
AcDbSpline
210
0.0
220
0.0
230
1.0
 70
    11
 71
     3
 72
    48
 73
    44
 74
     0
 42
0.0000000001
 43
0.0000000001
 12
1.0
 22
0.0
 32
0.0
 13
1.0
 23
0.0
 33
0.0
 40
0.0
 40
0.0
 40
0.0
 40
0.0
 40
0.0833333333333333
 40
0.0833333333333333
 40
0.0833333333333333
 40
0.0833333333333333
 40
0.1666666666666667
 40
0.1666666666666667
 40
0.1666666666666667
 40
0.1666666666666667
 40
0.25
 40
0.25
 40
0.25
 40
0.25
 40
0.3333333333333333
 40
0.3333333333333333
 40
0.3333333333333333
 40
0.3333333333333333
 40
0.4166666666666667
 40
0.4166666666666667
 40
0.4166666666666667
 40
0.4166666666666667
 40
0.5
 40
0.5
 40
0.5
 40
0.5
 40
0.5833333333333334
 40
0.5833333333333334
 40
0.5833333333333334
 40
0.5833333333333334
 40
0.6666666666666666
 40
0.6666666666666666
 40
0.6666666666666666
 40
0.6666666666666666
 40
0.75
 40
0.75
 40
0.75
 40
0.75
 40
0.8333333333333334
 40
0.8333333333333334
 40
0.8333333333333334
 40
0.8333333333333334
 40
1.0
 40
1.0
 40
1.0
 40
1.0
 10
1.53458
 20
13.17044
 30
0.0
 10
1.53458
 20
13.17044
 30
0.0
 10
1.53458
 20
13.29681
 30
0.0
 10
1.53458
 20
13.29681
 30
0.0
 10
1.53458
 20
13.29681
 30
0.0
 10
1.48484
 20
13.2024
 30
0.0
 10
1.40991
 20
13.1552
 30
0.0
 10
1.30979
 20
13.1552
 30
0.0
 10
1.30979
 20
13.1552
 30
0.0
 10
1.22851
 20
13.1552
 30
0.0
 10
1.16459
 20
13.18462
 30
0.0
 10
1.11802
 20
13.24368
 30
0.0
 10
1.11802
 20
13.24368
 30
0.0
 10
1.07145
 20
13.30273
 30
0.0
 10
1.04817
 20
13.38338
 30
0.0
 10
1.04817
 20
13.48561
 30
0.0
 10
1.04817
 20
13.48561
 30
0.0
 10
1.04817
 20
13.59737
 30
0.0
 10
1.07463
 20
13.68733
 30
0.0
 10
1.12733
 20
13.75549
 30
0.0
 10
1.12733
 20
13.75549
 30
0.0
 10
1.18025
 20
13.82343
 30
0.0
 10
1.24968
 20
13.85751
 30
0.0
 10
1.33583
 20
13.85751
 30
0.0
 10
1.33583
 20
13.85751
 30
0.0
 10
1.41562
 20
13.85751
 30
0.0
 10
1.48209
 20
13.82703
 30
0.0
 10
1.53458
 20
13.76586
 30
0.0
 10
1.53458
 20
13.76586
 30
0.0
 10
1.53458
 20
13.76586
 30
0.0
 10
1.53458
 20
14.14961
 30
0.0
 10
1.53458
 20
14.14961
 30
0.0
 10
1.53458
 20
14.14961
 30
0.0
 10
1.53458
 20
14.14961
 30
0.0
 10
1.6565
 20
14.14961
 30
0.0
 10
1.6565
 20
14.14961
 30
0.0
 10
1.6565
 20
14.14961
 30
0.0
 10
1.6565
 20
14.14961
 30
0.0
 10
1.6565
 20
13.17044
 30
0.0
 10
1.6565
 20
13.17044
 30
0.0
 10
1.6565
 20
13.17044
 30
0.0
 10
1.6565
 20
13.17044
 30
0.0
 10
1.53458
 20
13.17044
 30
0.0
 10
1.53458
 20
13.17044
 30
0.0
  0
SPLINE
  5
60
330
1F
100
AcDbEntity
  8
Layer 1
100
AcDbSpline
210
0.0
220
0.0
230
1.0
 70
    11
 71
     3
 72
    28
 73
    24
 74
     0
 42
0.0000000001
 43
0.0000000001
 12
1.0
 22
0.0
 32
0.0
 13
1.0
 23
0.0
 33
0.0
 40
0.0
 40
0.0
 40
0.0
 40
0.0
 40
0.1428571428571428
 40
0.1428571428571428
 40
0.1428571428571428
 40
0.1428571428571428
 40
0.2857142857142857
 40
0.2857142857142857
 40
0.2857142857142857
 40
0.2857142857142857
 40
0.4285714285714285
 40
0.4285714285714285
 40
0.4285714285714285
 40
0.4285714285714285
 40
0.5714285714285714
 40
0.5714285714285714
 40
0.5714285714285714
 40
0.5714285714285714
 40
0.7142857142857143
 40
0.7142857142857143
 40
0.7142857142857143
 40
0.7142857142857143
 40
1.0
 40
1.0
 40
1.0
 40
1.0
 10
1.53458
 20
13.68246
 30
0.0
 10
1.47129
 20
13.73813
 30
0.0
 10
1.41139
 20
13.76607
 30
0.0
 10
1.35466
 20
13.76607
 30
0.0
 10
1.35466
 20
13.76607
 30
0.0
 10
1.29878
 20
13.76607
 30
0.0
 10
1.2556
 20
13.74279
 30
0.0
 10
1.22491
 20
13.69601
 30
0.0
 10
1.22491
 20
13.69601
 30
0.0
 10
1.19422
 20
13.64944
 30
0.0
 10
1.17898
 20
13.5834
 30
0.0
 10
1.17898
 20
13.49789
 30
0.0
 10
1.17898
 20
13.49789
 30
0.0
 10
1.17898
 20
13.34062
 30
0.0
 10
1.23105
 20
13.26188
 30
0.0
 10
1.3354
 20
13.26188
 30
0.0
 10
1.3354
 20
13.26188
 30
0.0
 10
1.40314
 20
13.26188
 30
0.0
 10
1.4696
 20
13.29892
 30
0.0
 10
1.53458
 20
13.37279
 30
0.0
 10
1.53458
 20
13.37279
 30
0.0
 10
1.53458
 20
13.37279
 30
0.0
 10
1.53458
 20
13.68246
 30
0.0
 10
1.53458
 20
13.68246
 30
0.0
  0
SPLINE
  5
61
330
1F
100
AcDbEntity
  8
Layer 1
100
AcDbSpline
210
0.0
220
0.0
230
1.0
 70
    11
 71
     3
 72
    36
 73
    32
 74
     0
 42
0.0000000001
 43
0.0000000001
 12
1.0
 22
0.0
 32
0.0
 13
1.0
 23
0.0
 33
0.0
 40
0.0
 40
0.0
 40
0.0
 40
0.0
 40
0.1111111111111111
 40
0.1111111111111111
 40
0.1111111111111111
 40
0.1111111111111111
 40
0.2222222222222222
 40
0.2222222222222222
 40
0.2222222222222222
 40
0.2222222222222222
 40
0.3333333333333333
 40
0.3333333333333333
 40
0.3333333333333333
 40
0.3333333333333333
 40
0.4444444444444444
 40
0.4444444444444444
 40
0.4444444444444444
 40
0.4444444444444444
 40
0.5555555555555556
 40
0.5555555555555556
 40
0.5555555555555556
 40
0.5555555555555556
 40
0.6666666666666666
 40
0.6666666666666666
 40
0.6666666666666666
 40
0.6666666666666666
 40
0.7777777777777778
 40
0.7777777777777778
 40
0.7777777777777778
 40
0.7777777777777778
 40
1.0
 40
1.0
 40
1.0
 40
1.0
 10
2.16873
 20
13.1552
 30
0.0
 10
2.06988
 20
13.1552
 30
0.0
 10
1.99157
 20
13.18674
 30
0.0
 10
1.93399
 20
13.24982
 30
0.0
 10
1.93399
 20
13.24982
 30
0.0
 10
1.87621
 20
13.31289
 30
0.0
 10
1.84742
 20
13.39862
 30
0.0
 10
1.84742
 20
13.50678
 30
0.0
 10
1.84742
 20
13.50678
 30
0.0
 10
1.84742
 20
13.61473
 30
0.0
 10
1.87621
 20
13.70024
 30
0.0
 10
1.93399
 20
13.76311
 30
0.0
 10
1.93399
 20
13.76311
 30
0.0
 10
1.99157
 20
13.82597
 30
0.0
 10
2.06988
 20
13.85751
 30
0.0
 10
2.16873
 20
13.85751
 30
0.0
 10
2.16873
 20
13.85751
 30
0.0
 10
2.26758
 20
13.85751
 30
0.0
 10
2.3459
 20
13.82597
 30
0.0
 10
2.40347
 20
13.76311
 30
0.0
 10
2.40347
 20
13.76311
 30
0.0
 10
2.46125
 20
13.70024
 30
0.0
 10
2.49004
 20
13.61473
 30
0.0
 10
2.49004
 20
13.50678
 30
0.0
 10
2.49004
 20
13.50678
 30
0.0
 10
2.49004
 20
13.39862
 30
0.0
 10
2.46125
 20
13.31289
 30
0.0
 10
2.40347
 20
13.24982
 30
0.0
 10
2.40347
 20
13.24982
 30
0.0
 10
2.3459
 20
13.18674
 30
0.0
 10
2.26758
 20
13.1552
 30
0.0
 10
2.16873
 20
13.1552
 30
0.0
  0
SPLINE
  5
62
330
1F
100
AcDbEntity
  8
Layer 1
100
AcDbSpline
210
0.0
220
0.0
230
1.0
 70
    11
 71
     3
 72
    36
 73
    32
 74
     0
 42
0.0000000001
 43
0.0000000001
 12
1.0
 22
0.0
 32
0.0
 13
1.0
 23
0.0
 33
0.0
 40
0.0
 40
0.0
 40
0.0
 40
0.0
 40
0.1111111111111111
 40
0.1111111111111111
 40
0.1111111111111111
 40
0.1111111111111111
 40
0.2222222222222222
 40
0.2222222222222222
 40
0.2222222222222222
 40
0.2222222222222222
 40
0.3333333333333333
 40
0.3333333333333333
 40
0.3333333333333333
 40
0.3333333333333333
 40
0.4444444444444444
 40
0.4444444444444444
 40
0.4444444444444444
 40
0.4444444444444444
 40
0.5555555555555556
 40
0.5555555555555556
 40
0.5555555555555556
 40
0.5555555555555556
 40
0.6666666666666666
 40
0.6666666666666666
 40
0.6666666666666666
 40
0.6666666666666666
 40
0.7777777777777778
 40
0.7777777777777778
 40
0.7777777777777778
 40
0.7777777777777778
 40
1.0
 40
1.0
 40
1.0
 40
1.0
 10
2.16852
 20
13.24664
 30
0.0
 10
2.22884
 20
13.24664
 30
0.0
 10
2.27583
 20
13.26929
 30
0.0
 10
2.30928
 20
13.3148
 30
0.0
 10
2.30928
 20
13.3148
 30
0.0
 10
2.34251
 20
13.36009
 30
0.0
 10
2.35923
 20
13.42423
 30
0.0
 10
2.35923
 20
13.50678
 30
0.0
 10
2.35923
 20
13.50678
 30
0.0
 10
2.35923
 20
13.58912
 30
0.0
 10
2.34251
 20
13.65304
 30
0.0
 10
2.30928
 20
13.69834
 30
0.0
 10
2.30928
 20
13.69834
 30
0.0
 10
2.27583
 20
13.74342
 30
0.0
 10
2.22884
 20
13.76607
 30
0.0
 10
2.16852
 20
13.76607
 30
0.0
 10
2.16852
 20
13.76607
 30
0.0
 10
2.10798
 20
13.76607
 30
0.0
 10
2.06099
 20
13.74342
 30
0.0
 10
2.02797
 20
13.69834
 30
0.0
 10
2.02797
 20
13.69834
 30
0.0
 10
1.99474
 20
13.65304
 30
0.0
 10
1.97823
 20
13.58912
 30
0.0
 10
1.97823
 20
13.50678
 30
0.0
 10
1.97823
 20
13.50678
 30
0.0
 10
1.97823
 20
13.42423
 30
0.0
 10
1.99474
 20
13.36009
 30
0.0
 10
2.02797
 20
13.3148
 30
0.0
 10
2.02797
 20
13.3148
 30
0.0
 10
2.06099
 20
13.26929
 30
0.0
 10
2.10798
 20
13.24664
 30
0.0
 10
2.16852
 20
13.24664
 30
0.0
  0
SPLINE
  5
63
330
1F
100
AcDbEntity
  8
Layer 1
100
AcDbSpline
210
0.0
220
0.0
230
1.0
 70
    11
 71
     3
 72
    36
 73
    32
 74
     0
 42
0.0000000001
 43
0.0000000001
 12
1.0
 22
0.0
 32
0.0
 13
1.0
 23
0.0
 33
0.0
 40
0.0
 40
0.0
 40
0.0
 40
0.0
 40
0.1111111111111111
 40
0.1111111111111111
 40
0.1111111111111111
 40
0.1111111111111111
 40
0.2222222222222222
 40
0.2222222222222222
 40
0.2222222222222222
 40
0.2222222222222222
 40
0.3333333333333333
 40
0.3333333333333333
 40
0.3333333333333333
 40
0.3333333333333333
 40
0.4444444444444444
 40
0.4444444444444444
 40
0.4444444444444444
 40
0.4444444444444444
 40
0.5555555555555556
 40
0.5555555555555556
 40
0.5555555555555556
 40
0.5555555555555556
 40
0.6666666666666666
 40
0.6666666666666666
 40
0.6666666666666666
 40
0.6666666666666666
 40
0.7777777777777778
 40
0.7777777777777778
 40
0.7777777777777778
 40
0.7777777777777778
 40
1.0
 40
1.0
 40
1.0
 40
1.0
 10
2.94893
 20
13.1552
 30
0.0
 10
2.85008
 20
13.1552
 30
0.0
 10
2.77177
 20
13.18674
 30
0.0
 10
2.71419
 20
13.24982
 30
0.0
 10
2.71419
 20
13.24982
 30
0.0
 10
2.65641
 20
13.31289
 30
0.0
 10
2.62762
 20
13.39862
 30
0.0
 10
2.62762
 20
13.50678
 30
0.0
 10
2.62762
 20
13.50678
 30
0.0
 10
2.62762
 20
13.61473
 30
0.0
 10
2.65641
 20
13.70024
 30
0.0
 10
2.71419
 20
13.76311
 30
0.0
 10
2.71419
 20
13.76311
 30
0.0
 10
2.77177
 20
13.82597
 30
0.0
 10
2.85008
 20
13.85751
 30
0.0
 10
2.94893
 20
13.85751
 30
0.0
 10
2.94893
 20
13.85751
 30
0.0
 10
3.04778
 20
13.85751
 30
0.0
 10
3.1261
 20
13.82597
 30
0.0
 10
3.18367
 20
13.76311
 30
0.0
 10
3.18367
 20
13.76311
 30
0.0
 10
3.24145
 20
13.70024
 30
0.0
 10
3.27024
 20
13.61473
 30
0.0
 10
3.27024
 20
13.50678
 30
0.0
 10
3.27024
 20
13.50678
 30
0.0
 10
3.27024
 20
13.39862
 30
0.0
 10
3.24145
 20
13.31289
 30
0.0
 10
3.18367
 20
13.24982
 30
0.0
 10
3.18367
 20
13.24982
 30
0.0
 10
3.1261
 20
13.18674
 30
0.0
 10
3.04778
 20
13.1552
 30
0.0
 10
2.94893
 20
13.1552
 30
0.0
  0
SPLINE
  5
64
330
1F
100
AcDbEntity
  8
Layer 1
100
AcDbSpline
210
0.0
220
0.0
230
1.0
 70
    11
 71
     3
 72
    36
 73
    32
 74
     0
 42
0.0000000001
 43
0.0000000001
 12
1.0
 22
0.0
 32
0.0
 13
1.0
 23
0.0
 33
0.0
 40
0.0
 40
0.0
 40
0.0
 40
0.0
 40
0.1111111111111111
 40
0.1111111111111111
 40
0.1111111111111111
 40
0.1111111111111111
 40
0.2222222222222222
 40
0.2222222222222222
 40
0.2222222222222222
 40
0.2222222222222222
 40
0.3333333333333333
 40
0.3333333333333333
 40
0.3333333333333333
 40
0.3333333333333333
 40
0.4444444444444444
 40
0.4444444444444444
 40
0.4444444444444444
 40
0.4444444444444444
 40
0.5555555555555556
 40
0.5555555555555556
 40
0.5555555555555556
 40
0.5555555555555556
 40
0.6666666666666666
 40
0.6666666666666666
 40
0.6666666666666666
 40
0.6666666666666666
 40
0.7777777777777778
 40
0.7777777777777778
 40
0.7777777777777778
 40
0.7777777777777778
 40
1.0
 40
1.0
 40
1.0
 40
1.0
 10
2.94872
 20
13.24664
 30
0.0
 10
3.00904
 20
13.24664
 30
0.0
 10
3.05603
 20
13.26929
 30
0.0
 10
3.08948
 20
13.3148
 30
0.0
 10
3.08948
 20
13.3148
 30
0.0
 10
3.12271
 20
13.36009
 30
0.0
 10
3.13943
 20
13.42423
 30
0.0
 10
3.13943
 20
13.50678
 30
0.0
 10
3.13943
 20
13.50678
 30
0.0
 10
3.13943
 20
13.58912
 30
0.0
 10
3.12271
 20
13.65304
 30
0.0
 10
3.08948
 20
13.69834
 30
0.0
 10
3.08948
 20
13.69834
 30
0.0
 10
3.05603
 20
13.74342
 30
0.0
 10
3.00904
 20
13.76607
 30
0.0
 10
2.94872
 20
13.76607
 30
0.0
 10
2.94872
 20
13.76607
 30
0.0
 10
2.88818
 20
13.76607
 30
0.0
 10
2.84119
 20
13.74342
 30
0.0
 10
2.80817
 20
13.69834
 30
0.0
 10
2.80817
 20
13.69834
 30
0.0
 10
2.77494
 20
13.65304
 30
0.0
 10
2.75843
 20
13.58912
 30
0.0
 10
2.75843
 20
13.50678
 30
0.0
 10
2.75843
 20
13.50678
 30
0.0
 10
2.75843
 20
13.42423
 30
0.0
 10
2.77494
 20
13.36009
 30
0.0
 10
2.80817
 20
13.3148
 30
0.0
 10
2.80817
 20
13.3148
 30
0.0
 10
2.84119
 20
13.26929
 30
0.0
 10
2.88818
 20
13.24664
 30
0.0
 10
2.94872
 20
13.24664
 30
0.0
  0
SPLINE
  5
65
330
1F
100
AcDbEntity
  8
Layer 1
100
AcDbSpline
210
0.0
220
0.0
230
1.0
 70
    11
 71
     3
 72
    44
 73
    40
 74
     0
 42
0.0000000001
 43
0.0000000001
 12
1.0
 22
0.0
 32
0.0
 13
1.0
 23
0.0
 33
0.0
 40
0.0
 40
0.0
 40
0.0
 40
0.0
 40
0.0909090909090909
 40
0.0909090909090909
 40
0.0909090909090909
 40
0.0909090909090909
 40
0.1818181818181818
 40
0.1818181818181818
 40
0.1818181818181818
 40
0.1818181818181818
 40
0.2727272727272727
 40
0.2727272727272727
 40
0.2727272727272727
 40
0.2727272727272727
 40
0.3636363636363636
 40
0.3636363636363636
 40
0.3636363636363636
 40
0.3636363636363636
 40
0.4545454545454545
 40
0.4545454545454545
 40
0.4545454545454545
 40
0.4545454545454545
 40
0.5454545454545454
 40
0.5454545454545454
 40
0.5454545454545454
 40
0.5454545454545454
 40
0.6363636363636364
 40
0.6363636363636364
 40
0.6363636363636364
 40
0.6363636363636364
 40
0.7272727272727273
 40
0.7272727272727273
 40
0.7272727272727273
 40
0.7272727272727273
 40
0.8181818181818182
 40
0.8181818181818182
 40
0.8181818181818182
 40
0.8181818181818182
 40
1.0
 40
1.0
 40
1.0
 40
1.0
 10
3.46116
 20
13.17044
 30
0.0
 10
3.46116
 20
13.17044
 30
0.0
 10
3.46116
 20
13.84354
 30
0.0
 10
3.46116
 20
13.84354
 30
0.0
 10
3.46116
 20
13.84354
 30
0.0
 10
3.46116
 20
13.84354
 30
0.0
 10
3.58308
 20
13.84354
 30
0.0
 10
3.58308
 20
13.84354
 30
0.0
 10
3.58308
 20
13.84354
 30
0.0
 10
3.58308
 20
13.84354
 30
0.0
 10
3.58308
 20
13.71633
 30
0.0
 10
3.58308
 20
13.71633
 30
0.0
 10
3.58308
 20
13.71633
 30
0.0
 10
3.63155
 20
13.81052
 30
0.0
 10
3.70183
 20
13.85751
 30
0.0
 10
3.79411
 20
13.85751
 30
0.0
 10
3.79411
 20
13.85751
 30
0.0
 10
3.8066
 20
13.85751
 30
0.0
 10
3.81972
 20
13.85645
 30
0.0
 10
3.83327
 20
13.85434
 30
0.0
 10
3.83327
 20
13.85434
 30
0.0
 10
3.83327
 20
13.85434
 30
0.0
 10
3.83327
 20
13.74025
 30
0.0
 10
3.83327
 20
13.74025
 30
0.0
 10
3.83327
 20
13.74025
 30
0.0
 10
3.8121
 20
13.74723
 30
0.0
 10
3.79348
 20
13.75083
 30
0.0
 10
3.77739
 20
13.75083
 30
0.0
 10
3.77739
 20
13.75083
 30
0.0
 10
3.69992
 20
13.75083
 30
0.0
 10
3.63515
 20
13.70511
 30
0.0
 10
3.58308
 20
13.61346
 30
0.0
 10
3.58308
 20
13.61346
 30
0.0
 10
3.58308
 20
13.61346
 30
0.0
 10
3.58308
 20
13.17044
 30
0.0
 10
3.58308
 20
13.17044
 30
0.0
 10
3.58308
 20
13.17044
 30
0.0
 10
3.58308
 20
13.17044
 30
0.0
 10
3.46116
 20
13.17044
 30
0.0
 10
3.46116
 20
13.17044
 30
0.0
  0
SPLINE
  5
66
330
1F
100
AcDbEntity
  8
Layer 1
100
AcDbSpline
210
0.0
220
0.0
230
1.0
 70
    11
 71
     3
 72
    20
 73
    16
 74
     0
 42
0.0000000001
 43
0.0000000001
 12
1.0
 22
0.0
 32
0.0
 13
1.0
 23
0.0
 33
0.0
 40
0.0
 40
0.0
 40
0.0
 40
0.0
 40
0.2
 40
0.2
 40
0.2
 40
0.2
 40
0.4
 40
0.4
 40
0.4
 40
0.4
 40
0.6
 40
0.6
 40
0.6
 40
0.6
 40
1.0
 40
1.0
 40
1.0
 40
1.0
 10
3.91222
 20
13.079
 30
0.0
 10
3.91222
 20
13.079
 30
0.0
 10
3.91222
 20
13.17044
 30
0.0
 10
3.91222
 20
13.17044
 30
0.0
 10
3.91222
 20
13.17044
 30
0.0
 10
3.91222
 20
13.17044
 30
0.0
 10
4.44054
 20
13.17044
 30
0.0
 10
4.44054
 20
13.17044
 30
0.0
 10
4.44054
 20
13.17044
 30
0.0
 10
4.44054
 20
13.17044
 30
0.0
 10
4.44054
 20
13.079
 30
0.0
 10
4.44054
 20
13.079
 30
0.0
 10
4.44054
 20
13.079
 30
0.0
 10
4.44054
 20
13.079
 30
0.0
 10
3.91222
 20
13.079
 30
0.0
 10
3.91222
 20
13.079
 30
0.0
  0
SPLINE
  5
67
330
1F
100
AcDbEntity
  8
Layer 1
100
AcDbSpline
210
0.0
220
0.0
230
1.0
 70
    11
 71
     3
 72
    20
 73
    16
 74
     0
 42
0.0000000001
 43
0.0000000001
 12
1.0
 22
0.0
 32
0.0
 13
1.0
 23
0.0
 33
0.0
 40
0.0
 40
0.0
 40
0.0
 40
0.0
 40
0.2
 40
0.2
 40
0.2
 40
0.2
 40
0.4
 40
0.4
 40
0.4
 40
0.4
 40
0.6
 40
0.6
 40
0.6
 40
0.6
 40
1.0
 40
1.0
 40
1.0
 40
1.0
 10
4.6158
 20
13.17044
 30
0.0
 10
4.6158
 20
13.17044
 30
0.0
 10
4.6158
 20
14.14961
 30
0.0
 10
4.6158
 20
14.14961
 30
0.0
 10
4.6158
 20
14.14961
 30
0.0
 10
4.6158
 20
14.14961
 30
0.0
 10
4.73772
 20
14.14961
 30
0.0
 10
4.73772
 20
14.14961
 30
0.0
 10
4.73772
 20
14.14961
 30
0.0
 10
4.73772
 20
14.14961
 30
0.0
 10
4.73772
 20
13.17044
 30
0.0
 10
4.73772
 20
13.17044
 30
0.0
 10
4.73772
 20
13.17044
 30
0.0
 10
4.73772
 20
13.17044
 30
0.0
 10
4.6158
 20
13.17044
 30
0.0
 10
4.6158
 20
13.17044
 30
0.0
  0
SPLINE
  5
68
330
1F
100
AcDbEntity
  8
Layer 1
100
AcDbSpline
210
0.0
220
0.0
230
1.0
 70
    11
 71
     3
 72
    80
 73
    76
 74
     0
 42
0.0000000001
 43
0.0000000001
 12
1.0
 22
0.0
 32
0.0
 13
1.0
 23
0.0
 33
0.0
 40
0.0
 40
0.0
 40
0.0
 40
0.0
 40
0.05
 40
0.05
 40
0.05
 40
0.05
 40
0.1
 40
0.1
 40
0.1
 40
0.1
 40
0.15
 40
0.15
 40
0.15
 40
0.15
 40
0.2
 40
0.2
 40
0.2
 40
0.2
 40
0.25
 40
0.25
 40
0.25
 40
0.25
 40
0.3
 40
0.3
 40
0.3
 40
0.3
 40
0.35
 40
0.35
 40
0.35
 40
0.35
 40
0.4
 40
0.4
 40
0.4
 40
0.4
 40
0.45
 40
0.45
 40
0.45
 40
0.45
 40
0.5
 40
0.5
 40
0.5
 40
0.5
 40
0.55
 40
0.55
 40
0.55
 40
0.55
 40
0.6
 40
0.6
 40
0.6
 40
0.6
 40
0.65
 40
0.65
 40
0.65
 40
0.65
 40
0.7
 40
0.7
 40
0.7
 40
0.7
 40
0.75
 40
0.75
 40
0.75
 40
0.75
 40
0.8
 40
0.8
 40
0.8
 40
0.8
 40
0.85
 40
0.85
 40
0.85
 40
0.85
 40
0.9
 40
0.9
 40
0.9
 40
0.9
 40
1.0
 40
1.0
 40
1.0
 40
1.0
 10
5.32975
 20
13.25617
 30
0.0
 10
5.25652
 20
13.18886
 30
0.0
 10
5.18603
 20
13.1552
 30
0.0
 10
5.1183
 20
13.1552
 30
0.0
 10
5.1183
 20
13.1552
 30
0.0
 10
5.06263
 20
13.1552
 30
0.0
 10
5.01627
 20
13.17256
 30
0.0
 10
4.97966
 20
13.20748
 30
0.0
 10
4.97966
 20
13.20748
 30
0.0
 10
4.94283
 20
13.24241
 30
0.0
 10
4.92441
 20
13.28643
 30
0.0
 10
4.92441
 20
13.33956
 30
0.0
 10
4.92441
 20
13.33956
 30
0.0
 10
4.92441
 20
13.41301
 30
0.0
 10
4.95531
 20
13.46953
 30
0.0
 10
5.01712
 20
13.5089
 30
0.0
 10
5.01712
 20
13.5089
 30
0.0
 10
5.07893
 20
13.54827
 30
0.0
 10
5.16762
 20
13.56795
 30
0.0
 10
5.28319
 20
13.56795
 30
0.0
 10
5.28319
 20
13.56795
 30
0.0
 10
5.28319
 20
13.56795
 30
0.0
 10
5.31176
 20
13.56795
 30
0.0
 10
5.31176
 20
13.56795
 30
0.0
 10
5.31176
 20
13.56795
 30
0.0
 10
5.31176
 20
13.56795
 30
0.0
 10
5.31176
 20
13.64902
 30
0.0
 10
5.31176
 20
13.64902
 30
0.0
 10
5.31176
 20
13.64902
 30
0.0
 10
5.31176
 20
13.72712
 30
0.0
 10
5.27112
 20
13.76607
 30
0.0
 10
5.18963
 20
13.76607
 30
0.0
 10
5.18963
 20
13.76607
 30
0.0
 10
5.12655
 20
13.76607
 30
0.0
 10
5.05755
 20
13.74617
 30
0.0
 10
4.98283
 20
13.70638
 30
0.0
 10
4.98283
 20
13.70638
 30
0.0
 10
4.98283
 20
13.70638
 30
0.0
 10
4.98283
 20
13.80671
 30
0.0
 10
4.98283
 20
13.80671
 30
0.0
 10
4.98283
 20
13.80671
 30
0.0
 10
5.06496
 20
13.84058
 30
0.0
 10
5.14243
 20
13.85751
 30
0.0
 10
5.21503
 20
13.85751
 30
0.0
 10
5.21503
 20
13.85751
 30
0.0
 10
5.28975
 20
13.85751
 30
0.0
 10
5.34499
 20
13.84058
 30
0.0
 10
5.38034
 20
13.8065
 30
0.0
 10
5.38034
 20
13.8065
 30
0.0
 10
5.4159
 20
13.77242
 30
0.0
 10
5.43368
 20
13.71993
 30
0.0
 10
5.43368
 20
13.64902
 30
0.0
 10
5.43368
 20
13.64902
 30
0.0
 10
5.43368
 20
13.64902
 30
0.0
 10
5.43368
 20
13.34485
 30
0.0
 10
5.43368
 20
13.34485
 30
0.0
 10
5.43368
 20
13.34485
 30
0.0
 10
5.43368
 20
13.27522
 30
0.0
 10
5.45506
 20
13.24029
 30
0.0
 10
5.49803
 20
13.24029
 30
0.0
 10
5.49803
 20
13.24029
 30
0.0
 10
5.50332
 20
13.24029
 30
0.0
 10
5.51115
 20
13.24114
 30
0.0
 10
5.52152
 20
13.24283
 30
0.0
 10
5.52152
 20
13.24283
 30
0.0
 10
5.52152
 20
13.24283
 30
0.0
 10
5.5302
 20
13.1751
 30
0.0
 10
5.5302
 20
13.1751
 30
0.0
 10
5.5302
 20
13.1751
 30
0.0
 10
5.50247
 20
13.16176
 30
0.0
 10
5.47199
 20
13.1552
 30
0.0
 10
5.43855
 20
13.1552
 30
0.0
 10
5.43855
 20
13.1552
 30
0.0
 10
5.38161
 20
13.1552
 30
0.0
 10
5.34542
 20
13.18886
 30
0.0
 10
5.32975
 20
13.25617
 30
0.0
  0
SPLINE
  5
69
330
1F
100
AcDbEntity
  8
Layer 1
100
AcDbSpline
210
0.0
220
0.0
230
1.0
 70
    11
 71
     3
 72
    32
 73
    28
 74
     0
 42
0.0000000001
 43
0.0000000001
 12
1.0
 22
0.0
 32
0.0
 13
1.0
 23
0.0
 33
0.0
 40
0.0
 40
0.0
 40
0.0
 40
0.0
 40
0.125
 40
0.125
 40
0.125
 40
0.125
 40
0.25
 40
0.25
 40
0.25
 40
0.25
 40
0.375
 40
0.375
 40
0.375
 40
0.375
 40
0.5
 40
0.5
 40
0.5
 40
0.5
 40
0.625
 40
0.625
 40
0.625
 40
0.625
 40
0.75
 40
0.75
 40
0.75
 40
0.75
 40
1.0
 40
1.0
 40
1.0
 40
1.0
 10
5.31176
 20
13.32263
 30
0.0
 10
5.31176
 20
13.32263
 30
0.0
 10
5.31176
 20
13.49556
 30
0.0
 10
5.31176
 20
13.49556
 30
0.0
 10
5.31176
 20
13.49556
 30
0.0
 10
5.31176
 20
13.49556
 30
0.0
 10
5.2726
 20
13.49683
 30
0.0
 10
5.2726
 20
13.49683
 30
0.0
 10
5.2726
 20
13.49683
 30
0.0
 10
5.20487
 20
13.49683
 30
0.0
 10
5.15026
 20
13.48434
 30
0.0
 10
5.10856
 20
13.45937
 30
0.0
 10
5.10856
 20
13.45937
 30
0.0
 10
5.06707
 20
13.43418
 30
0.0
 10
5.04633
 20
13.40095
 30
0.0
 10
5.04633
 20
13.35946
 30
0.0
 10
5.04633
 20
13.35946
 30
0.0
 10
5.04633
 20
13.33046
 30
0.0
 10
5.0567
 20
13.30591
 30
0.0
 10
5.07723
 20
13.2858
 30
0.0
 10
5.07723
 20
13.2858
 30
0.0
 10
5.09798
 20
13.26569
 30
0.0
 10
5.12317
 20
13.25553
 30
0.0
 10
5.15301
 20
13.25553
 30
0.0
 10
5.15301
 20
13.25553
 30
0.0
 10
5.20381
 20
13.25553
 30
0.0
 10
5.25673
 20
13.27797
 30
0.0
 10
5.31176
 20
13.32263
 30
0.0
  0
SPLINE
  5
6A
330
1F
100
AcDbEntity
  8
Layer 1
100
AcDbSpline
210
0.0
220
0.0
230
1.0
 70
    11
 71
     3
 72
    72
 73
    68
 74
     0
 42
0.0000000001
 43
0.0000000001
 12
1.0
 22
0.0
 32
0.0
 13
1.0
 23
0.0
 33
0.0
 40
0.0
 40
0.0
 40
0.0
 40
0.0
 40
0.0555555555555556
 40
0.0555555555555556
 40
0.0555555555555556
 40
0.0555555555555556
 40
0.1111111111111111
 40
0.1111111111111111
 40
0.1111111111111111
 40
0.1111111111111111
 40
0.1666666666666667
 40
0.1666666666666667
 40
0.1666666666666667
 40
0.1666666666666667
 40
0.2222222222222222
 40
0.2222222222222222
 40
0.2222222222222222
 40
0.2222222222222222
 40
0.2777777777777778
 40
0.2777777777777778
 40
0.2777777777777778
 40
0.2777777777777778
 40
0.3333333333333333
 40
0.3333333333333333
 40
0.3333333333333333
 40
0.3333333333333333
 40
0.3888888888888889
 40
0.3888888888888889
 40
0.3888888888888889
 40
0.3888888888888889
 40
0.4444444444444444
 40
0.4444444444444444
 40
0.4444444444444444
 40
0.4444444444444444
 40
0.5
 40
0.5
 40
0.5
 40
0.5
 40
0.5555555555555556
 40
0.5555555555555556
 40
0.5555555555555556
 40
0.5555555555555556
 40
0.6111111111111112
 40
0.6111111111111112
 40
0.6111111111111112
 40
0.6111111111111112
 40
0.6666666666666666
 40
0.6666666666666666
 40
0.6666666666666666
 40
0.6666666666666666
 40
0.7222222222222222
 40
0.7222222222222222
 40
0.7222222222222222
 40
0.7222222222222222
 40
0.7777777777777778
 40
0.7777777777777778
 40
0.7777777777777778
 40
0.7777777777777778
 40
0.8333333333333334
 40
0.8333333333333334
 40
0.8333333333333334
 40
0.8333333333333334
 40
0.8888888888888888
 40
0.8888888888888888
 40
0.8888888888888888
 40
0.8888888888888888
 40
1.0
 40
1.0
 40
1.0
 40
1.0
 10
5.98507
 20
13.17065
 30
0.0
 10
5.94739
 20
13.16028
 30
0.0
 10
5.91459
 20
13.1552
 30
0.0
 10
5.88686
 20
13.1552
 30
0.0
 10
5.88686
 20
13.1552
 30
0.0
 10
5.82463
 20
13.1552
 30
0.0
 10
5.77616
 20
13.17298
 30
0.0
 10
5.74144
 20
13.20854
 30
0.0
 10
5.74144
 20
13.20854
 30
0.0
 10
5.70652
 20
13.2441
 30
0.0
 10
5.68916
 20
13.29342
 30
0.0
 10
5.68916
 20
13.35671
 30
0.0
 10
5.68916
 20
13.35671
 30
0.0
 10
5.68916
 20
13.35671
 30
0.0
 10
5.68916
 20
13.7521
 30
0.0
 10
5.68916
 20
13.7521
 30
0.0
 10
5.68916
 20
13.7521
 30
0.0
 10
5.68916
 20
13.7521
 30
0.0
 10
5.60492
 20
13.7521
 30
0.0
 10
5.60492
 20
13.7521
 30
0.0
 10
5.60492
 20
13.7521
 30
0.0
 10
5.60492
 20
13.7521
 30
0.0
 10
5.60492
 20
13.84354
 30
0.0
 10
5.60492
 20
13.84354
 30
0.0
 10
5.60492
 20
13.84354
 30
0.0
 10
5.60492
 20
13.84354
 30
0.0
 10
5.68916
 20
13.84354
 30
0.0
 10
5.68916
 20
13.84354
 30
0.0
 10
5.68916
 20
13.84354
 30
0.0
 10
5.68916
 20
13.84354
 30
0.0
 10
5.68916
 20
13.96525
 30
0.0
 10
5.68916
 20
13.96525
 30
0.0
 10
5.68916
 20
13.96525
 30
0.0
 10
5.68916
 20
13.96525
 30
0.0
 10
5.81108
 20
13.97689
 30
0.0
 10
5.81108
 20
13.97689
 30
0.0
 10
5.81108
 20
13.97689
 30
0.0
 10
5.81108
 20
13.97689
 30
0.0
 10
5.81108
 20
13.84354
 30
0.0
 10
5.81108
 20
13.84354
 30
0.0
 10
5.81108
 20
13.84354
 30
0.0
 10
5.81108
 20
13.84354
 30
0.0
 10
5.98761
 20
13.84354
 30
0.0
 10
5.98761
 20
13.84354
 30
0.0
 10
5.98761
 20
13.84354
 30
0.0
 10
5.98761
 20
13.84354
 30
0.0
 10
5.98761
 20
13.7521
 30
0.0
 10
5.98761
 20
13.7521
 30
0.0
 10
5.98761
 20
13.7521
 30
0.0
 10
5.98761
 20
13.7521
 30
0.0
 10
5.81108
 20
13.7521
 30
0.0
 10
5.81108
 20
13.7521
 30
0.0
 10
5.81108
 20
13.7521
 30
0.0
 10
5.81108
 20
13.7521
 30
0.0
 10
5.81108
 20
13.37872
 30
0.0
 10
5.81108
 20
13.37872
 30
0.0
 10
5.81108
 20
13.37872
 30
0.0
 10
5.81108
 20
13.29067
 30
0.0
 10
5.84939
 20
13.24664
 30
0.0
 10
5.9258
 20
13.24664
 30
0.0
 10
5.9258
 20
13.24664
 30
0.0
 10
5.9421
 20
13.24664
 30
0.0
 10
5.96179
 20
13.24939
 30
0.0
 10
5.98507
 20
13.25468
 30
0.0
 10
5.98507
 20
13.25468
 30
0.0
 10
5.98507
 20
13.25468
 30
0.0
 10
5.98507
 20
13.17065
 30
0.0
 10
5.98507
 20
13.17065
 30
0.0
  0
SPLINE
  5
6B
330
1F
100
AcDbEntity
  8
Layer 1
100
AcDbSpline
210
0.0
220
0.0
230
1.0
 70
    11
 71
     3
 72
    60
 73
    56
 74
     0
 42
0.0000000001
 43
0.0000000001
 12
1.0
 22
0.0
 32
0.0
 13
1.0
 23
0.0
 33
0.0
 40
0.0
 40
0.0
 40
0.0
 40
0.0
 40
0.0666666666666667
 40
0.0666666666666667
 40
0.0666666666666667
 40
0.0666666666666667
 40
0.1333333333333333
 40
0.1333333333333333
 40
0.1333333333333333
 40
0.1333333333333333
 40
0.2
 40
0.2
 40
0.2
 40
0.2
 40
0.2666666666666667
 40
0.2666666666666667
 40
0.2666666666666667
 40
0.2666666666666667
 40
0.3333333333333333
 40
0.3333333333333333
 40
0.3333333333333333
 40
0.3333333333333333
 40
0.4
 40
0.4
 40
0.4
 40
0.4
 40
0.4666666666666667
 40
0.4666666666666667
 40
0.4666666666666667
 40
0.4666666666666667
 40
0.5333333333333333
 40
0.5333333333333333
 40
0.5333333333333333
 40
0.5333333333333333
 40
0.6
 40
0.6
 40
0.6
 40
0.6
 40
0.6666666666666666
 40
0.6666666666666666
 40
0.6666666666666666
 40
0.6666666666666666
 40
0.7333333333333333
 40
0.7333333333333333
 40
0.7333333333333333
 40
0.7333333333333333
 40
0.8
 40
0.8
 40
0.8
 40
0.8
 40
0.8666666666666667
 40
0.8666666666666667
 40
0.8666666666666667
 40
0.8666666666666667
 40
1.0
 40
1.0
 40
1.0
 40
1.0
 10
6.62642
 20
13.19076
 30
0.0
 10
6.54747
 20
13.16705
 30
0.0
 10
6.47931
 20
13.1552
 30
0.0
 10
6.42195
 20
13.1552
 30
0.0
 10
6.42195
 20
13.1552
 30
0.0
 10
6.33093
 20
13.1552
 30
0.0
 10
6.25558
 20
13.18886
 30
0.0
 10
6.19568
 20
13.25595
 30
0.0
 10
6.19568
 20
13.25595
 30
0.0
 10
6.13578
 20
13.32326
 30
0.0
 10
6.10572
 20
13.40814
 30
0.0
 10
6.10572
 20
13.51038
 30
0.0
 10
6.10572
 20
13.51038
 30
0.0
 10
6.10572
 20
13.6196
 30
0.0
 10
6.13535
 20
13.7049
 30
0.0
 10
6.19462
 20
13.76586
 30
0.0
 10
6.19462
 20
13.76586
 30
0.0
 10
6.25389
 20
13.82703
 30
0.0
 10
6.33665
 20
13.85751
 30
0.0
 10
6.44291
 20
13.85751
 30
0.0
 10
6.44291
 20
13.85751
 30
0.0
 10
6.49519
 20
13.85751
 30
0.0
 10
6.55403
 20
13.85031
 30
0.0
 10
6.6188
 20
13.83592
 30
0.0
 10
6.6188
 20
13.83592
 30
0.0
 10
6.6188
 20
13.83592
 30
0.0
 10
6.6188
 20
13.73305
 30
0.0
 10
6.6188
 20
13.73305
 30
0.0
 10
6.6188
 20
13.73305
 30
0.0
 10
6.55001
 20
13.75337
 30
0.0
 10
6.49392
 20
13.76353
 30
0.0
 10
6.45074
 20
13.76353
 30
0.0
 10
6.45074
 20
13.76353
 30
0.0
 10
6.38808
 20
13.76353
 30
0.0
 10
6.33792
 20
13.74004
 30
0.0
 10
6.30045
 20
13.69326
 30
0.0
 10
6.30045
 20
13.69326
 30
0.0
 10
6.26299
 20
13.64648
 30
0.0
 10
6.24415
 20
13.58404
 30
0.0
 10
6.24415
 20
13.50614
 30
0.0
 10
6.24415
 20
13.50614
 30
0.0
 10
6.24415
 20
13.43058
 30
0.0
 10
6.26362
 20
13.36962
 30
0.0
 10
6.30236
 20
13.32284
 30
0.0
 10
6.30236
 20
13.32284
 30
0.0
 10
6.34109
 20
13.27627
 30
0.0
 10
6.39168
 20
13.25299
 30
0.0
 10
6.45455
 20
13.25299
 30
0.0
 10
6.45455
 20
13.25299
 30
0.0
 10
6.51022
 20
13.25299
 30
0.0
 10
6.56737
 20
13.26738
 30
0.0
 10
6.62642
 20
13.29617
 30
0.0
 10
6.62642
 20
13.29617
 30
0.0
 10
6.62642
 20
13.29617
 30
0.0
 10
6.62642
 20
13.19076
 30
0.0
 10
6.62642
 20
13.19076
 30
0.0
  0
SPLINE
  5
6C
330
1F
100
AcDbEntity
  8
Layer 1
100
AcDbSpline
210
0.0
220
0.0
230
1.0
 70
    11
 71
     3
 72
    60
 73
    56
 74
     0
 42
0.0000000001
 43
0.0000000001
 12
1.0
 22
0.0
 32
0.0
 13
1.0
 23
0.0
 33
0.0
 40
0.0
 40
0.0
 40
0.0
 40
0.0
 40
0.0666666666666667
 40
0.0666666666666667
 40
0.0666666666666667
 40
0.0666666666666667
 40
0.1333333333333333
 40
0.1333333333333333
 40
0.1333333333333333
 40
0.1333333333333333
 40
0.2
 40
0.2
 40
0.2
 40
0.2
 40
0.2666666666666667
 40
0.2666666666666667
 40
0.2666666666666667
 40
0.2666666666666667
 40
0.3333333333333333
 40
0.3333333333333333
 40
0.3333333333333333
 40
0.3333333333333333
 40
0.4
 40
0.4
 40
0.4
 40
0.4
 40
0.4666666666666667
 40
0.4666666666666667
 40
0.4666666666666667
 40
0.4666666666666667
 40
0.5333333333333333
 40
0.5333333333333333
 40
0.5333333333333333
 40
0.5333333333333333
 40
0.6
 40
0.6
 40
0.6
 40
0.6
 40
0.6666666666666666
 40
0.6666666666666666
 40
0.6666666666666666
 40
0.6666666666666666
 40
0.7333333333333333
 40
0.7333333333333333
 40
0.7333333333333333
 40
0.7333333333333333
 40
0.8
 40
0.8
 40
0.8
 40
0.8
 40
0.8666666666666667
 40
0.8666666666666667
 40
0.8666666666666667
 40
0.8666666666666667
 40
1.0
 40
1.0
 40
1.0
 40
1.0
 10
6.80951
 20
13.17044
 30
0.0
 10
6.80951
 20
13.17044
 30
0.0
 10
6.80951
 20
14.14961
 30
0.0
 10
6.80951
 20
14.14961
 30
0.0
 10
6.80951
 20
14.14961
 30
0.0
 10
6.80951
 20
14.14961
 30
0.0
 10
6.93143
 20
14.14961
 30
0.0
 10
6.93143
 20
14.14961
 30
0.0
 10
6.93143
 20
14.14961
 30
0.0
 10
6.93143
 20
14.14961
 30
0.0
 10
6.93143
 20
13.71633
 30
0.0
 10
6.93143
 20
13.71633
 30
0.0
 10
6.93143
 20
13.71633
 30
0.0
 10
6.99599
 20
13.81052
 30
0.0
 10
7.07515
 20
13.85751
 30
0.0
 10
7.16871
 20
13.85751
 30
0.0
 10
7.16871
 20
13.85751
 30
0.0
 10
7.22755
 20
13.85751
 30
0.0
 10
7.27433
 20
13.8391
 30
0.0
 10
7.30883
 20
13.80205
 30
0.0
 10
7.30883
 20
13.80205
 30
0.0
 10
7.34333
 20
13.76522
 30
0.0
 10
7.36069
 20
13.71548
 30
0.0
 10
7.36069
 20
13.65325
 30
0.0
 10
7.36069
 20
13.65325
 30
0.0
 10
7.36069
 20
13.65325
 30
0.0
 10
7.36069
 20
13.17044
 30
0.0
 10
7.36069
 20
13.17044
 30
0.0
 10
7.36069
 20
13.17044
 30
0.0
 10
7.36069
 20
13.17044
 30
0.0
 10
7.23877
 20
13.17044
 30
0.0
 10
7.23877
 20
13.17044
 30
0.0
 10
7.23877
 20
13.17044
 30
0.0
 10
7.23877
 20
13.17044
 30
0.0
 10
7.23877
 20
13.61346
 30
0.0
 10
7.23877
 20
13.61346
 30
0.0
 10
7.23877
 20
13.61346
 30
0.0
 10
7.23877
 20
13.66341
 30
0.0
 10
7.23136
 20
13.69897
 30
0.0
 10
7.21676
 20
13.72014
 30
0.0
 10
7.21676
 20
13.72014
 30
0.0
 10
7.20194
 20
13.74152
 30
0.0
 10
7.1776
 20
13.7521
 30
0.0
 10
7.14352
 20
13.7521
 30
0.0
 10
7.14352
 20
13.7521
 30
0.0
 10
7.06859
 20
13.7521
 30
0.0
 10
6.99789
 20
13.70321
 30
0.0
 10
6.93143
 20
13.60542
 30
0.0
 10
6.93143
 20
13.60542
 30
0.0
 10
6.93143
 20
13.60542
 30
0.0
 10
6.93143
 20
13.17044
 30
0.0
 10
6.93143
 20
13.17044
 30
0.0
 10
6.93143
 20
13.17044
 30
0.0
 10
6.93143
 20
13.17044
 30
0.0
 10
6.80951
 20
13.17044
 30
0.0
 10
6.80951
 20
13.17044
 30
0.0
  0
SPLINE
  5
6D
330
1F
100
AcDbEntity
  8
Layer 1
100
AcDbSpline
210
0.0
220
0.0
230
1.0
 70
    11
 71
     3
 72
    20
 73
    16
 74
     0
 42
0.0000000001
 43
0.0000000001
 12
1.0
 22
0.0
 32
0.0
 13
1.0
 23
0.0
 33
0.0
 40
0.0
 40
0.0
 40
0.0
 40
0.0
 40
0.2
 40
0.2
 40
0.2
 40
0.2
 40
0.4
 40
0.4
 40
0.4
 40
0.4
 40
0.6
 40
0.6
 40
0.6
 40
0.6
 40
1.0
 40
1.0
 40
1.0
 40
1.0
 10
7.52918
 20
13.079
 30
0.0
 10
7.52918
 20
13.079
 30
0.0
 10
7.52918
 20
13.17044
 30
0.0
 10
7.52918
 20
13.17044
 30
0.0
 10
7.52918
 20
13.17044
 30
0.0
 10
7.52918
 20
13.17044
 30
0.0
 10
8.0575
 20
13.17044
 30
0.0
 10
8.0575
 20
13.17044
 30
0.0
 10
8.0575
 20
13.17044
 30
0.0
 10
8.0575
 20
13.17044
 30
0.0
 10
8.0575
 20
13.079
 30
0.0
 10
8.0575
 20
13.079
 30
0.0
 10
8.0575
 20
13.079
 30
0.0
 10
8.0575
 20
13.079
 30
0.0
 10
7.52918
 20
13.079
 30
0.0
 10
7.52918
 20
13.079
 30
0.0
  0
SPLINE
  5
6E
330
1F
100
AcDbEntity
  8
Layer 1
100
AcDbSpline
210
0.0
220
0.0
230
1.0
 70
    11
 71
     3
 72
    92
 73
    88
 74
     0
 42
0.0000000001
 43
0.0000000001
 12
1.0
 22
0.0
 32
0.0
 13
1.0
 23
0.0
 33
0.0
 40
0.0
 40
0.0
 40
0.0
 40
0.0
 40
0.0434782608695652
 40
0.0434782608695652
 40
0.0434782608695652
 40
0.0434782608695652
 40
0.0869565217391304
 40
0.0869565217391304
 40
0.0869565217391304
 40
0.0869565217391304
 40
0.1304347826086956
 40
0.1304347826086956
 40
0.1304347826086956
 40
0.1304347826086956
 40
0.1739130434782609
 40
0.1739130434782609
 40
0.1739130434782609
 40
0.1739130434782609
 40
0.2173913043478261
 40
0.2173913043478261
 40
0.2173913043478261
 40
0.2173913043478261
 40
0.2608695652173913
 40
0.2608695652173913
 40
0.2608695652173913
 40
0.2608695652173913
 40
0.3043478260869565
 40
0.3043478260869565
 40
0.3043478260869565
 40
0.3043478260869565
 40
0.3478260869565217
 40
0.3478260869565217
 40
0.3478260869565217
 40
0.3478260869565217
 40
0.391304347826087
 40
0.391304347826087
 40
0.391304347826087
 40
0.391304347826087
 40
0.4347826086956522
 40
0.4347826086956522
 40
0.4347826086956522
 40
0.4347826086956522
 40
0.4782608695652174
 40
0.4782608695652174
 40
0.4782608695652174
 40
0.4782608695652174
 40
0.5217391304347826
 40
0.5217391304347826
 40
0.5217391304347826
 40
0.5217391304347826
 40
0.5652173913043478
 40
0.5652173913043478
 40
0.5652173913043478
 40
0.5652173913043478
 40
0.6086956521739131
 40
0.6086956521739131
 40
0.6086956521739131
 40
0.6086956521739131
 40
0.6521739130434783
 40
0.6521739130434783
 40
0.6521739130434783
 40
0.6521739130434783
 40
0.6956521739130435
 40
0.6956521739130435
 40
0.6956521739130435
 40
0.6956521739130435
 40
0.7391304347826086
 40
0.7391304347826086
 40
0.7391304347826086
 40
0.7391304347826086
 40
0.782608695652174
 40
0.782608695652174
 40
0.782608695652174
 40
0.782608695652174
 40
0.8260869565217391
 40
0.8260869565217391
 40
0.8260869565217391
 40
0.8260869565217391
 40
0.8695652173913043
 40
0.8695652173913043
 40
0.8695652173913043
 40
0.8695652173913043
 40
0.9130434782608695
 40
0.9130434782608695
 40
0.9130434782608695
 40
0.9130434782608695
 40
1.0
 40
1.0
 40
1.0
 40
1.0
 10
8.20863
 20
13.19457
 30
0.0
 10
8.20863
 20
13.19457
 30
0.0
 10
8.20863
 20
13.30633
 30
0.0
 10
8.20863
 20
13.30633
 30
0.0
 10
8.20863
 20
13.30633
 30
0.0
 10
8.28843
 20
13.26654
 30
0.0
 10
8.35764
 20
13.24664
 30
0.0
 10
8.4167
 20
13.24664
 30
0.0
 10
8.4167
 20
13.24664
 30
0.0
 10
8.45184
 20
13.24664
 30
0.0
 10
8.48105
 20
13.25617
 30
0.0
 10
8.50412
 20
13.27522
 30
0.0
 10
8.50412
 20
13.27522
 30
0.0
 10
8.52719
 20
13.29405
 30
0.0
 10
8.53883
 20
13.31776
 30
0.0
 10
8.53883
 20
13.34634
 30
0.0
 10
8.53883
 20
13.34634
 30
0.0
 10
8.53883
 20
13.38803
 30
0.0
 10
8.50645
 20
13.42254
 30
0.0
 10
8.44168
 20
13.44984
 30
0.0
 10
8.44168
 20
13.44984
 30
0.0
 10
8.44168
 20
13.44984
 30
0.0
 10
8.37034
 20
13.48011
 30
0.0
 10
8.37034
 20
13.48011
 30
0.0
 10
8.37034
 20
13.48011
 30
0.0
 10
8.26515
 20
13.52371
 30
0.0
 10
8.21244
 20
13.58679
 30
0.0
 10
8.21244
 20
13.6687
 30
0.0
 10
8.21244
 20
13.6687
 30
0.0
 10
8.21244
 20
13.72734
 30
0.0
 10
8.23318
 20
13.77348
 30
0.0
 10
8.27467
 20
13.80713
 30
0.0
 10
8.27467
 20
13.80713
 30
0.0
 10
8.31616
 20
13.84079
 30
0.0
 10
8.3731
 20
13.85751
 30
0.0
 10
8.44527
 20
13.85751
 30
0.0
 10
8.44527
 20
13.85751
 30
0.0
 10
8.48274
 20
13.85751
 30
0.0
 10
8.52931
 20
13.85243
 30
0.0
 10
8.58455
 20
13.84206
 30
0.0
 10
8.58455
 20
13.84206
 30
0.0
 10
8.58455
 20
13.84206
 30
0.0
 10
8.60995
 20
13.83719
 30
0.0
 10
8.60995
 20
13.83719
 30
0.0
 10
8.60995
 20
13.83719
 30
0.0
 10
8.60995
 20
13.83719
 30
0.0
 10
8.60995
 20
13.73559
 30
0.0
 10
8.60995
 20
13.73559
 30
0.0
 10
8.60995
 20
13.73559
 30
0.0
 10
8.54201
 20
13.75591
 30
0.0
 10
8.48782
 20
13.76607
 30
0.0
 10
8.44739
 20
13.76607
 30
0.0
 10
8.44739
 20
13.76607
 30
0.0
 10
8.41183
 20
13.76607
 30
0.0
 10
8.38368
 20
13.75824
 30
0.0
 10
8.3623
 20
13.74279
 30
0.0
 10
8.3623
 20
13.74279
 30
0.0
 10
8.34113
 20
13.72734
 30
0.0
 10
8.33055
 20
13.70659
 30
0.0
 10
8.33055
 20
13.68056
 30
0.0
 10
8.33055
 20
13.68056
 30
0.0
 10
8.33055
 20
13.64394
 30
0.0
 10
8.36018
 20
13.61282
 30
0.0
 10
8.41966
 20
13.58764
 30
0.0
 10
8.41966
 20
13.58764
 30
0.0
 10
8.41966
 20
13.58764
 30
0.0
 10
8.47829
 20
13.56287
 30
0.0
 10
8.47829
 20
13.56287
 30
0.0
 10
8.47829
 20
13.56287
 30
0.0
 10
8.54476
 20
13.53493
 30
0.0
 10
8.59175
 20
13.5053
 30
0.0
 10
8.61926
 20
13.47418
 30
0.0
 10
8.61926
 20
13.47418
 30
0.0
 10
8.64699
 20
13.44307
 30
0.0
 10
8.66075
 20
13.40412
 30
0.0
 10
8.66075
 20
13.35755
 30
0.0
 10
8.66075
 20
13.35755
 30
0.0
 10
8.66075
 20
13.2985
 30
0.0
 10
8.63747
 20
13.25003
 30
0.0
 10
8.59069
 20
13.21214
 30
0.0
 10
8.59069
 20
13.21214
 30
0.0
 10
8.54412
 20
13.17425
 30
0.0
 10
8.48443
 20
13.1552
 30
0.0
 10
8.41183
 20
13.1552
 30
0.0
 10
8.41183
 20
13.1552
 30
0.0
 10
8.35595
 20
13.1552
 30
0.0
 10
8.28843
 20
13.16832
 30
0.0
 10
8.20863
 20
13.19457
 30
0.0
  0
SPLINE
  5
6F
330
1F
100
AcDbEntity
  8
Layer 1
100
AcDbSpline
210
0.0
220
0.0
230
1.0
 70
    11
 71
     3
 72
    48
 73
    44
 74
     0
 42
0.0000000001
 43
0.0000000001
 12
1.0
 22
0.0
 32
0.0
 13
1.0
 23
0.0
 33
0.0
 40
0.0
 40
0.0
 40
0.0
 40
0.0
 40
0.0833333333333333
 40
0.0833333333333333
 40
0.0833333333333333
 40
0.0833333333333333
 40
0.1666666666666667
 40
0.1666666666666667
 40
0.1666666666666667
 40
0.1666666666666667
 40
0.25
 40
0.25
 40
0.25
 40
0.25
 40
0.3333333333333333
 40
0.3333333333333333
 40
0.3333333333333333
 40
0.3333333333333333
 40
0.4166666666666667
 40
0.4166666666666667
 40
0.4166666666666667
 40
0.4166666666666667
 40
0.5
 40
0.5
 40
0.5
 40
0.5
 40
0.5833333333333334
 40
0.5833333333333334
 40
0.5833333333333334
 40
0.5833333333333334
 40
0.6666666666666666
 40
0.6666666666666666
 40
0.6666666666666666
 40
0.6666666666666666
 40
0.75
 40
0.75
 40
0.75
 40
0.75
 40
0.8333333333333334
 40
0.8333333333333334
 40
0.8333333333333334
 40
0.8333333333333334
 40
1.0
 40
1.0
 40
1.0
 40
1.0
 10
8.88025
 20
12.92533
 30
0.0
 10
8.88025
 20
12.92533
 30
0.0
 10
8.88025
 20
13.84354
 30
0.0
 10
8.88025
 20
13.84354
 30
0.0
 10
8.88025
 20
13.84354
 30
0.0
 10
8.88025
 20
13.84354
 30
0.0
 10
9.00217
 20
13.84354
 30
0.0
 10
9.00217
 20
13.84354
 30
0.0
 10
9.00217
 20
13.84354
 30
0.0
 10
9.00217
 20
13.84354
 30
0.0
 10
9.00217
 20
13.71633
 30
0.0
 10
9.00217
 20
13.71633
 30
0.0
 10
9.00217
 20
13.71633
 30
0.0
 10
9.05212
 20
13.81052
 30
0.0
 10
9.12727
 20
13.85751
 30
0.0
 10
9.22738
 20
13.85751
 30
0.0
 10
9.22738
 20
13.85751
 30
0.0
 10
9.30845
 20
13.85751
 30
0.0
 10
9.37216
 20
13.82809
 30
0.0
 10
9.41873
 20
13.76903
 30
0.0
 10
9.41873
 20
13.76903
 30
0.0
 10
9.4653
 20
13.70998
 30
0.0
 10
9.48858
 20
13.62933
 30
0.0
 10
9.48858
 20
13.5271
 30
0.0
 10
9.48858
 20
13.5271
 30
0.0
 10
9.48858
 20
13.41576
 30
0.0
 10
9.46212
 20
13.3258
 30
0.0
 10
9.40942
 20
13.25765
 30
0.0
 10
9.40942
 20
13.25765
 30
0.0
 10
9.35671
 20
13.18928
 30
0.0
 10
9.28729
 20
13.1552
 30
0.0
 10
9.20135
 20
13.1552
 30
0.0
 10
9.20135
 20
13.1552
 30
0.0
 10
9.12155
 20
13.1552
 30
0.0
 10
9.05509
 20
13.18568
 30
0.0
 10
9.00217
 20
13.24685
 30
0.0
 10
9.00217
 20
13.24685
 30
0.0
 10
9.00217
 20
13.24685
 30
0.0
 10
9.00217
 20
12.92533
 30
0.0
 10
9.00217
 20
12.92533
 30
0.0
 10
9.00217
 20
12.92533
 30
0.0
 10
9.00217
 20
12.92533
 30
0.0
 10
8.88025
 20
12.92533
 30
0.0
 10
8.88025
 20
12.92533
 30
0.0
  0
SPLINE
  5
70
330
1F
100
AcDbEntity
  8
Layer 1
100
AcDbSpline
210
0.0
220
0.0
230
1.0
 70
    11
 71
     3
 72
    28
 73
    24
 74
     0
 42
0.0000000001
 43
0.0000000001
 12
1.0
 22
0.0
 32
0.0
 13
1.0
 23
0.0
 33
0.0
 40
0.0
 40
0.0
 40
0.0
 40
0.0
 40
0.1428571428571428
 40
0.1428571428571428
 40
0.1428571428571428
 40
0.1428571428571428
 40
0.2857142857142857
 40
0.2857142857142857
 40
0.2857142857142857
 40
0.2857142857142857
 40
0.4285714285714285
 40
0.4285714285714285
 40
0.4285714285714285
 40
0.4285714285714285
 40
0.5714285714285714
 40
0.5714285714285714
 40
0.5714285714285714
 40
0.5714285714285714
 40
0.7142857142857143
 40
0.7142857142857143
 40
0.7142857142857143
 40
0.7142857142857143
 40
1.0
 40
1.0
 40
1.0
 40
1.0
 10
9.00217
 20
13.33088
 30
0.0
 10
9.06504
 20
13.27479
 30
0.0
 10
9.12494
 20
13.24664
 30
0.0
 10
9.18188
 20
13.24664
 30
0.0
 10
9.18188
 20
13.24664
 30
0.0
 10
9.23797
 20
13.24664
 30
0.0
 10
9.28136
 20
13.27014
 30
0.0
 10
9.31184
 20
13.31691
 30
0.0
 10
9.31184
 20
13.31691
 30
0.0
 10
9.34253
 20
13.36369
 30
0.0
 10
9.35777
 20
13.42952
 30
0.0
 10
9.35777
 20
13.51461
 30
0.0
 10
9.35777
 20
13.51461
 30
0.0
 10
9.35777
 20
13.67209
 30
0.0
 10
9.3057
 20
13.75083
 30
0.0
 10
9.20156
 20
13.75083
 30
0.0
 10
9.20156
 20
13.75083
 30
0.0
 10
9.1334
 20
13.75083
 30
0.0
 10
9.06694
 20
13.714
 30
0.0
 10
9.00217
 20
13.64013
 30
0.0
 10
9.00217
 20
13.64013
 30
0.0
 10
9.00217
 20
13.64013
 30
0.0
 10
9.00217
 20
13.33088
 30
0.0
 10
9.00217
 20
13.33088
 30
0.0
  0
SPLINE
  5
71
330
1F
100
AcDbEntity
  8
Layer 1
100
AcDbSpline
210
0.0
220
0.0
230
1.0
 70
    11
 71
     3
 72
    80
 73
    76
 74
     0
 42
0.0000000001
 43
0.0000000001
 12
1.0
 22
0.0
 32
0.0
 13
1.0
 23
0.0
 33
0.0
 40
0.0
 40
0.0
 40
0.0
 40
0.0
 40
0.05
 40
0.05
 40
0.05
 40
0.05
 40
0.1
 40
0.1
 40
0.1
 40
0.1
 40
0.15
 40
0.15
 40
0.15
 40
0.15
 40
0.2
 40
0.2
 40
0.2
 40
0.2
 40
0.25
 40
0.25
 40
0.25
 40
0.25
 40
0.3
 40
0.3
 40
0.3
 40
0.3
 40
0.35
 40
0.35
 40
0.35
 40
0.35
 40
0.4
 40
0.4
 40
0.4
 40
0.4
 40
0.45
 40
0.45
 40
0.45
 40
0.45
 40
0.5
 40
0.5
 40
0.5
 40
0.5
 40
0.55
 40
0.55
 40
0.55
 40
0.55
 40
0.6
 40
0.6
 40
0.6
 40
0.6
 40
0.65
 40
0.65
 40
0.65
 40
0.65
 40
0.7
 40
0.7
 40
0.7
 40
0.7
 40
0.75
 40
0.75
 40
0.75
 40
0.75
 40
0.8
 40
0.8
 40
0.8
 40
0.8
 40
0.85
 40
0.85
 40
0.85
 40
0.85
 40
0.9
 40
0.9
 40
0.9
 40
0.9
 40
1.0
 40
1.0
 40
1.0
 40
1.0
 10
10.02642
 20
13.25617
 30
0.0
 10
9.95319
 20
13.18886
 30
0.0
 10
9.8827
 20
13.1552
 30
0.0
 10
9.81497
 20
13.1552
 30
0.0
 10
9.81497
 20
13.1552
 30
0.0
 10
9.7593
 20
13.1552
 30
0.0
 10
9.71294
 20
13.17256
 30
0.0
 10
9.67633
 20
13.20748
 30
0.0
 10
9.67633
 20
13.20748
 30
0.0
 10
9.6395
 20
13.24241
 30
0.0
 10
9.62108
 20
13.28643
 30
0.0
 10
9.62108
 20
13.33956
 30
0.0
 10
9.62108
 20
13.33956
 30
0.0
 10
9.62108
 20
13.41301
 30
0.0
 10
9.65198
 20
13.46953
 30
0.0
 10
9.71379
 20
13.5089
 30
0.0
 10
9.71379
 20
13.5089
 30
0.0
 10
9.7756
 20
13.54827
 30
0.0
 10
9.86429
 20
13.56795
 30
0.0
 10
9.97986
 20
13.56795
 30
0.0
 10
9.97986
 20
13.56795
 30
0.0
 10
9.97986
 20
13.56795
 30
0.0
 10
10.00843
 20
13.56795
 30
0.0
 10
10.00843
 20
13.56795
 30
0.0
 10
10.00843
 20
13.56795
 30
0.0
 10
10.00843
 20
13.56795
 30
0.0
 10
10.00843
 20
13.64902
 30
0.0
 10
10.00843
 20
13.64902
 30
0.0
 10
10.00843
 20
13.64902
 30
0.0
 10
10.00843
 20
13.72712
 30
0.0
 10
9.96779
 20
13.76607
 30
0.0
 10
9.8863
 20
13.76607
 30
0.0
 10
9.8863
 20
13.76607
 30
0.0
 10
9.82322
 20
13.76607
 30
0.0
 10
9.75422
 20
13.74617
 30
0.0
 10
9.6795
 20
13.70638
 30
0.0
 10
9.6795
 20
13.70638
 30
0.0
 10
9.6795
 20
13.70638
 30
0.0
 10
9.6795
 20
13.80671
 30
0.0
 10
9.6795
 20
13.80671
 30
0.0
 10
9.6795
 20
13.80671
 30
0.0
 10
9.76163
 20
13.84058
 30
0.0
 10
9.8391
 20
13.85751
 30
0.0
 10
9.9117
 20
13.85751
 30
0.0
 10
9.9117
 20
13.85751
 30
0.0
 10
9.98642
 20
13.85751
 30
0.0
 10
10.04166
 20
13.84058
 30
0.0
 10
10.07701
 20
13.8065
 30
0.0
 10
10.07701
 20
13.8065
 30
0.0
 10
10.11257
 20
13.77242
 30
0.0
 10
10.13035
 20
13.71993
 30
0.0
 10
10.13035
 20
13.64902
 30
0.0
 10
10.13035
 20
13.64902
 30
0.0
 10
10.13035
 20
13.64902
 30
0.0
 10
10.13035
 20
13.34485
 30
0.0
 10
10.13035
 20
13.34485
 30
0.0
 10
10.13035
 20
13.34485
 30
0.0
 10
10.13035
 20
13.27522
 30
0.0
 10
10.15173
 20
13.24029
 30
0.0
 10
10.1947
 20
13.24029
 30
0.0
 10
10.1947
 20
13.24029
 30
0.0
 10
10.19999
 20
13.24029
 30
0.0
 10
10.20782
 20
13.24114
 30
0.0
 10
10.21819
 20
13.24283
 30
0.0
 10
10.21819
 20
13.24283
 30
0.0
 10
10.21819
 20
13.24283
 30
0.0
 10
10.22687
 20
13.1751
 30
0.0
 10
10.22687
 20
13.1751
 30
0.0
 10
10.22687
 20
13.1751
 30
0.0
 10
10.19914
 20
13.16176
 30
0.0
 10
10.16866
 20
13.1552
 30
0.0
 10
10.13522
 20
13.1552
 30
0.0
 10
10.13522
 20
13.1552
 30
0.0
 10
10.07828
 20
13.1552
 30
0.0
 10
10.04209
 20
13.18886
 30
0.0
 10
10.02642
 20
13.25617
 30
0.0
  0
SPLINE
  5
72
330
1F
100
AcDbEntity
  8
Layer 1
100
AcDbSpline
210
0.0
220
0.0
230
1.0
 70
    11
 71
     3
 72
    32
 73
    28
 74
     0
 42
0.0000000001
 43
0.0000000001
 12
1.0
 22
0.0
 32
0.0
 13
1.0
 23
0.0
 33
0.0
 40
0.0
 40
0.0
 40
0.0
 40
0.0
 40
0.125
 40
0.125
 40
0.125
 40
0.125
 40
0.25
 40
0.25
 40
0.25
 40
0.25
 40
0.375
 40
0.375
 40
0.375
 40
0.375
 40
0.5
 40
0.5
 40
0.5
 40
0.5
 40
0.625
 40
0.625
 40
0.625
 40
0.625
 40
0.75
 40
0.75
 40
0.75
 40
0.75
 40
1.0
 40
1.0
 40
1.0
 40
1.0
 10
10.00843
 20
13.32263
 30
0.0
 10
10.00843
 20
13.32263
 30
0.0
 10
10.00843
 20
13.49556
 30
0.0
 10
10.00843
 20
13.49556
 30
0.0
 10
10.00843
 20
13.49556
 30
0.0
 10
10.00843
 20
13.49556
 30
0.0
 10
9.96927
 20
13.49683
 30
0.0
 10
9.96927
 20
13.49683
 30
0.0
 10
9.96927
 20
13.49683
 30
0.0
 10
9.90154
 20
13.49683
 30
0.0
 10
9.84693
 20
13.48434
 30
0.0
 10
9.80523
 20
13.45937
 30
0.0
 10
9.80523
 20
13.45937
 30
0.0
 10
9.76374
 20
13.43418
 30
0.0
 10
9.743
 20
13.40095
 30
0.0
 10
9.743
 20
13.35946
 30
0.0
 10
9.743
 20
13.35946
 30
0.0
 10
9.743
 20
13.33046
 30
0.0
 10
9.75337
 20
13.30591
 30
0.0
 10
9.7739
 20
13.2858
 30
0.0
 10
9.7739
 20
13.2858
 30
0.0
 10
9.79465
 20
13.26569
 30
0.0
 10
9.81984
 20
13.25553
 30
0.0
 10
9.84968
 20
13.25553
 30
0.0
 10
9.84968
 20
13.25553
 30
0.0
 10
9.90048
 20
13.25553
 30
0.0
 10
9.9534
 20
13.27797
 30
0.0
 10
10.00843
 20
13.32263
 30
0.0
  0
SPLINE
  5
73
330
1F
100
AcDbEntity
  8
Layer 1
100
AcDbSpline
210
0.0
220
0.0
230
1.0
 70
    11
 71
     3
 72
    60
 73
    56
 74
     0
 42
0.0000000001
 43
0.0000000001
 12
1.0
 22
0.0
 32
0.0
 13
1.0
 23
0.0
 33
0.0
 40
0.0
 40
0.0
 40
0.0
 40
0.0
 40
0.0666666666666667
 40
0.0666666666666667
 40
0.0666666666666667
 40
0.0666666666666667
 40
0.1333333333333333
 40
0.1333333333333333
 40
0.1333333333333333
 40
0.1333333333333333
 40
0.2
 40
0.2
 40
0.2
 40
0.2
 40
0.2666666666666667
 40
0.2666666666666667
 40
0.2666666666666667
 40
0.2666666666666667
 40
0.3333333333333333
 40
0.3333333333333333
 40
0.3333333333333333
 40
0.3333333333333333
 40
0.4
 40
0.4
 40
0.4
 40
0.4
 40
0.4666666666666667
 40
0.4666666666666667
 40
0.4666666666666667
 40
0.4666666666666667
 40
0.5333333333333333
 40
0.5333333333333333
 40
0.5333333333333333
 40
0.5333333333333333
 40
0.6
 40
0.6
 40
0.6
 40
0.6
 40
0.6666666666666666
 40
0.6666666666666666
 40
0.6666666666666666
 40
0.6666666666666666
 40
0.7333333333333333
 40
0.7333333333333333
 40
0.7333333333333333
 40
0.7333333333333333
 40
0.8
 40
0.8
 40
0.8
 40
0.8
 40
0.8666666666666667
 40
0.8666666666666667
 40
0.8666666666666667
 40
0.8666666666666667
 40
1.0
 40
1.0
 40
1.0
 40
1.0
 10
10.84811
 20
13.19076
 30
0.0
 10
10.76916
 20
13.16705
 30
0.0
 10
10.701
 20
13.1552
 30
0.0
 10
10.64364
 20
13.1552
 30
0.0
 10
10.64364
 20
13.1552
 30
0.0
 10
10.55262
 20
13.1552
 30
0.0
 10
10.47727
 20
13.18886
 30
0.0
 10
10.41737
 20
13.25595
 30
0.0
 10
10.41737
 20
13.25595
 30
0.0
 10
10.35747
 20
13.32326
 30
0.0
 10
10.32741
 20
13.40814
 30
0.0
 10
10.32741
 20
13.51038
 30
0.0
 10
10.32741
 20
13.51038
 30
0.0
 10
10.32741
 20
13.6196
 30
0.0
 10
10.35704
 20
13.7049
 30
0.0
 10
10.41631
 20
13.76586
 30
0.0
 10
10.41631
 20
13.76586
 30
0.0
 10
10.47558
 20
13.82703
 30
0.0
 10
10.55834
 20
13.85751
 30
0.0
 10
10.6646
 20
13.85751
 30
0.0
 10
10.6646
 20
13.85751
 30
0.0
 10
10.71688
 20
13.85751
 30
0.0
 10
10.77572
 20
13.85031
 30
0.0
 10
10.84049
 20
13.83592
 30
0.0
 10
10.84049
 20
13.83592
 30
0.0
 10
10.84049
 20
13.83592
 30
0.0
 10
10.84049
 20
13.73305
 30
0.0
 10
10.84049
 20
13.73305
 30
0.0
 10
10.84049
 20
13.73305
 30
0.0
 10
10.7717
 20
13.75337
 30
0.0
 10
10.71561
 20
13.76353
 30
0.0
 10
10.67243
 20
13.76353
 30
0.0
 10
10.67243
 20
13.76353
 30
0.0
 10
10.60977
 20
13.76353
 30
0.0
 10
10.55961
 20
13.74004
 30
0.0
 10
10.52214
 20
13.69326
 30
0.0
 10
10.52214
 20
13.69326
 30
0.0
 10
10.48468
 20
13.64648
 30
0.0
 10
10.46584
 20
13.58404
 30
0.0
 10
10.46584
 20
13.50614
 30
0.0
 10
10.46584
 20
13.50614
 30
0.0
 10
10.46584
 20
13.43058
 30
0.0
 10
10.48531
 20
13.36962
 30
0.0
 10
10.52405
 20
13.32284
 30
0.0
 10
10.52405
 20
13.32284
 30
0.0
 10
10.56278
 20
13.27627
 30
0.0
 10
10.61337
 20
13.25299
 30
0.0
 10
10.67624
 20
13.25299
 30
0.0
 10
10.67624
 20
13.25299
 30
0.0
 10
10.73191
 20
13.25299
 30
0.0
 10
10.78906
 20
13.26738
 30
0.0
 10
10.84811
 20
13.29617
 30
0.0
 10
10.84811
 20
13.29617
 30
0.0
 10
10.84811
 20
13.29617
 30
0.0
 10
10.84811
 20
13.19076
 30
0.0
 10
10.84811
 20
13.19076
 30
0.0
  0
SPLINE
  5
74
330
1F
100
AcDbEntity
  8
Layer 1
100
AcDbSpline
210
0.0
220
0.0
230
1.0
 70
    11
 71
     3
 72
    52
 73
    48
 74
     0
 42
0.0000000001
 43
0.0000000001
 12
1.0
 22
0.0
 32
0.0
 13
1.0
 23
0.0
 33
0.0
 40
0.0
 40
0.0
 40
0.0
 40
0.0
 40
0.0769230769230769
 40
0.0769230769230769
 40
0.0769230769230769
 40
0.0769230769230769
 40
0.1538461538461539
 40
0.1538461538461539
 40
0.1538461538461539
 40
0.1538461538461539
 40
0.2307692307692308
 40
0.2307692307692308
 40
0.2307692307692308
 40
0.2307692307692308
 40
0.3076923076923077
 40
0.3076923076923077
 40
0.3076923076923077
 40
0.3076923076923077
 40
0.3846153846153846
 40
0.3846153846153846
 40
0.3846153846153846
 40
0.3846153846153846
 40
0.4615384615384616
 40
0.4615384615384616
 40
0.4615384615384616
 40
0.4615384615384616
 40
0.5384615384615384
 40
0.5384615384615384
 40
0.5384615384615384
 40
0.5384615384615384
 40
0.6153846153846154
 40
0.6153846153846154
 40
0.6153846153846154
 40
0.6153846153846154
 40
0.6923076923076923
 40
0.6923076923076923
 40
0.6923076923076923
 40
0.6923076923076923
 40
0.7692307692307693
 40
0.7692307692307693
 40
0.7692307692307693
 40
0.7692307692307693
 40
0.8461538461538461
 40
0.8461538461538461
 40
0.8461538461538461
 40
0.8461538461538461
 40
1.0
 40
1.0
 40
1.0
 40
1.0
 10
11.52523
 20
13.19203
 30
0.0
 10
11.44332
 20
13.16748
 30
0.0
 10
11.37325
 20
13.1552
 30
0.0
 10
11.31483
 20
13.1552
 30
0.0
 10
11.31483
 20
13.1552
 30
0.0
 10
11.21514
 20
13.1552
 30
0.0
 10
11.13407
 20
13.18822
 30
0.0
 10
11.07163
 20
13.25405
 30
0.0
 10
11.07163
 20
13.25405
 30
0.0
 10
11.00919
 20
13.31988
 30
0.0
 10
10.97786
 20
13.40518
 30
0.0
 10
10.97786
 20
13.51017
 30
0.0
 10
10.97786
 20
13.51017
 30
0.0
 10
10.97786
 20
13.61198
 30
0.0
 10
11.00538
 20
13.69559
 30
0.0
 10
11.06062
 20
13.76099
 30
0.0
 10
11.06062
 20
13.76099
 30
0.0
 10
11.11587
 20
13.82618
 30
0.0
 10
11.18656
 20
13.85878
 30
0.0
 10
11.27271
 20
13.85878
 30
0.0
 10
11.27271
 20
13.85878
 30
0.0
 10
11.3542
 20
13.85878
 30
0.0
 10
11.41728
 20
13.82978
 30
0.0
 10
11.46173
 20
13.77179
 30
0.0
 10
11.46173
 20
13.77179
 30
0.0
 10
11.50618
 20
13.71379
 30
0.0
 10
11.52841
 20
13.63166
 30
0.0
 10
11.52841
 20
13.52519
 30
0.0
 10
11.52841
 20
13.52519
 30
0.0
 10
11.52841
 20
13.52519
 30
0.0
 10
11.52777
 20
13.48794
 30
0.0
 10
11.52777
 20
13.48794
 30
0.0
 10
11.52777
 20
13.48794
 30
0.0
 10
11.52777
 20
13.48794
 30
0.0
 10
11.10232
 20
13.48794
 30
0.0
 10
11.10232
 20
13.48794
 30
0.0
 10
11.10232
 20
13.48794
 30
0.0
 10
11.1201
 20
13.32707
 30
0.0
 10
11.19863
 20
13.24664
 30
0.0
 10
11.33769
 20
13.24664
 30
0.0
 10
11.33769
 20
13.24664
 30
0.0
 10
11.38871
 20
13.24664
 30
0.0
 10
11.45115
 20
13.26103
 30
0.0
 10
11.52523
 20
13.28982
 30
0.0
 10
11.52523
 20
13.28982
 30
0.0
 10
11.52523
 20
13.28982
 30
0.0
 10
11.52523
 20
13.19203
 30
0.0
 10
11.52523
 20
13.19203
 30
0.0
  0
SPLINE
  5
75
330
1F
100
AcDbEntity
  8
Layer 1
100
AcDbSpline
210
0.0
220
0.0
230
1.0
 70
    11
 71
     3
 72
    16
 73
    12
 74
     0
 42
0.0000000001
 43
0.0000000001
 12
1.0
 22
0.0
 32
0.0
 13
1.0
 23
0.0
 33
0.0
 40
0.0
 40
0.0
 40
0.0
 40
0.0
 40
0.25
 40
0.25
 40
0.25
 40
0.25
 40
0.5
 40
0.5
 40
0.5
 40
0.5
 40
1.0
 40
1.0
 40
1.0
 40
1.0
 10
11.10867
 20
13.57938
 30
0.0
 10
11.10867
 20
13.57938
 30
0.0
 10
11.40585
 20
13.57938
 30
0.0
 10
11.40585
 20
13.57938
 30
0.0
 10
11.40585
 20
13.57938
 30
0.0
 10
11.40585
 20
13.70469
 30
0.0
 10
11.35907
 20
13.76734
 30
0.0
 10
11.26573
 20
13.76734
 30
0.0
 10
11.26573
 20
13.76734
 30
0.0
 10
11.17175
 20
13.76734
 30
0.0
 10
11.11947
 20
13.70469
 30
0.0
 10
11.10867
 20
13.57938
 30
0.0
  0
SPLINE
  5
76
330
1F
100
AcDbEntity
  8
Layer 1
100
AcDbSpline
210
0.0
220
0.0
230
1.0
 70
    11
 71
     3
 72
    44
 73
    40
 74
     0
 42
0.0000000001
 43
0.0000000001
 12
1.0
 22
0.0
 32
0.0
 13
1.0
 23
0.0
 33
0.0
 40
0.0
 40
0.0
 40
0.0
 40
0.0
 40
0.0909090909090909
 40
0.0909090909090909
 40
0.0909090909090909
 40
0.0909090909090909
 40
0.1818181818181818
 40
0.1818181818181818
 40
0.1818181818181818
 40
0.1818181818181818
 40
0.2727272727272727
 40
0.2727272727272727
 40
0.2727272727272727
 40
0.2727272727272727
 40
0.3636363636363636
 40
0.3636363636363636
 40
0.3636363636363636
 40
0.3636363636363636
 40
0.4545454545454545
 40
0.4545454545454545
 40
0.4545454545454545
 40
0.4545454545454545
 40
0.5454545454545454
 40
0.5454545454545454
 40
0.5454545454545454
 40
0.5454545454545454
 40
0.6363636363636364
 40
0.6363636363636364
 40
0.6363636363636364
 40
0.6363636363636364
 40
0.7272727272727273
 40
0.7272727272727273
 40
0.7272727272727273
 40
0.7272727272727273
 40
0.8181818181818182
 40
0.8181818181818182
 40
0.8181818181818182
 40
0.8181818181818182
 40
1.0
 40
1.0
 40
1.0
 40
1.0
 10
11.7388
 20
13.17044
 30
0.0
 10
11.7388
 20
13.17044
 30
0.0
 10
11.7388
 20
13.84354
 30
0.0
 10
11.7388
 20
13.84354
 30
0.0
 10
11.7388
 20
13.84354
 30
0.0
 10
11.7388
 20
13.84354
 30
0.0
 10
11.86072
 20
13.84354
 30
0.0
 10
11.86072
 20
13.84354
 30
0.0
 10
11.86072
 20
13.84354
 30
0.0
 10
11.86072
 20
13.84354
 30
0.0
 10
11.86072
 20
13.71633
 30
0.0
 10
11.86072
 20
13.71633
 30
0.0
 10
11.86072
 20
13.71633
 30
0.0
 10
11.90919
 20
13.81052
 30
0.0
 10
11.97947
 20
13.85751
 30
0.0
 10
12.07175
 20
13.85751
 30
0.0
 10
12.07175
 20
13.85751
 30
0.0
 10
12.08424
 20
13.85751
 30
0.0
 10
12.09736
 20
13.85645
 30
0.0
 10
12.11091
 20
13.85434
 30
0.0
 10
12.11091
 20
13.85434
 30
0.0
 10
12.11091
 20
13.85434
 30
0.0
 10
12.11091
 20
13.74025
 30
0.0
 10
12.11091
 20
13.74025
 30
0.0
 10
12.11091
 20
13.74025
 30
0.0
 10
12.08974
 20
13.74723
 30
0.0
 10
12.07112
 20
13.75083
 30
0.0
 10
12.05503
 20
13.75083
 30
0.0
 10
12.05503
 20
13.75083
 30
0.0
 10
11.97756
 20
13.75083
 30
0.0
 10
11.91279
 20
13.70511
 30
0.0
 10
11.86072
 20
13.61346
 30
0.0
 10
11.86072
 20
13.61346
 30
0.0
 10
11.86072
 20
13.61346
 30
0.0
 10
11.86072
 20
13.17044
 30
0.0
 10
11.86072
 20
13.17044
 30
0.0
 10
11.86072
 20
13.17044
 30
0.0
 10
11.86072
 20
13.17044
 30
0.0
 10
11.7388
 20
13.17044
 30
0.0
 10
11.7388
 20
13.17044
 30
0.0
  0
SPLINE
  5
77
330
1F
100
AcDbEntity
  8
Layer 1
370
    53
100
AcDbSpline
210
0.0
220
0.0
230
1.0
 70
    11
 71
     3
 72
    36
 73
    32
 74
     0
 42
0.0000000001
 43
0.0000000001
 12
1.0
 22
0.0
 32
0.0
 13
1.0
 23
0.0
 33
0.0
 40
0.0
 40
0.0
 40
0.0
 40
0.0
 40
0.1111111111111111
 40
0.1111111111111111
 40
0.1111111111111111
 40
0.1111111111111111
 40
0.2222222222222222
 40
0.2222222222222222
 40
0.2222222222222222
 40
0.2222222222222222
 40
0.3333333333333333
 40
0.3333333333333333
 40
0.3333333333333333
 40
0.3333333333333333
 40
0.4444444444444444
 40
0.4444444444444444
 40
0.4444444444444444
 40
0.4444444444444444
 40
0.5555555555555556
 40
0.5555555555555556
 40
0.5555555555555556
 40
0.5555555555555556
 40
0.6666666666666666
 40
0.6666666666666666
 40
0.6666666666666666
 40
0.6666666666666666
 40
0.7777777777777778
 40
0.7777777777777778
 40
0.7777777777777778
 40
0.7777777777777778
 40
1.0
 40
1.0
 40
1.0
 40
1.0
 10
6.8
 20
-1.7
 30
0.0
 10
6.8
 20
-1.7
 30
0.0
 10
6.8
 20
1.7
 30
0.0
 10
6.8
 20
1.7
 30
0.0
 10
6.8
 20
1.7
 30
0.0
 10
6.8
 20
1.97614
 30
0.0
 10
7.02386
 20
2.2
 30
0.0
 10
7.3
 20
2.2
 30
0.0
 10
7.3
 20
2.2
 30
0.0
 10
7.3
 20
2.2
 30
0.0
 10
10.7
 20
2.2
 30
0.0
 10
10.7
 20
2.2
 30
0.0
 10
10.7
 20
2.2
 30
0.0
 10
10.97614
 20
2.2
 30
0.0
 10
11.2
 20
1.97614
 30
0.0
 10
11.2
 20
1.7
 30
0.0
 10
11.2
 20
1.7
 30
0.0
 10
11.2
 20
1.7
 30
0.0
 10
11.2
 20
-1.7
 30
0.0
 10
11.2
 20
-1.7
 30
0.0
 10
11.2
 20
-1.7
 30
0.0
 10
11.2
 20
-1.97614
 30
0.0
 10
10.97614
 20
-2.2
 30
0.0
 10
10.7
 20
-2.2
 30
0.0
 10
10.7
 20
-2.2
 30
0.0
 10
10.7
 20
-2.2
 30
0.0
 10
7.3
 20
-2.2
 30
0.0
 10
7.3
 20
-2.2
 30
0.0
 10
7.3
 20
-2.2
 30
0.0
 10
7.02386
 20
-2.2
 30
0.0
 10
6.8
 20
-1.97614
 30
0.0
 10
6.8
 20
-1.7
 30
0.0
  0
ELLIPSE
  5
78
330
1F
100
AcDbEntity
  8
Layer 1
370
    53
100
AcDbEllipse
 10
9.00001
 20
-0.00001
 30
0.0
 11
0.0
 21
0.30001
 31
0.0
210
0.0
220
0.0
230
1.0
 40
1.0
 41
0.0
 42
6.283185307179586
  0
ELLIPSE
  5
79
330
1F
100
AcDbEntity
  8
Layer 1
370
    53
100
AcDbEllipse
 10
9.00001
 20
1.49999
 30
0.0
 11
0.0
 21
0.30001
 31
0.0
210
0.0
220
0.0
230
1.0
 40
1.0
 41
0.0
 42
6.283185307179586
  0
ELLIPSE
  5
7A
330
1F
100
AcDbEntity
  8
Layer 1
370
    53
100
AcDbEllipse
 10
9.00001
 20
-1.50001
 30
0.0
 11
0.0
 21
0.30001
 31
0.0
210
0.0
220
0.0
230
1.0
 40
1.0
 41
0.0
 42
6.283185307179586
  0
ELLIPSE
  5
7B
330
1F
100
AcDbEntity
  8
Layer 1
370
    53
100
AcDbEllipse
 10
10.50001
 20
-0.00001
 30
0.0
 11
0.0
 21
0.30001
 31
0.0
210
0.0
220
0.0
230
1.0
 40
1.0
 41
0.0
 42
6.283185307179586
  0
ELLIPSE
  5
7C
330
1F
100
AcDbEntity
  8
Layer 1
370
    53
100
AcDbEllipse
 10
10.50001
 20
1.49999
 30
0.0
 11
0.0
 21
0.30001
 31
0.0
210
0.0
220
0.0
230
1.0
 40
1.0
 41
0.0
 42
6.283185307179586
  0
ELLIPSE
  5
7D
330
1F
100
AcDbEntity
  8
Layer 1
370
    53
100
AcDbEllipse
 10
10.50001
 20
-1.50001
 30
0.0
 11
0.0
 21
0.30001
 31
0.0
210
0.0
220
0.0
230
1.0
 40
1.0
 41
0.0
 42
6.283185307179586
  0
ELLIPSE
  5
7E
330
1F
100
AcDbEntity
  8
Layer 1
370
    53
100
AcDbEllipse
 10
8.25
 20
-1.5
 30
0.0
 11
0.0
 21
0.15
 31
0.0
210
0.0
220
0.0
230
1.0
 40
1.0
 41
0.0
 42
6.283185307179586
  0
ELLIPSE
  5
7F
330
1F
100
AcDbEntity
  8
Layer 1
370
    53
100
AcDbEllipse
 10
9.75
 20
-1.5
 30
0.0
 11
0.0
 21
0.15
 31
0.0
210
0.0
220
0.0
230
1.0
 40
1.0
 41
0.0
 42
6.283185307179586
  0
ELLIPSE
  5
80
330
1F
100
AcDbEntity
  8
Layer 1
370
    53
100
AcDbEllipse
 10
8.25
 20
0.0
 30
0.0
 11
0.0
 21
0.15
 31
0.0
210
0.0
220
0.0
230
1.0
 40
1.0
 41
0.0
 42
6.283185307179586
  0
ELLIPSE
  5
81
330
1F
100
AcDbEntity
  8
Layer 1
370
    53
100
AcDbEllipse
 10
9.75
 20
0.0
 30
0.0
 11
0.0
 21
0.15
 31
0.0
210
0.0
220
0.0
230
1.0
 40
1.0
 41
0.0
 42
6.283185307179586
  0
ELLIPSE
  5
82
330
1F
100
AcDbEntity
  8
Layer 1
370
    53
100
AcDbEllipse
 10
8.25
 20
1.5
 30
0.0
 11
0.0
 21
0.15
 31
0.0
210
0.0
220
0.0
230
1.0
 40
1.0
 41
0.0
 42
6.283185307179586
  0
ELLIPSE
  5
83
330
1F
100
AcDbEntity
  8
Layer 1
370
    53
100
AcDbEllipse
 10
9.75
 20
1.5
 30
0.0
 11
0.0
 21
0.15
 31
0.0
210
0.0
220
0.0
230
1.0
 40
1.0
 41
0.0
 42
6.283185307179586
  0
ELLIPSE
  5
84
330
1F
100
AcDbEntity
  8
Layer 1
370
    53
100
AcDbEllipse
 10
9.0
 20
-0.75
 30
0.0
 11
0.0
 21
0.15
 31
0.0
210
0.0
220
0.0
230
1.0
 40
1.0
 41
0.0
 42
6.283185307179586
  0
ELLIPSE
  5
85
330
1F
100
AcDbEntity
  8
Layer 1
370
    53
100
AcDbEllipse
 10
10.5
 20
-0.75
 30
0.0
 11
0.0
 21
0.15
 31
0.0
210
0.0
220
0.0
230
1.0
 40
1.0
 41
0.0
 42
6.283185307179586
  0
ELLIPSE
  5
86
330
1F
100
AcDbEntity
  8
Layer 1
370
    53
100
AcDbEllipse
 10
9.0
 20
0.75
 30
0.0
 11
0.0
 21
0.15
 31
0.0
210
0.0
220
0.0
230
1.0
 40
1.0
 41
0.0
 42
6.283185307179586
  0
ELLIPSE
  5
87
330
1F
100
AcDbEntity
  8
Layer 1
370
    53
100
AcDbEllipse
 10
10.5
 20
0.75
 30
0.0
 11
0.0
 21
0.15
 31
0.0
210
0.0
220
0.0
230
1.0
 40
1.0
 41
0.0
 42
6.283185307179586
  0
ELLIPSE
  5
88
330
1F
100
AcDbEntity
  8
Layer 1
370
    53
100
AcDbEllipse
 10
7.50001
 20
-0.00001
 30
0.0
 11
0.0
 21
0.30001
 31
0.0
210
0.0
220
0.0
230
1.0
 40
1.0
 41
0.0
 42
6.283185307179586
  0
ELLIPSE
  5
89
330
1F
100
AcDbEntity
  8
Layer 1
370
    53
100
AcDbEllipse
 10
7.50001
 20
1.49999
 30
0.0
 11
0.0
 21
0.30001
 31
0.0
210
0.0
220
0.0
230
1.0
 40
1.0
 41
0.0
 42
6.283185307179586
  0
ELLIPSE
  5
8A
330
1F
100
AcDbEntity
  8
Layer 1
370
    53
100
AcDbEllipse
 10
7.50001
 20
-1.50001
 30
0.0
 11
0.0
 21
0.30001
 31
0.0
210
0.0
220
0.0
230
1.0
 40
1.0
 41
0.0
 42
6.283185307179586
  0
ELLIPSE
  5
8B
330
1F
100
AcDbEntity
  8
Layer 1
370
    53
100
AcDbEllipse
 10
7.5
 20
-0.75
 30
0.0
 11
0.0
 21
0.15
 31
0.0
210
0.0
220
0.0
230
1.0
 40
1.0
 41
0.0
 42
6.283185307179586
  0
ELLIPSE
  5
8C
330
1F
100
AcDbEntity
  8
Layer 1
370
    53
100
AcDbEllipse
 10
7.5
 20
0.75
 30
0.0
 11
0.0
 21
0.15
 31
0.0
210
0.0
220
0.0
230
1.0
 40
1.0
 41
0.0
 42
6.283185307179586
  0
LWPOLYLINE
  5
8D
330
1F
100
AcDbEntity
  8
Layer 1
370
    53
100
AcDbPolyline
 90
        5
 70
     1
 43
0.0
 10
-1.10001
 20
-4.75001
 10
1.09999
 20
-4.75001
 10
1.09999
 20
4.74999
 10
-1.10001
 20
4.74999
 10
-1.10001
 20
-4.75001
  0
ELLIPSE
  5
8E
330
1F
100
AcDbEntity
  8
Layer 1
370
    53
100
AcDbEllipse
 10
-0.05
 20
3.2
 30
0.0
 11
0.0
 21
0.25
 31
0.0
210
0.0
220
0.0
230
1.0
 40
1.0
 41
0.0
 42
6.283185307179586
  0
ELLIPSE
  5
8F
330
1F
100
AcDbEntity
  8
Layer 1
370
    53
100
AcDbEllipse
 10
-0.05
 20
-3.2
 30
0.0
 11
0.0
 21
0.25
 31
0.0
210
0.0
220
0.0
230
1.0
 40
1.0
 41
0.0
 42
6.283185307179586
  0
LWPOLYLINE
  5
90
330
1F
100
AcDbEntity
  8
Layer 1
 62
     4
370
    53
100
AcDbPolyline
 90
        5
 70
     1
 43
0.0
 10
-1.10001
 20
-4.40001
 10
1.09999
 20
-4.40001
 10
1.09999
 20
4.39999
 10
-1.10001
 20
4.39999
 10
-1.10001
 20
-4.40001
  0
ENDSEC
  0
SECTION
  2
OBJECTS
  0
DICTIONARY
  5
C
330
0
100
AcDbDictionary
281
     1
  3
ACAD_GROUP
350
D
  3
ACAD_LAYOUT
350
1A
  3
ACAD_MATERIAL
350
3B
  3
ACAD_MLEADERSTYLE
350
B2
  3
ACAD_MLINESTYLE
350
17
  3
ACAD_PLOTSETTINGS
350
19
  3
ACAD_PLOTSTYLENAME
350
E
  3
ACAD_TABLESTYLE
350
B1
  3
ACAD_VISUALSTYLE
350
2A
  0
DICTIONARY
  5
D
102
{ACAD_REACTORS
330
C
102
}
330
C
100
AcDbDictionary
281
     1
  0
DICTIONARY
  5
1A
102
{ACAD_REACTORS
330
C
102
}
330
C
100
AcDbDictionary
281
     1
  3
Layout1
350
1E
  3
Layout2
350
26
  3
Model
350
22
  0
DICTIONARY
  5
3B
102
{ACAD_REACTORS
330
C
102
}
330
C
100
AcDbDictionary
281
     1
  3
ByBlock
350
3D
  3
ByLayer
350
3C
  3
Global
350
3E
  0
DICTIONARY
  5
B2
102
{ACAD_REACTORS
330
C
102
}
330
C
100
AcDbDictionary
281
     1
  0
DICTIONARY
  5
17
102
{ACAD_REACTORS
330
C
102
}
330
C
100
AcDbDictionary
281
     1
  3
Standard
350
18
  0
DICTIONARY
  5
19
102
{ACAD_REACTORS
330
C
102
}
330
C
100
AcDbDictionary
281
     1
  0
ACDBDICTIONARYWDFLT
  5
E
102
{ACAD_REACTORS
330
C
102
}
330
C
100
AcDbDictionary
281
     1
  3
Normal
350
F
100
AcDbDictionaryWithDefault
340
F
  0
DICTIONARY
  5
B1
102
{ACAD_REACTORS
330
C
102
}
330
C
100
AcDbDictionary
281
     1
  0
DICTIONARY
  5
2A
102
{ACAD_REACTORS
330
C
102
}
330
C
100
AcDbDictionary
281
     1
  3
2dWireframe
350
2F
  3
3D Hidden
350
31
  3
3dWireframe
350
30
  3
Basic
350
32
  3
Brighten
350
36
  3
ColorChange
350
3A
  3
Conceptual
350
34
  3
Dim
350
35
  3
Facepattern
350
39
  3
Flat
350
2B
  3
FlatWithEdges
350
2C
  3
Gouraud
350
2D
  3
GouraudWithEdges
350
2E
  3
Linepattern
350
38
  3
Realistic
350
33
  3
Thicken
350
37
  0
LAYOUT
  5
1E
102
{ACAD_REACTORS
330
1A
102
}
330
1A
100
AcDbPlotSettings
  1

  2
none_device
  4

  6

 40
0.0
 41
0.0
 42
0.0
 43
0.0
 44
0.0
 45
0.0
 46
0.0
 47
0.0
 48
0.0
 49
0.0
140
0.0
141
0.0
142
1.0
143
1.0
 70
   688
 72
     0
 73
     0
 74
     5
  7

 75
    16
 76
     0
 77
     2
 78
   300
147
1.0
148
0.0
149
0.0
100
AcDbLayout
  1
Layout1
 70
     1
 71
     1
 10
0.0
 20
0.0
 11
12.0
 21
9.0
 12
0.0
 22
0.0
 32
0.0
 14
1.000000000000000E+20
 24
1.000000000000000E+20
 34
1.000000000000000E+20
 15
-1.000000000000000E+20
 25
-1.000000000000000E+20
 35
-1.000000000000000E+20
146
0.0
 13
0.0
 23
0.0
 33
0.0
 16
1.0
 26
0.0
 36
0.0
 17
0.0
 27
1.0
 37
0.0
 76
     0
330
1B
  0
LAYOUT
  5
26
102
{ACAD_REACTORS
330
1A
102
}
330
1A
100
AcDbPlotSettings
  1

  2
none_device
  4

  6

 40
0.0
 41
0.0
 42
0.0
 43
0.0
 44
0.0
 45
0.0
 46
0.0
 47
0.0
 48
0.0
 49
0.0
140
0.0
141
0.0
142
1.0
143
1.0
 70
   688
 72
     0
 73
     0
 74
     5
  7

 75
    16
 76
     0
 77
     2
 78
   300
147
1.0
148
0.0
149
0.0
100
AcDbLayout
  1
Layout2
 70
     1
 71
     2
 10
0.0
 20
0.0
 11
0.0
 21
0.0
 12
0.0
 22
0.0
 32
0.0
 14
0.0
 24
0.0
 34
0.0
 15
0.0
 25
0.0
 35
0.0
146
0.0
 13
0.0
 23
0.0
 33
0.0
 16
1.0
 26
0.0
 36
0.0
 17
0.0
 27
1.0
 37
0.0
 76
     0
330
23
  0
LAYOUT
  5
22
102
{ACAD_REACTORS
330
1A
102
}
330
1A
100
AcDbPlotSettings
  1

  2
none_device
  4

  6

 40
0.0
 41
0.0
 42
0.0
 43
0.0
 44
0.0
 45
0.0
 46
0.0
 47
0.0
 48
0.0
 49
0.0
140
0.0
141
0.0
142
1.0
143
1.0
 70
  1712
 72
     0
 73
     0
 74
     0
  7

 75
     0
 76
     0
 77
     2
 78
   300
147
1.0
148
0.0
149
0.0
100
AcDbLayout
  1
Model
 70
     1
 71
     0
 10
0.0
 20
0.0
 11
12.0
 21
9.0
 12
0.0
 22
0.0
 32
0.0
 14
-12.04805
 24
-4.77647
 34
0.0
 15
12.11091
 25
14.14961
 35
0.0
146
0.0
 13
0.0
 23
0.0
 33
0.0
 16
1.0
 26
0.0
 36
0.0
 17
0.0
 27
1.0
 37
0.0
 76
     0
330
1F
331
29
  0
MATERIAL
  5
3D
102
{ACAD_REACTORS
330
3B
102
}
330
3B
100
AcDbMaterial
  1
ByBlock
 72
     1
 94
      127
  0
MATERIAL
  5
3C
102
{ACAD_REACTORS
330
3B
102
}
330
3B
100
AcDbMaterial
  1
ByLayer
 72
     1
 94
      127
  0
MATERIAL
  5
3E
102
{ACAD_REACTORS
330
3B
102
}
330
3B
100
AcDbMaterial
  1
Global
 72
     1
 94
      127
  0
MLINESTYLE
  5
18
102
{ACAD_REACTORS
330
17
102
}
330
17
100
AcDbMlineStyle
  2
Standard
 70
     0
  3

 62
   256
 51
90.0
 52
90.0
 71
     2
 49
0.5
 62
   256
  6
BYLAYER
 49
-0.5
 62
   256
  6
BYLAYER
  0
ACDBPLACEHOLDER
  5
F
102
{ACAD_REACTORS
330
E
102
}
330
E
  0
VISUALSTYLE
  5
2F
102
{ACAD_REACTORS
330
2A
102
}
102
{ACAD_XDICTIONARY
360
99
102
}
330
2A
100
AcDbVisualStyle
  2
2dWireframe
 70
     4
 71
     0
 72
     2
 73
     0
 90
        0
 40
-0.6
 41
-30.0
 62
     5
 63
     7
421
 16777215
 74
     1
 91
        4
 64
     7
 65
   257
 75
     1
175
     1
 42
1.0
 92
        0
 66
   257
 43
1.0
 76
     1
 77
     6
 78
     2
 67
     7
 79
     5
170
     0
171
     0
290
     0
174
     0
 93
        1
 44
0.0
173
     0
291
     0
 45
0.0
  0
VISUALSTYLE
  5
31
102
{ACAD_REACTORS
330
2A
102
}
102
{ACAD_XDICTIONARY
360
9D
102
}
330
2A
100
AcDbVisualStyle
  2
3D Hidden
 70
     6
 71
     1
 72
     2
 73
     2
 90
        0
 40
-0.6
 41
-30.0
 62
     5
 63
     7
421
 16777215
 74
     2
 91
        2
 64
     7
 65
   257
 75
     2
175
     1
 42
40.0
 92
        0
 66
   257
 43
1.0
 76
     1
 77
     6
 78
     2
 67
     7
 79
     3
170
     0
171
     0
290
     0
174
     0
 93
        1
 44
0.0
173
     0
291
     0
 45
0.0
  0
VISUALSTYLE
  5
30
102
{ACAD_REACTORS
330
2A
102
}
102
{ACAD_XDICTIONARY
360
9B
102
}
330
2A
100
AcDbVisualStyle
  2
3dWireframe
 70
     5
 71
     0
 72
     2
 73
     0
 90
        0
 40
-0.6
 41
-30.0
 62
     5
 63
     7
421
 16777215
 74
     1
 91
        4
 64
     7
 65
   257
 75
     1
175
     1
 42
1.0
 92
        0
 66
   257
 43
1.0
 76
     1
 77
     6
 78
     2
 67
     7
 79
     5
170
     0
171
     0
290
     0
174
     0
 93
        1
 44
0.0
173
     0
291
     0
 45
0.0
  0
VISUALSTYLE
  5
32
102
{ACAD_REACTORS
330
2A
102
}
102
{ACAD_XDICTIONARY
360
9F
102
}
330
2A
100
AcDbVisualStyle
  2
Basic
 70
     7
 71
     1
 72
     0
 73
     1
 90
        0
 40
-0.6
 41
-30.0
 62
     5
 63
     7
421
 16777215
 74
     0
 91
        4
 64
     7
 65
   257
 75
     1
175
     1
 42
1.0
 92
        8
 66
     7
 43
1.0
 76
     1
 77
     6
 78
     2
 67
     7
 79
     5
170
     0
171
     0
290
     0
174
     0
 93
        1
 44
0.0
173
     0
291
     1
 45
0.0
  0
VISUALSTYLE
  5
36
102
{ACAD_REACTORS
330
2A
102
}
102
{ACAD_XDICTIONARY
360
A7
102
}
330
2A
100
AcDbVisualStyle
  2
Brighten
 70
    12
 71
     2
 72
     2
 73
     0
 90
        0
 40
-0.6
 41
-30.0
 62
     5
 63
     7
421
 16777215
 74
     1
 91
        4
 64
     7
 65
   257
 75
     1
175
     1
 42
1.0
 92
        8
 66
     7
 43
1.0
 76
     1
 77
     6
 78
     2
 67
     7
 79
     5
170
     0
171
     0
290
     0
174
     0
 93
        1
 44
50.0
173
     0
291
     1
 45
0.0
  0
VISUALSTYLE
  5
3A
102
{ACAD_REACTORS
330
2A
102
}
102
{ACAD_XDICTIONARY
360
AF
102
}
330
2A
100
AcDbVisualStyle
  2
ColorChange
 70
    16
 71
     2
 72
     2
 73
     3
 90
        0
 40
-0.6
 41
-30.0
 62
     5
 63
     8
421
  8421504
 74
     1
 91
        4
 64
     7
 65
   257
 75
     1
175
     1
 42
1.0
 92
        8
 66
     8
424
  8421504
 43
1.0
 76
     1
 77
     6
 78
     2
 67
     7
 79
     5
170
     0
171
     0
290
     0
174
     0
 93
        1
 44
0.0
173
     0
291
     1
 45
0.0
  0
VISUALSTYLE
  5
34
102
{ACAD_REACTORS
330
2A
102
}
102
{ACAD_XDICTIONARY
360
A3
102
}
330
2A
100
AcDbVisualStyle
  2
Conceptual
 70
     9
 71
     3
 72
     2
 73
     0
 90
        0
 40
-0.6
 41
-30.0
 62
     5
 63
     7
421
 16777215
 74
     2
 91
        2
 64
     7
 65
   257
 75
     1
175
     1
 42
40.0
 92
        8
 66
     7
 43
1.0
 76
     1
 77
     6
 78
     2
 67
     7
 79
     3
170
     0
171
     0
290
     0
174
     0
 93
        1
 44
0.0
173
     0
291
     0
 45
0.0
  0
VISUALSTYLE
  5
35
102
{ACAD_REACTORS
330
2A
102
}
102
{ACAD_XDICTIONARY
360
A5
102
}
330
2A
100
AcDbVisualStyle
  2
Dim
 70
    11
 71
     2
 72
     2
 73
     0
 90
        0
 40
-0.6
 41
-30.0
 62
     5
 63
     7
421
 16777215
 74
     1
 91
        4
 64
     7
 65
   257
 75
     1
175
     1
 42
1.0
 92
        8
 66
     7
 43
1.0
 76
     1
 77
     6
 78
     2
 67
     7
 79
     5
170
     0
171
     0
290
     0
174
     0
 93
        1
 44
-50.0
173
     0
291
     1
 45
0.0
  0
VISUALSTYLE
  5
39
102
{ACAD_REACTORS
330
2A
102
}
102
{ACAD_XDICTIONARY
360
AD
102
}
330
2A
100
AcDbVisualStyle
  2
Facepattern
 70
    15
 71
     2
 72
     2
 73
     0
 90
        0
 40
-0.6
 41
-30.0
 62
     5
 63
     7
421
 16777215
 74
     1
 91
        4
 64
     7
 65
   257
 75
     1
175
     1
 42
1.0
 92
        8
 66
     7
 43
1.0
 76
     1
 77
     6
 78
     2
 67
     7
 79
     5
170
     0
171
     0
290
     0
174
     0
 93
        1
 44
0.0
173
     0
291
     1
 45
0.0
  0
VISUALSTYLE
  5
2B
102
{ACAD_REACTORS
330
2A
102
}
102
{ACAD_XDICTIONARY
360
91
102
}
330
2A
100
AcDbVisualStyle
  2
Flat
 70
     0
 71
     2
 72
     1
 73
     1
 90
        2
 40
-0.6
 41
30.0
 62
     5
 63
     7
421
 16777215
 74
     0
 91
        4
 64
     7
 65
   257
 75
     1
175
     1
 42
1.0
 92
        8
 66
     7
 43
1.0
 76
     1
 77
     6
 78
     2
 67
     7
 79
     5
170
     0
171
     0
290
     0
174
     0
 93
       13
 44
0.0
173
     0
291
     1
 45
0.0
  0
VISUALSTYLE
  5
2C
102
{ACAD_REACTORS
330
2A
102
}
102
{ACAD_XDICTIONARY
360
93
102
}
330
2A
100
AcDbVisualStyle
  2
FlatWithEdges
 70
     1
 71
     2
 72
     1
 73
     1
 90
        2
 40
-0.6
 41
30.0
 62
     5
 63
     7
421
 16777215
 74
     1
 91
        4
 64
     7
 65
   257
 75
     1
175
     1
 42
1.0
 92
        0
 66
   257
 43
1.0
 76
     1
 77
     6
 78
     2
 67
     7
 79
     5
170
     0
171
     0
290
     0
174
     0
 93
       13
 44
0.0
173
     0
291
     1
 45
0.0
  0
VISUALSTYLE
  5
2D
102
{ACAD_REACTORS
330
2A
102
}
102
{ACAD_XDICTIONARY
360
95
102
}
330
2A
100
AcDbVisualStyle
  2
Gouraud
 70
     2
 71
     2
 72
     2
 73
     1
 90
        2
 40
-0.6
 41
30.0
 62
     5
 63
     7
421
 16777215
 74
     0
 91
        4
 64
     7
 65
   257
 75
     1
175
     1
 42
1.0
 92
        0
 66
     7
 43
1.0
 76
     1
 77
     6
 78
     2
 67
     7
 79
     5
170
     0
171
     0
290
     0
174
     0
 93
       13
 44
0.0
173
     0
291
     1
 45
0.0
  0
VISUALSTYLE
  5
2E
102
{ACAD_REACTORS
330
2A
102
}
102
{ACAD_XDICTIONARY
360
97
102
}
330
2A
100
AcDbVisualStyle
  2
GouraudWithEdges
 70
     3
 71
     2
 72
     2
 73
     1
 90
        2
 40
-0.6
 41
30.0
 62
     5
 63
     7
421
 16777215
 74
     1
 91
        4
 64
     7
 65
   257
 75
     1
175
     1
 42
1.0
 92
        0
 66
   257
 43
1.0
 76
     1
 77
     6
 78
     2
 67
     7
 79
     5
170
     0
171
     0
290
     0
174
     0
 93
       13
 44
0.0
173
     0
291
     1
 45
0.0
  0
VISUALSTYLE
  5
38
102
{ACAD_REACTORS
330
2A
102
}
102
{ACAD_XDICTIONARY
360
AB
102
}
330
2A
100
AcDbVisualStyle
  2
Linepattern
 70
    14
 71
     2
 72
     2
 73
     0
 90
        0
 40
-0.6
 41
-30.0
 62
     5
 63
     7
421
 16777215
 74
     1
 91
        4
 64
     7
 65
   257
 75
     7
175
     7
 42
1.0
 92
        8
 66
     7
 43
1.0
 76
     1
 77
     6
 78
     2
 67
     7
 79
     5
170
     0
171
     0
290
     0
174
     0
 93
        1
 44
0.0
173
     0
291
     1
 45
0.0
  0
VISUALSTYLE
  5
33
102
{ACAD_REACTORS
330
2A
102
}
102
{ACAD_XDICTIONARY
360
A1
102
}
330
2A
100
AcDbVisualStyle
  2
Realistic
 70
     8
 71
     2
 72
     2
 73
     0
 90
        0
 40
-0.6
 41
-30.0
 62
     5
 63
     7
421
 16777215
 74
     1
 91
        0
 64
     7
 65
   257
 75
     1
175
     1
 42
1.0
 92
        8
 66
     8
424
  7895160
 43
1.0
 76
     1
 77
     6
 78
     2
 67
     7
 79
     5
170
     0
171
     0
290
     0
174
     0
 93
       13
 44
0.0
173
     0
291
     0
 45
0.0
  0
VISUALSTYLE
  5
37
102
{ACAD_REACTORS
330
2A
102
}
102
{ACAD_XDICTIONARY
360
A9
102
}
330
2A
100
AcDbVisualStyle
  2
Thicken
 70
    13
 71
     2
 72
     2
 73
     0
 90
        0
 40
-0.6
 41
-30.0
 62
     5
 63
     7
421
 16777215
 74
     1
 91
        4
 64
     7
 65
   257
 75
     1
175
     1
 42
1.0
 92
       12
 66
     7
 43
1.0
 76
     1
 77
     6
 78
     2
 67
     7
 79
     5
170
     0
171
     0
290
     0
174
     0
 93
        1
 44
0.0
173
     0
291
     1
 45
0.0
  0
DICTIONARY
  5
99
330
2F
100
AcDbDictionary
280
     1
281
     1
  3
ACAD_XREC_ROUNDTRIP
360
9A
  0
DICTIONARY
  5
9D
330
31
100
AcDbDictionary
280
     1
281
     1
  3
ACAD_XREC_ROUNDTRIP
360
9E
  0
DICTIONARY
  5
9B
330
30
100
AcDbDictionary
280
     1
281
     1
  3
ACAD_XREC_ROUNDTRIP
360
9C
  0
DICTIONARY
  5
9F
330
32
100
AcDbDictionary
280
     1
281
     1
  3
ACAD_XREC_ROUNDTRIP
360
A0
  0
DICTIONARY
  5
A7
330
36
100
AcDbDictionary
280
     1
281
     1
  3
ACAD_XREC_ROUNDTRIP
360
A8
  0
DICTIONARY
  5
AF
330
3A
100
AcDbDictionary
280
     1
281
     1
  3
ACAD_XREC_ROUNDTRIP
360
B0
  0
DICTIONARY
  5
A3
330
34
100
AcDbDictionary
280
     1
281
     1
  3
ACAD_XREC_ROUNDTRIP
360
A4
  0
DICTIONARY
  5
A5
330
35
100
AcDbDictionary
280
     1
281
     1
  3
ACAD_XREC_ROUNDTRIP
360
A6
  0
DICTIONARY
  5
AD
330
39
100
AcDbDictionary
280
     1
281
     1
  3
ACAD_XREC_ROUNDTRIP
360
AE
  0
DICTIONARY
  5
91
330
2B
100
AcDbDictionary
280
     1
281
     1
  3
ACAD_XREC_ROUNDTRIP
360
92
  0
DICTIONARY
  5
93
330
2C
100
AcDbDictionary
280
     1
281
     1
  3
ACAD_XREC_ROUNDTRIP
360
94
  0
DICTIONARY
  5
95
330
2D
100
AcDbDictionary
280
     1
281
     1
  3
ACAD_XREC_ROUNDTRIP
360
96
  0
DICTIONARY
  5
97
330
2E
100
AcDbDictionary
280
     1
281
     1
  3
ACAD_XREC_ROUNDTRIP
360
98
  0
DICTIONARY
  5
AB
330
38
100
AcDbDictionary
280
     1
281
     1
  3
ACAD_XREC_ROUNDTRIP
360
AC
  0
DICTIONARY
  5
A1
330
33
100
AcDbDictionary
280
     1
281
     1
  3
ACAD_XREC_ROUNDTRIP
360
A2
  0
DICTIONARY
  5
A9
330
37
100
AcDbDictionary
280
     1
281
     1
  3
ACAD_XREC_ROUNDTRIP
360
AA
  0
XRECORD
  5
9A
102
{ACAD_REACTORS
330
99
102
}
330
99
100
AcDbXrecord
280
     1
102
RTVSPropertyOp0
 70
     1
102
RTVSPropertyOp1
 70
     1
102
RTVSPropertyOp2
 70
     1
102
RTVSPropertyOp3
 70
     1
102
RTVSPropertyOp4
 70
     1
102
RTVSPropertyOp5
 70
     1
102
RTVSPropertyOp6
 70
     1
102
RTVSPropertyOp7
 70
     1
102
RTVSPropertyOp8
 70
     1
102
RTVSPropertyOp9
 70
     1
102
RTVSPropertyOp10
 70
     1
102
RTVSPropertyOp11
 70
     1
102
RTVSPropertyOp12
 70
     1
102
RTVSPropertyOp13
 70
     1
102
RTVSPropertyOp14
 70
     1
102
RTVSPropertyOp15
 70
     1
102
RTVSPropertyOp16
 70
     1
102
RTVSPropertyOp17
 70
     1
102
RTVSPropertyOp18
 70
     1
102
RTVSPropertyOp19
 70
     1
102
RTVSPropertyOp20
 70
     1
102
RTVSPropertyOp21
 70
     1
102
RTVSPropertyOp22
 70
     1
102
RTVSPropertyOp23
 70
     1
102
RTVSPropertyOp24
 70
     1
102
RTVSPropertyOp25
 70
     1
102
RTVSPropertyOp26
 70
     1
102
RTVSPropertyOp27
 70
     1
102
RTVSPropertyOp28
 70
     1
102
RTVSPropertyOp29
 70
     1
102
RTVSPropertyOp30
 70
     1
102
RTVSPropertyOp31
 70
     1
102
RTVSPropertyOp32
 70
     1
  0
XRECORD
  5
9E
102
{ACAD_REACTORS
330
9D
102
}
330
9D
100
AcDbXrecord
280
     1
102
RTVSPropertyOp0
 70
     1
102
RTVSPropertyOp1
 70
     1
102
RTVSPropertyOp2
 70
     1
102
RTVSPropertyOp3
 70
     1
102
RTVSPropertyOp4
 70
     1
102
RTVSPropertyOp5
 70
     1
102
RTVSPropertyOp6
 70
     1
102
RTVSPropertyOp7
 70
     1
102
RTVSPropertyOp8
 70
     1
102
RTVSPropertyOp9
 70
     1
102
RTVSPropertyOp10
 70
     1
102
RTVSPropertyOp11
 70
     1
102
RTVSPropertyOp12
 70
     1
102
RTVSPropertyOp13
 70
     1
102
RTVSPropertyOp14
 70
     1
102
RTVSPropertyOp15
 70
     1
102
RTVSPropertyOp16
 70
     1
102
RTVSPropertyOp17
 70
     1
102
RTVSPropertyOp18
 70
     1
102
RTVSPropertyOp19
 70
     1
102
RTVSPropertyOp20
 70
     1
102
RTVSPropertyOp21
 70
     1
102
RTVSPropertyOp22
 70
     1
102
RTVSPropertyOp23
 70
     1
102
RTVSPropertyOp24
 70
     1
102
RTVSPropertyOp25
 70
     1
102
RTVSPropertyOp26
 70
     1
102
RTVSPropertyOp27
 70
     1
102
RTVSPropertyOp28
 70
     1
102
RTVSPropertyOp29
 70
     1
102
RTVSPropertyOp30
 70
     1
102
RTVSPropertyOp31
 70
     1
102
RTVSPropertyOp32
 70
     1
  0
XRECORD
  5
9C
102
{ACAD_REACTORS
330
9B
102
}
330
9B
100
AcDbXrecord
280
     1
102
RTVSPropertyOp0
 70
     1
102
RTVSPropertyOp1
 70
     1
102
RTVSPropertyOp2
 70
     1
102
RTVSPropertyOp3
 70
     1
102
RTVSPropertyOp4
 70
     1
102
RTVSPropertyOp5
 70
     1
102
RTVSPropertyOp6
 70
     1
102
RTVSPropertyOp7
 70
     1
102
RTVSPropertyOp8
 70
     1
102
RTVSPropertyOp9
 70
     1
102
RTVSPropertyOp10
 70
     1
102
RTVSPropertyOp11
 70
     1
102
RTVSPropertyOp12
 70
     1
102
RTVSPropertyOp13
 70
     1
102
RTVSPropertyOp14
 70
     1
102
RTVSPropertyOp15
 70
     1
102
RTVSPropertyOp16
 70
     1
102
RTVSPropertyOp17
 70
     1
102
RTVSPropertyOp18
 70
     1
102
RTVSPropertyOp19
 70
     1
102
RTVSPropertyOp20
 70
     1
102
RTVSPropertyOp21
 70
     1
102
RTVSPropertyOp22
 70
     1
102
RTVSPropertyOp23
 70
     1
102
RTVSPropertyOp24
 70
     1
102
RTVSPropertyOp25
 70
     1
102
RTVSPropertyOp26
 70
     1
102
RTVSPropertyOp27
 70
     1
102
RTVSPropertyOp28
 70
     1
102
RTVSPropertyOp29
 70
     1
102
RTVSPropertyOp30
 70
     1
102
RTVSPropertyOp31
 70
     1
102
RTVSPropertyOp32
 70
     1
  0
XRECORD
  5
A0
102
{ACAD_REACTORS
330
9F
102
}
330
9F
100
AcDbXrecord
280
     1
102
RTVSPropertyOp0
 70
     1
102
RTVSPropertyOp1
 70
     1
102
RTVSPropertyOp2
 70
     1
102
RTVSPropertyOp3
 70
     1
102
RTVSPropertyOp4
 70
     1
102
RTVSPropertyOp5
 70
     1
102
RTVSPropertyOp6
 70
     1
102
RTVSPropertyOp7
 70
     1
102
RTVSPropertyOp8
 70
     1
102
RTVSPropertyOp9
 70
     1
102
RTVSPropertyOp10
 70
     1
102
RTVSPropertyOp11
 70
     1
102
RTVSPropertyOp12
 70
     1
102
RTVSPropertyOp13
 70
     1
102
RTVSPropertyOp14
 70
     1
102
RTVSPropertyOp15
 70
     1
102
RTVSPropertyOp16
 70
     1
102
RTVSPropertyOp17
 70
     1
102
RTVSPropertyOp18
 70
     1
102
RTVSPropertyOp19
 70
     1
102
RTVSPropertyOp20
 70
     1
102
RTVSPropertyOp21
 70
     1
102
RTVSPropertyOp22
 70
     1
102
RTVSPropertyOp23
 70
     1
102
RTVSPropertyOp24
 70
     1
102
RTVSPropertyOp25
 70
     1
102
RTVSPropertyOp26
 70
     1
102
RTVSPropertyOp27
 70
     1
102
RTVSPropertyOp28
 70
     1
102
RTVSPropertyOp29
 70
     1
102
RTVSPropertyOp30
 70
     1
102
RTVSPropertyOp31
 70
     1
102
RTVSPropertyOp32
 70
     1
  0
XRECORD
  5
A8
102
{ACAD_REACTORS
330
A7
102
}
330
A7
100
AcDbXrecord
280
     1
102
RTVSPropertyOp0
 70
     1
102
RTVSPropertyOp1
 70
     1
102
RTVSPropertyOp2
 70
     1
102
RTVSPropertyOp3
 70
     1
102
RTVSPropertyOp4
 70
     1
102
RTVSPropertyOp5
 70
     1
102
RTVSPropertyOp6
 70
     1
102
RTVSPropertyOp7
 70
     1
102
RTVSPropertyOp8
 70
     1
102
RTVSPropertyOp9
 70
     1
102
RTVSPropertyOp10
 70
     1
102
RTVSPropertyOp11
 70
     1
102
RTVSPropertyOp12
 70
     1
102
RTVSPropertyOp13
 70
     1
102
RTVSPropertyOp14
 70
     1
102
RTVSPropertyOp15
 70
     1
102
RTVSPropertyOp16
 70
     1
102
RTVSPropertyOp17
 70
     1
102
RTVSPropertyOp18
 70
     1
102
RTVSPropertyOp19
 70
     1
102
RTVSPropertyOp20
 70
     1
102
RTVSPropertyOp21
 70
     1
102
RTVSPropertyOp22
 70
     1
102
RTVSPropertyOp23
 70
     1
102
RTVSPropertyOp24
 70
     1
102
RTVSPropertyOp25
 70
     1
102
RTVSPropertyOp26
 70
     1
102
RTVSPropertyOp27
 70
     1
102
RTVSPropertyOp28
 70
     1
102
RTVSPropertyOp29
 70
     1
102
RTVSPropertyOp30
 70
     1
102
RTVSPropertyOp31
 70
     1
102
RTVSPropertyOp32
 70
     1
  0
XRECORD
  5
B0
102
{ACAD_REACTORS
330
AF
102
}
330
AF
100
AcDbXrecord
280
     1
102
RTVSPropertyOp0
 70
     1
102
RTVSPropertyOp1
 70
     1
102
RTVSPropertyOp2
 70
     1
102
RTVSPropertyOp3
 70
     1
102
RTVSPropertyOp4
 70
     1
102
RTVSPropertyOp5
 70
     1
102
RTVSPropertyOp6
 70
     1
102
RTVSPropertyOp7
 70
     1
102
RTVSPropertyOp8
 70
     1
102
RTVSPropertyOp9
 70
     1
102
RTVSPropertyOp10
 70
     1
102
RTVSPropertyOp11
 70
     1
102
RTVSPropertyOp12
 70
     1
102
RTVSPropertyOp13
 70
     1
102
RTVSPropertyOp14
 70
     1
102
RTVSPropertyOp15
 70
     1
102
RTVSPropertyOp16
 70
     1
102
RTVSPropertyOp17
 70
     1
102
RTVSPropertyOp18
 70
     1
102
RTVSPropertyOp19
 70
     1
102
RTVSPropertyOp20
 70
     1
102
RTVSPropertyOp21
 70
     1
102
RTVSPropertyOp22
 70
     1
102
RTVSPropertyOp23
 70
     1
102
RTVSPropertyOp24
 70
     1
102
RTVSPropertyOp25
 70
     1
102
RTVSPropertyOp26
 70
     1
102
RTVSPropertyOp27
 70
     1
102
RTVSPropertyOp28
 70
     1
102
RTVSPropertyOp29
 70
     1
102
RTVSPropertyOp30
 70
     1
102
RTVSPropertyOp31
 70
     1
102
RTVSPropertyOp32
 70
     1
  0
XRECORD
  5
A4
102
{ACAD_REACTORS
330
A3
102
}
330
A3
100
AcDbXrecord
280
     1
102
RTVSPropertyOp0
 70
     1
102
RTVSPropertyOp1
 70
     1
102
RTVSPropertyOp2
 70
     1
102
RTVSPropertyOp3
 70
     1
102
RTVSPropertyOp4
 70
     1
102
RTVSPropertyOp5
 70
     1
102
RTVSPropertyOp6
 70
     1
102
RTVSPropertyOp7
 70
     1
102
RTVSPropertyOp8
 70
     1
102
RTVSPropertyOp9
 70
     1
102
RTVSPropertyOp10
 70
     1
102
RTVSPropertyOp11
 70
     1
102
RTVSPropertyOp12
 70
     1
102
RTVSPropertyOp13
 70
     1
102
RTVSPropertyOp14
 70
     1
102
RTVSPropertyOp15
 70
     1
102
RTVSPropertyOp16
 70
     1
102
RTVSPropertyOp17
 70
     1
102
RTVSPropertyOp18
 70
     1
102
RTVSPropertyOp19
 70
     1
102
RTVSPropertyOp20
 70
     1
102
RTVSPropertyOp21
 70
     1
102
RTVSPropertyOp22
 70
     1
102
RTVSPropertyOp23
 70
     1
102
RTVSPropertyOp24
 70
     1
102
RTVSPropertyOp25
 70
     1
102
RTVSPropertyOp26
 70
     1
102
RTVSPropertyOp27
 70
     1
102
RTVSPropertyOp28
 70
     1
102
RTVSPropertyOp29
 70
     1
102
RTVSPropertyOp30
 70
     1
102
RTVSPropertyOp31
 70
     1
102
RTVSPropertyOp32
 70
     1
  0
XRECORD
  5
A6
102
{ACAD_REACTORS
330
A5
102
}
330
A5
100
AcDbXrecord
280
     1
102
RTVSPropertyOp0
 70
     1
102
RTVSPropertyOp1
 70
     1
102
RTVSPropertyOp2
 70
     1
102
RTVSPropertyOp3
 70
     1
102
RTVSPropertyOp4
 70
     1
102
RTVSPropertyOp5
 70
     1
102
RTVSPropertyOp6
 70
     1
102
RTVSPropertyOp7
 70
     1
102
RTVSPropertyOp8
 70
     1
102
RTVSPropertyOp9
 70
     1
102
RTVSPropertyOp10
 70
     1
102
RTVSPropertyOp11
 70
     1
102
RTVSPropertyOp12
 70
     1
102
RTVSPropertyOp13
 70
     1
102
RTVSPropertyOp14
 70
     1
102
RTVSPropertyOp15
 70
     1
102
RTVSPropertyOp16
 70
     1
102
RTVSPropertyOp17
 70
     1
102
RTVSPropertyOp18
 70
     1
102
RTVSPropertyOp19
 70
     1
102
RTVSPropertyOp20
 70
     1
102
RTVSPropertyOp21
 70
     1
102
RTVSPropertyOp22
 70
     1
102
RTVSPropertyOp23
 70
     1
102
RTVSPropertyOp24
 70
     1
102
RTVSPropertyOp25
 70
     1
102
RTVSPropertyOp26
 70
     1
102
RTVSPropertyOp27
 70
     1
102
RTVSPropertyOp28
 70
     1
102
RTVSPropertyOp29
 70
     1
102
RTVSPropertyOp30
 70
     1
102
RTVSPropertyOp31
 70
     1
102
RTVSPropertyOp32
 70
     1
  0
XRECORD
  5
AE
102
{ACAD_REACTORS
330
AD
102
}
330
AD
100
AcDbXrecord
280
     1
102
RTVSPropertyOp0
 70
     1
102
RTVSPropertyOp1
 70
     1
102
RTVSPropertyOp2
 70
     1
102
RTVSPropertyOp3
 70
     1
102
RTVSPropertyOp4
 70
     1
102
RTVSPropertyOp5
 70
     1
102
RTVSPropertyOp6
 70
     1
102
RTVSPropertyOp7
 70
     1
102
RTVSPropertyOp8
 70
     1
102
RTVSPropertyOp9
 70
     1
102
RTVSPropertyOp10
 70
     1
102
RTVSPropertyOp11
 70
     1
102
RTVSPropertyOp12
 70
     1
102
RTVSPropertyOp13
 70
     1
102
RTVSPropertyOp14
 70
     1
102
RTVSPropertyOp15
 70
     1
102
RTVSPropertyOp16
 70
     1
102
RTVSPropertyOp17
 70
     1
102
RTVSPropertyOp18
 70
     1
102
RTVSPropertyOp19
 70
     1
102
RTVSPropertyOp20
 70
     1
102
RTVSPropertyOp21
 70
     1
102
RTVSPropertyOp22
 70
     1
102
RTVSPropertyOp23
 70
     1
102
RTVSPropertyOp24
 70
     1
102
RTVSPropertyOp25
 70
     1
102
RTVSPropertyOp26
 70
     1
102
RTVSPropertyOp27
 70
     1
102
RTVSPropertyOp28
 70
     1
102
RTVSPropertyOp29
 70
     1
102
RTVSPropertyOp30
 70
     1
102
RTVSPropertyOp31
 70
     1
102
RTVSPropertyOp32
 70
     1
  0
XRECORD
  5
92
102
{ACAD_REACTORS
330
91
102
}
330
91
100
AcDbXrecord
280
     1
102
RTVSPropertyOp0
 70
     1
102
RTVSPropertyOp1
 70
     1
102
RTVSPropertyOp2
 70
     1
102
RTVSPropertyOp3
 70
     1
102
RTVSPropertyOp4
 70
     1
102
RTVSPropertyOp5
 70
     1
102
RTVSPropertyOp6
 70
     1
102
RTVSPropertyOp7
 70
     1
102
RTVSPropertyOp8
 70
     1
102
RTVSPropertyOp9
 70
     1
102
RTVSPropertyOp10
 70
     1
102
RTVSPropertyOp11
 70
     1
102
RTVSPropertyOp12
 70
     1
102
RTVSPropertyOp13
 70
     1
102
RTVSPropertyOp14
 70
     1
102
RTVSPropertyOp15
 70
     1
102
RTVSPropertyOp16
 70
     1
102
RTVSPropertyOp17
 70
     1
102
RTVSPropertyOp18
 70
     1
102
RTVSPropertyOp19
 70
     1
102
RTVSPropertyOp20
 70
     1
102
RTVSPropertyOp21
 70
     1
102
RTVSPropertyOp22
 70
     1
102
RTVSPropertyOp23
 70
     1
102
RTVSPropertyOp24
 70
     1
102
RTVSPropertyOp25
 70
     1
102
RTVSPropertyOp26
 70
     1
102
RTVSPropertyOp27
 70
     1
102
RTVSPropertyOp28
 70
     1
102
RTVSPropertyOp29
 70
     1
102
RTVSPropertyOp30
 70
     1
102
RTVSPropertyOp31
 70
     1
102
RTVSPropertyOp32
 70
     1
  0
XRECORD
  5
94
102
{ACAD_REACTORS
330
93
102
}
330
93
100
AcDbXrecord
280
     1
102
RTVSPropertyOp0
 70
     1
102
RTVSPropertyOp1
 70
     1
102
RTVSPropertyOp2
 70
     1
102
RTVSPropertyOp3
 70
     1
102
RTVSPropertyOp4
 70
     1
102
RTVSPropertyOp5
 70
     1
102
RTVSPropertyOp6
 70
     1
102
RTVSPropertyOp7
 70
     1
102
RTVSPropertyOp8
 70
     1
102
RTVSPropertyOp9
 70
     1
102
RTVSPropertyOp10
 70
     1
102
RTVSPropertyOp11
 70
     1
102
RTVSPropertyOp12
 70
     1
102
RTVSPropertyOp13
 70
     1
102
RTVSPropertyOp14
 70
     1
102
RTVSPropertyOp15
 70
     1
102
RTVSPropertyOp16
 70
     1
102
RTVSPropertyOp17
 70
     1
102
RTVSPropertyOp18
 70
     1
102
RTVSPropertyOp19
 70
     1
102
RTVSPropertyOp20
 70
     1
102
RTVSPropertyOp21
 70
     1
102
RTVSPropertyOp22
 70
     1
102
RTVSPropertyOp23
 70
     1
102
RTVSPropertyOp24
 70
     1
102
RTVSPropertyOp25
 70
     1
102
RTVSPropertyOp26
 70
     1
102
RTVSPropertyOp27
 70
     1
102
RTVSPropertyOp28
 70
     1
102
RTVSPropertyOp29
 70
     1
102
RTVSPropertyOp30
 70
     1
102
RTVSPropertyOp31
 70
     1
102
RTVSPropertyOp32
 70
     1
  0
XRECORD
  5
96
102
{ACAD_REACTORS
330
95
102
}
330
95
100
AcDbXrecord
280
     1
102
RTVSPropertyOp0
 70
     1
102
RTVSPropertyOp1
 70
     1
102
RTVSPropertyOp2
 70
     1
102
RTVSPropertyOp3
 70
     1
102
RTVSPropertyOp4
 70
     1
102
RTVSPropertyOp5
 70
     1
102
RTVSPropertyOp6
 70
     1
102
RTVSPropertyOp7
 70
     1
102
RTVSPropertyOp8
 70
     1
102
RTVSPropertyOp9
 70
     1
102
RTVSPropertyOp10
 70
     1
102
RTVSPropertyOp11
 70
     1
102
RTVSPropertyOp12
 70
     1
102
RTVSPropertyOp13
 70
     1
102
RTVSPropertyOp14
 70
     1
102
RTVSPropertyOp15
 70
     1
102
RTVSPropertyOp16
 70
     1
102
RTVSPropertyOp17
 70
     1
102
RTVSPropertyOp18
 70
     1
102
RTVSPropertyOp19
 70
     1
102
RTVSPropertyOp20
 70
     1
102
RTVSPropertyOp21
 70
     1
102
RTVSPropertyOp22
 70
     1
102
RTVSPropertyOp23
 70
     1
102
RTVSPropertyOp24
 70
     1
102
RTVSPropertyOp25
 70
     1
102
RTVSPropertyOp26
 70
     1
102
RTVSPropertyOp27
 70
     1
102
RTVSPropertyOp28
 70
     1
102
RTVSPropertyOp29
 70
     1
102
RTVSPropertyOp30
 70
     1
102
RTVSPropertyOp31
 70
     1
102
RTVSPropertyOp32
 70
     1
  0
XRECORD
  5
98
102
{ACAD_REACTORS
330
97
102
}
330
97
100
AcDbXrecord
280
     1
102
RTVSPropertyOp0
 70
     1
102
RTVSPropertyOp1
 70
     1
102
RTVSPropertyOp2
 70
     1
102
RTVSPropertyOp3
 70
     1
102
RTVSPropertyOp4
 70
     1
102
RTVSPropertyOp5
 70
     1
102
RTVSPropertyOp6
 70
     1
102
RTVSPropertyOp7
 70
     1
102
RTVSPropertyOp8
 70
     1
102
RTVSPropertyOp9
 70
     1
102
RTVSPropertyOp10
 70
     1
102
RTVSPropertyOp11
 70
     1
102
RTVSPropertyOp12
 70
     1
102
RTVSPropertyOp13
 70
     1
102
RTVSPropertyOp14
 70
     1
102
RTVSPropertyOp15
 70
     1
102
RTVSPropertyOp16
 70
     1
102
RTVSPropertyOp17
 70
     1
102
RTVSPropertyOp18
 70
     1
102
RTVSPropertyOp19
 70
     1
102
RTVSPropertyOp20
 70
     1
102
RTVSPropertyOp21
 70
     1
102
RTVSPropertyOp22
 70
     1
102
RTVSPropertyOp23
 70
     1
102
RTVSPropertyOp24
 70
     1
102
RTVSPropertyOp25
 70
     1
102
RTVSPropertyOp26
 70
     1
102
RTVSPropertyOp27
 70
     1
102
RTVSPropertyOp28
 70
     1
102
RTVSPropertyOp29
 70
     1
102
RTVSPropertyOp30
 70
     1
102
RTVSPropertyOp31
 70
     1
102
RTVSPropertyOp32
 70
     1
  0
XRECORD
  5
AC
102
{ACAD_REACTORS
330
AB
102
}
330
AB
100
AcDbXrecord
280
     1
102
RTVSPropertyOp0
 70
     1
102
RTVSPropertyOp1
 70
     1
102
RTVSPropertyOp2
 70
     1
102
RTVSPropertyOp3
 70
     1
102
RTVSPropertyOp4
 70
     1
102
RTVSPropertyOp5
 70
     1
102
RTVSPropertyOp6
 70
     1
102
RTVSPropertyOp7
 70
     1
102
RTVSPropertyOp8
 70
     1
102
RTVSPropertyOp9
 70
     1
102
RTVSPropertyOp10
 70
     1
102
RTVSPropertyOp11
 70
     1
102
RTVSPropertyOp12
 70
     1
102
RTVSPropertyOp13
 70
     1
102
RTVSPropertyOp14
 70
     1
102
RTVSPropertyOp15
 70
     1
102
RTVSPropertyOp16
 70
     1
102
RTVSPropertyOp17
 70
     1
102
RTVSPropertyOp18
 70
     1
102
RTVSPropertyOp19
 70
     1
102
RTVSPropertyOp20
 70
     1
102
RTVSPropertyOp21
 70
     1
102
RTVSPropertyOp22
 70
     1
102
RTVSPropertyOp23
 70
     1
102
RTVSPropertyOp24
 70
     1
102
RTVSPropertyOp25
 70
     1
102
RTVSPropertyOp26
 70
     1
102
RTVSPropertyOp27
 70
     1
102
RTVSPropertyOp28
 70
     1
102
RTVSPropertyOp29
 70
     1
102
RTVSPropertyOp30
 70
     1
102
RTVSPropertyOp31
 70
     1
102
RTVSPropertyOp32
 70
     1
  0
XRECORD
  5
A2
102
{ACAD_REACTORS
330
A1
102
}
330
A1
100
AcDbXrecord
280
     1
102
RTVSPropertyOp0
 70
     1
102
RTVSPropertyOp1
 70
     1
102
RTVSPropertyOp2
 70
     1
102
RTVSPropertyOp3
 70
     1
102
RTVSPropertyOp4
 70
     1
102
RTVSPropertyOp5
 70
     1
102
RTVSPropertyOp6
 70
     1
102
RTVSPropertyOp7
 70
     1
102
RTVSPropertyOp8
 70
     1
102
RTVSPropertyOp9
 70
     1
102
RTVSPropertyOp10
 70
     1
102
RTVSPropertyOp11
 70
     1
102
RTVSPropertyOp12
 70
     1
102
RTVSPropertyOp13
 70
     1
102
RTVSPropertyOp14
 70
     1
102
RTVSPropertyOp15
 70
     1
102
RTVSPropertyOp16
 70
     1
102
RTVSPropertyOp17
 70
     1
102
RTVSPropertyOp18
 70
     1
102
RTVSPropertyOp19
 70
     1
102
RTVSPropertyOp20
 70
     1
102
RTVSPropertyOp21
 70
     1
102
RTVSPropertyOp22
 70
     1
102
RTVSPropertyOp23
 70
     1
102
RTVSPropertyOp24
 70
     1
102
RTVSPropertyOp25
 70
     1
102
RTVSPropertyOp26
 70
     1
102
RTVSPropertyOp27
 70
     1
102
RTVSPropertyOp28
 70
     1
102
RTVSPropertyOp29
 70
     1
102
RTVSPropertyOp30
 70
     1
102
RTVSPropertyOp31
 70
     1
102
RTVSPropertyOp32
 70
     1
  0
XRECORD
  5
AA
102
{ACAD_REACTORS
330
A9
102
}
330
A9
100
AcDbXrecord
280
     1
102
RTVSPropertyOp0
 70
     1
102
RTVSPropertyOp1
 70
     1
102
RTVSPropertyOp2
 70
     1
102
RTVSPropertyOp3
 70
     1
102
RTVSPropertyOp4
 70
     1
102
RTVSPropertyOp5
 70
     1
102
RTVSPropertyOp6
 70
     1
102
RTVSPropertyOp7
 70
     1
102
RTVSPropertyOp8
 70
     1
102
RTVSPropertyOp9
 70
     1
102
RTVSPropertyOp10
 70
     1
102
RTVSPropertyOp11
 70
     1
102
RTVSPropertyOp12
 70
     1
102
RTVSPropertyOp13
 70
     1
102
RTVSPropertyOp14
 70
     1
102
RTVSPropertyOp15
 70
     1
102
RTVSPropertyOp16
 70
     1
102
RTVSPropertyOp17
 70
     1
102
RTVSPropertyOp18
 70
     1
102
RTVSPropertyOp19
 70
     1
102
RTVSPropertyOp20
 70
     1
102
RTVSPropertyOp21
 70
     1
102
RTVSPropertyOp22
 70
     1
102
RTVSPropertyOp23
 70
     1
102
RTVSPropertyOp24
 70
     1
102
RTVSPropertyOp25
 70
     1
102
RTVSPropertyOp26
 70
     1
102
RTVSPropertyOp27
 70
     1
102
RTVSPropertyOp28
 70
     1
102
RTVSPropertyOp29
 70
     1
102
RTVSPropertyOp30
 70
     1
102
RTVSPropertyOp31
 70
     1
102
RTVSPropertyOp32
 70
     1
  0
ENDSEC
  0
EOF
